<mxfile host="app.diagrams.net" modified="2024-05-22T08:25:04.163Z" agent="Mozilla/5.0 (Windows NT 10.0; Win64; x64) AppleWebKit/537.36 (KHTML, like Gecko) Chrome/125.0.0.0 Safari/537.36 Edg/125.0.0.0" etag="vtgDX5AuCYIuzz-0VRqb" version="24.4.4" type="device">
  <diagram name="Pagina-1" id="qoch-4OdgnDx7PMS4UWh">
    <mxGraphModel dx="1002" dy="569" grid="1" gridSize="10" guides="1" tooltips="1" connect="1" arrows="1" fold="1" page="1" pageScale="1" pageWidth="1169" pageHeight="827" background="none" math="0" shadow="0">
      <root>
        <mxCell id="0" />
        <mxCell id="1" parent="0" />
        <mxCell id="QatNc70n-s6f2DUu6Mrz-89" style="edgeStyle=orthogonalEdgeStyle;rounded=1;orthogonalLoop=1;jettySize=auto;html=1;exitX=0;exitY=1;exitDx=0;exitDy=0;exitPerimeter=0;endArrow=none;endFill=0;" parent="1" source="JiZGD-UJO6ILcqSkcmLT-1" edge="1">
          <mxGeometry relative="1" as="geometry">
            <mxPoint x="105.06" y="801.31" as="targetPoint" />
          </mxGeometry>
        </mxCell>
        <mxCell id="JiZGD-UJO6ILcqSkcmLT-1" value="" style="pointerEvents=1;verticalLabelPosition=bottom;shadow=0;dashed=0;align=center;html=1;verticalAlign=top;shape=mxgraph.electrical.electro-mechanical.make_contact;rotation=-90;rounded=1;" parent="1" vertex="1">
          <mxGeometry x="60" y="681.31" width="75" height="16" as="geometry" />
        </mxCell>
        <mxCell id="QatNc70n-s6f2DUu6Mrz-118" style="edgeStyle=orthogonalEdgeStyle;rounded=1;orthogonalLoop=1;jettySize=auto;html=1;exitX=0;exitY=1;exitDx=0;exitDy=0;exitPerimeter=0;endArrow=none;endFill=0;" parent="1" edge="1">
          <mxGeometry relative="1" as="geometry">
            <mxPoint x="516.43" y="804" as="targetPoint" />
            <mxPoint x="515.93" y="730.81" as="sourcePoint" />
          </mxGeometry>
        </mxCell>
        <mxCell id="JiZGD-UJO6ILcqSkcmLT-2" value="" style="pointerEvents=1;verticalLabelPosition=bottom;shadow=0;dashed=0;align=center;html=1;verticalAlign=top;shape=mxgraph.electrical.electro-mechanical.make_contact;rotation=-90;rounded=1;" parent="1" vertex="1">
          <mxGeometry x="470.42999999999995" y="685.31" width="75" height="16" as="geometry" />
        </mxCell>
        <mxCell id="QatNc70n-s6f2DUu6Mrz-119" style="edgeStyle=orthogonalEdgeStyle;rounded=1;orthogonalLoop=1;jettySize=auto;html=1;exitX=0;exitY=1;exitDx=0;exitDy=0;exitPerimeter=0;endArrow=none;endFill=0;" parent="1" edge="1">
          <mxGeometry relative="1" as="geometry">
            <mxPoint x="546" y="805" as="targetPoint" />
            <mxPoint x="545.5" y="730.81" as="sourcePoint" />
          </mxGeometry>
        </mxCell>
        <mxCell id="JiZGD-UJO6ILcqSkcmLT-3" value="" style="pointerEvents=1;verticalLabelPosition=bottom;shadow=0;dashed=0;align=center;html=1;verticalAlign=top;shape=mxgraph.electrical.electro-mechanical.make_contact;rotation=-90;rounded=1;" parent="1" vertex="1">
          <mxGeometry x="499.99999999999994" y="685.31" width="75" height="16" as="geometry" />
        </mxCell>
        <mxCell id="QatNc70n-s6f2DUu6Mrz-117" style="edgeStyle=orthogonalEdgeStyle;rounded=1;orthogonalLoop=1;jettySize=auto;html=1;exitX=0;exitY=1;exitDx=0;exitDy=0;exitPerimeter=0;endArrow=none;endFill=0;" parent="1" source="JiZGD-UJO6ILcqSkcmLT-4" edge="1">
          <mxGeometry relative="1" as="geometry">
            <mxPoint x="485.05999999999995" y="804" as="targetPoint" />
          </mxGeometry>
        </mxCell>
        <mxCell id="JiZGD-UJO6ILcqSkcmLT-4" value="" style="pointerEvents=1;verticalLabelPosition=bottom;shadow=0;dashed=0;align=center;html=1;verticalAlign=top;shape=mxgraph.electrical.electro-mechanical.make_contact;rotation=-90;rounded=1;" parent="1" vertex="1">
          <mxGeometry x="440" y="684" width="75" height="16" as="geometry" />
        </mxCell>
        <mxCell id="QatNc70n-s6f2DUu6Mrz-102" style="edgeStyle=orthogonalEdgeStyle;rounded=1;orthogonalLoop=1;jettySize=auto;html=1;exitX=0;exitY=1;exitDx=0;exitDy=0;exitPerimeter=0;endArrow=none;endFill=0;" parent="1" source="JiZGD-UJO6ILcqSkcmLT-5" edge="1">
          <mxGeometry relative="1" as="geometry">
            <mxPoint x="195.40782608695673" y="803" as="targetPoint" />
          </mxGeometry>
        </mxCell>
        <mxCell id="JiZGD-UJO6ILcqSkcmLT-5" value="" style="pointerEvents=1;verticalLabelPosition=bottom;shadow=0;dashed=0;align=center;html=1;verticalAlign=top;shape=mxgraph.electrical.electro-mechanical.make_contact;rotation=-90;rounded=1;" parent="1" vertex="1">
          <mxGeometry x="150" y="682" width="75" height="16" as="geometry" />
        </mxCell>
        <mxCell id="QatNc70n-s6f2DUu6Mrz-98" style="edgeStyle=orthogonalEdgeStyle;rounded=1;orthogonalLoop=1;jettySize=auto;html=1;exitX=0;exitY=1;exitDx=0;exitDy=0;exitPerimeter=0;endArrow=none;endFill=0;" parent="1" edge="1">
          <mxGeometry relative="1" as="geometry">
            <mxPoint x="136" y="801.69" as="targetPoint" />
            <mxPoint x="135.5" y="726.19" as="sourcePoint" />
            <Array as="points">
              <mxPoint x="135.32" y="763.69" />
              <mxPoint x="136.32" y="763.69" />
            </Array>
          </mxGeometry>
        </mxCell>
        <mxCell id="JiZGD-UJO6ILcqSkcmLT-6" value="" style="pointerEvents=1;verticalLabelPosition=bottom;shadow=0;dashed=0;align=center;html=1;verticalAlign=top;shape=mxgraph.electrical.electro-mechanical.make_contact;rotation=-90;rounded=1;" parent="1" vertex="1">
          <mxGeometry x="90" y="680.69" width="75" height="16" as="geometry" />
        </mxCell>
        <mxCell id="QatNc70n-s6f2DUu6Mrz-101" style="edgeStyle=orthogonalEdgeStyle;rounded=1;orthogonalLoop=1;jettySize=auto;html=1;exitX=0;exitY=1;exitDx=0;exitDy=0;exitPerimeter=0;endArrow=none;endFill=0;" parent="1" source="JiZGD-UJO6ILcqSkcmLT-7" edge="1">
          <mxGeometry relative="1" as="geometry">
            <mxPoint x="165.45130434782624" y="803" as="targetPoint" />
          </mxGeometry>
        </mxCell>
        <mxCell id="JiZGD-UJO6ILcqSkcmLT-7" value="" style="pointerEvents=1;verticalLabelPosition=bottom;shadow=0;dashed=0;align=center;html=1;verticalAlign=top;shape=mxgraph.electrical.electro-mechanical.make_contact;rotation=-90;rounded=1;" parent="1" vertex="1">
          <mxGeometry x="120" y="683" width="75" height="16" as="geometry" />
        </mxCell>
        <mxCell id="QatNc70n-s6f2DUu6Mrz-116" style="edgeStyle=orthogonalEdgeStyle;rounded=1;orthogonalLoop=1;jettySize=auto;html=1;exitX=0;exitY=1;exitDx=0;exitDy=0;exitPerimeter=0;endArrow=none;endFill=0;" parent="1" source="JiZGD-UJO6ILcqSkcmLT-8" edge="1">
          <mxGeometry relative="1" as="geometry">
            <mxPoint x="455.05999999999995" y="802.31" as="targetPoint" />
          </mxGeometry>
        </mxCell>
        <mxCell id="JiZGD-UJO6ILcqSkcmLT-8" value="" style="pointerEvents=1;verticalLabelPosition=bottom;shadow=0;dashed=0;align=center;html=1;verticalAlign=top;shape=mxgraph.electrical.electro-mechanical.make_contact;rotation=-90;rounded=1;" parent="1" vertex="1">
          <mxGeometry x="410.00000000000006" y="681.31" width="75" height="16" as="geometry" />
        </mxCell>
        <mxCell id="QatNc70n-s6f2DUu6Mrz-76" style="edgeStyle=orthogonalEdgeStyle;rounded=1;orthogonalLoop=1;jettySize=auto;html=1;exitX=0;exitY=1;exitDx=0;exitDy=0;exitPerimeter=0;endArrow=none;endFill=0;" parent="1" source="JiZGD-UJO6ILcqSkcmLT-9" edge="1">
          <mxGeometry relative="1" as="geometry">
            <mxPoint x="77.24" y="802" as="targetPoint" />
          </mxGeometry>
        </mxCell>
        <mxCell id="JiZGD-UJO6ILcqSkcmLT-9" value="" style="pointerEvents=1;verticalLabelPosition=bottom;shadow=0;dashed=0;align=center;html=1;verticalAlign=top;shape=mxgraph.electrical.electro-mechanical.make_contact;rotation=-90;rounded=1;" parent="1" vertex="1">
          <mxGeometry x="32.17999999999999" y="682" width="75" height="16" as="geometry" />
        </mxCell>
        <mxCell id="JiZGD-UJO6ILcqSkcmLT-10" value="" style="pointerEvents=1;verticalLabelPosition=bottom;shadow=0;dashed=0;align=center;html=1;verticalAlign=top;shape=mxgraph.electrical.electro-mechanical.make_contact;rotation=-90;rounded=1;" parent="1" vertex="1">
          <mxGeometry y="681" width="75" height="16" as="geometry" />
        </mxCell>
        <mxCell id="QatNc70n-s6f2DUu6Mrz-110" style="edgeStyle=orthogonalEdgeStyle;rounded=1;orthogonalLoop=1;jettySize=auto;html=1;exitX=0;exitY=1;exitDx=0;exitDy=0;exitPerimeter=0;endArrow=none;endFill=0;" parent="1" source="JiZGD-UJO6ILcqSkcmLT-11" edge="1">
          <mxGeometry relative="1" as="geometry">
            <mxPoint x="425.06" y="803" as="targetPoint" />
          </mxGeometry>
        </mxCell>
        <mxCell id="JiZGD-UJO6ILcqSkcmLT-11" value="" style="pointerEvents=1;verticalLabelPosition=bottom;shadow=0;dashed=0;align=center;html=1;verticalAlign=top;shape=mxgraph.electrical.electro-mechanical.make_contact;rotation=-90;rounded=1;" parent="1" vertex="1">
          <mxGeometry x="380.00000000000006" y="682" width="75" height="16" as="geometry" />
        </mxCell>
        <mxCell id="QatNc70n-s6f2DUu6Mrz-31" style="edgeStyle=entityRelationEdgeStyle;rounded=1;orthogonalLoop=1;jettySize=auto;html=1;endArrow=none;endFill=0;" parent="1" edge="1">
          <mxGeometry relative="1" as="geometry">
            <mxPoint x="840" y="805" as="targetPoint" />
            <mxPoint x="46" y="802" as="sourcePoint" />
          </mxGeometry>
        </mxCell>
        <mxCell id="QatNc70n-s6f2DUu6Mrz-120" style="edgeStyle=orthogonalEdgeStyle;rounded=1;orthogonalLoop=1;jettySize=auto;html=1;exitX=0;exitY=1;exitDx=0;exitDy=0;exitPerimeter=0;endArrow=none;endFill=0;" parent="1" edge="1">
          <mxGeometry relative="1" as="geometry">
            <mxPoint x="576" y="803.69" as="targetPoint" />
            <mxPoint x="575.5" y="729.5" as="sourcePoint" />
          </mxGeometry>
        </mxCell>
        <mxCell id="JiZGD-UJO6ILcqSkcmLT-12" value="" style="pointerEvents=1;verticalLabelPosition=bottom;shadow=0;dashed=0;align=center;html=1;verticalAlign=top;shape=mxgraph.electrical.electro-mechanical.make_contact;rotation=-90;rounded=1;" parent="1" vertex="1">
          <mxGeometry x="530" y="684" width="75" height="16" as="geometry" />
        </mxCell>
        <mxCell id="QatNc70n-s6f2DUu6Mrz-2" value="" style="pointerEvents=1;verticalLabelPosition=bottom;shadow=0;dashed=0;align=center;html=1;verticalAlign=top;shape=mxgraph.electrical.resistors.resistor_1;rotation=-90;rounded=1;" parent="1" vertex="1">
          <mxGeometry x="81" y="602" width="50" height="16.69" as="geometry" />
        </mxCell>
        <mxCell id="QatNc70n-s6f2DUu6Mrz-3" value="" style="pointerEvents=1;verticalLabelPosition=bottom;shadow=0;dashed=0;align=center;html=1;verticalAlign=top;shape=mxgraph.electrical.resistors.resistor_1;rotation=-90;rounded=1;" parent="1" vertex="1">
          <mxGeometry x="111" y="602.69" width="50" height="16.69" as="geometry" />
        </mxCell>
        <mxCell id="QatNc70n-s6f2DUu6Mrz-4" value="" style="pointerEvents=1;verticalLabelPosition=bottom;shadow=0;dashed=0;align=center;html=1;verticalAlign=top;shape=mxgraph.electrical.resistors.resistor_1;rotation=90;rounded=1;" parent="1" vertex="1">
          <mxGeometry x="53.17999999999999" y="601.69" width="50" height="16.69" as="geometry" />
        </mxCell>
        <mxCell id="QatNc70n-s6f2DUu6Mrz-22" style="edgeStyle=entityRelationEdgeStyle;rounded=1;orthogonalLoop=1;jettySize=auto;html=1;endArrow=none;endFill=0;fillColor=#f8cecc;strokeColor=#FF3333;" parent="1" target="QatNc70n-s6f2DUu6Mrz-23" edge="1">
          <mxGeometry relative="1" as="geometry">
            <mxPoint x="135.12" y="35" as="targetPoint" />
            <mxPoint x="865.12" y="35" as="sourcePoint" />
          </mxGeometry>
        </mxCell>
        <mxCell id="QatNc70n-s6f2DUu6Mrz-5" value="" style="pointerEvents=1;verticalLabelPosition=bottom;shadow=0;dashed=0;align=center;html=1;verticalAlign=top;shape=mxgraph.electrical.resistors.resistor_1;rotation=90;rounded=1;" parent="1" vertex="1">
          <mxGeometry x="21" y="601.69" width="50" height="16.69" as="geometry" />
        </mxCell>
        <mxCell id="QatNc70n-s6f2DUu6Mrz-9" value="" style="pointerEvents=1;verticalLabelPosition=bottom;shadow=0;dashed=0;align=center;html=1;verticalAlign=top;shape=mxgraph.electrical.resistors.resistor_1;rotation=-90;rounded=1;" parent="1" vertex="1">
          <mxGeometry x="490.42999999999995" y="603" width="50" height="16.69" as="geometry" />
        </mxCell>
        <mxCell id="QatNc70n-s6f2DUu6Mrz-24" style="edgeStyle=entityRelationEdgeStyle;rounded=1;orthogonalLoop=1;jettySize=auto;html=1;fillColor=#dae8fc;strokeColor=#030405;endArrow=none;endFill=0;" parent="1" edge="1">
          <mxGeometry relative="1" as="geometry">
            <mxPoint x="897.68" y="71" as="targetPoint" />
            <mxPoint x="97.68" y="71" as="sourcePoint" />
          </mxGeometry>
        </mxCell>
        <mxCell id="QatNc70n-s6f2DUu6Mrz-10" value="" style="pointerEvents=1;verticalLabelPosition=bottom;shadow=0;dashed=0;align=center;html=1;verticalAlign=top;shape=mxgraph.electrical.resistors.resistor_1;rotation=-90;rounded=1;" parent="1" vertex="1">
          <mxGeometry x="550.5" y="601.69" width="50" height="16.69" as="geometry" />
        </mxCell>
        <mxCell id="QatNc70n-s6f2DUu6Mrz-11" value="" style="pointerEvents=1;verticalLabelPosition=bottom;shadow=0;dashed=0;align=center;html=1;verticalAlign=top;shape=mxgraph.electrical.resistors.resistor_1;rotation=-90;rounded=1;" parent="1" vertex="1">
          <mxGeometry x="170.06" y="602.69" width="50" height="16.69" as="geometry" />
        </mxCell>
        <mxCell id="QatNc70n-s6f2DUu6Mrz-12" value="" style="pointerEvents=1;verticalLabelPosition=bottom;shadow=0;dashed=0;align=center;html=1;verticalAlign=top;shape=mxgraph.electrical.resistors.resistor_1;rotation=-90;rounded=1;" parent="1" vertex="1">
          <mxGeometry x="141" y="602.69" width="50" height="16.69" as="geometry" />
        </mxCell>
        <mxCell id="QatNc70n-s6f2DUu6Mrz-13" value="" style="pointerEvents=1;verticalLabelPosition=bottom;shadow=0;dashed=0;align=center;html=1;verticalAlign=top;shape=mxgraph.electrical.resistors.resistor_1;rotation=-90;rounded=1;" parent="1" vertex="1">
          <mxGeometry x="520" y="603" width="50" height="16.69" as="geometry" />
        </mxCell>
        <mxCell id="QatNc70n-s6f2DUu6Mrz-14" value="" style="pointerEvents=1;verticalLabelPosition=bottom;shadow=0;dashed=0;align=center;html=1;verticalAlign=top;shape=mxgraph.electrical.resistors.resistor_1;rotation=-90;rounded=1;" parent="1" vertex="1">
          <mxGeometry x="460" y="603" width="50" height="16.69" as="geometry" />
        </mxCell>
        <mxCell id="bL1KEJmNTPArhZalwCbe-24" style="edgeStyle=orthogonalEdgeStyle;rounded=0;orthogonalLoop=1;jettySize=auto;html=1;exitX=1;exitY=0.5;exitDx=0;exitDy=0;exitPerimeter=0;entryX=1;entryY=0.5;entryDx=0;entryDy=0;endArrow=none;endFill=0;" parent="1" source="QatNc70n-s6f2DUu6Mrz-15" target="bL1KEJmNTPArhZalwCbe-5" edge="1">
          <mxGeometry relative="1" as="geometry" />
        </mxCell>
        <mxCell id="QatNc70n-s6f2DUu6Mrz-15" value="" style="pointerEvents=1;verticalLabelPosition=bottom;shadow=0;dashed=0;align=center;html=1;verticalAlign=top;shape=mxgraph.electrical.resistors.resistor_1;rotation=-90;rounded=1;" parent="1" vertex="1">
          <mxGeometry x="430.00000000000006" y="603" width="50" height="16.69" as="geometry" />
        </mxCell>
        <mxCell id="QatNc70n-s6f2DUu6Mrz-16" value="" style="pointerEvents=1;verticalLabelPosition=bottom;shadow=0;dashed=0;align=center;html=1;verticalAlign=top;shape=mxgraph.electrical.resistors.resistor_1;rotation=-90;rounded=1;" parent="1" vertex="1">
          <mxGeometry x="400.06" y="602.69" width="50" height="16.69" as="geometry" />
        </mxCell>
        <mxCell id="QatNc70n-s6f2DUu6Mrz-21" value="PULL&amp;nbsp; down" style="text;html=1;strokeColor=none;fillColor=none;align=center;verticalAlign=middle;whiteSpace=wrap;rounded=1;" parent="1" vertex="1">
          <mxGeometry x="600.5" y="618.38" width="60" height="30" as="geometry" />
        </mxCell>
        <mxCell id="QatNc70n-s6f2DUu6Mrz-23" value="5V vcc" style="text;html=1;strokeColor=#b85450;fillColor=#f8cecc;align=center;verticalAlign=middle;whiteSpace=wrap;rounded=1;" parent="1" vertex="1">
          <mxGeometry x="39.68000000000006" y="20" width="60" height="30" as="geometry" />
        </mxCell>
        <mxCell id="QatNc70n-s6f2DUu6Mrz-26" value="5V vcc" style="text;html=1;strokeColor=#b85450;fillColor=#6666FF;align=center;verticalAlign=middle;whiteSpace=wrap;rounded=1;" parent="1" vertex="1">
          <mxGeometry x="39.68000000000006" y="59" width="60" height="30" as="geometry" />
        </mxCell>
        <mxCell id="QatNc70n-s6f2DUu6Mrz-44" value="" style="endArrow=none;html=1;rounded=1;" parent="1" edge="1">
          <mxGeometry width="50" height="50" relative="1" as="geometry">
            <mxPoint x="46" y="802" as="sourcePoint" />
            <mxPoint x="45.5" y="722" as="targetPoint" />
          </mxGeometry>
        </mxCell>
        <mxCell id="QatNc70n-s6f2DUu6Mrz-46" style="edgeStyle=orthogonalEdgeStyle;rounded=1;orthogonalLoop=1;jettySize=auto;html=1;exitX=1;exitY=1;exitDx=0;exitDy=0;exitPerimeter=0;entryX=0;entryY=0.5;entryDx=0;entryDy=0;entryPerimeter=0;endArrow=none;endFill=0;" parent="1" source="JiZGD-UJO6ILcqSkcmLT-4" target="QatNc70n-s6f2DUu6Mrz-14" edge="1">
          <mxGeometry relative="1" as="geometry" />
        </mxCell>
        <mxCell id="QatNc70n-s6f2DUu6Mrz-47" style="edgeStyle=orthogonalEdgeStyle;rounded=1;orthogonalLoop=1;jettySize=auto;html=1;exitX=1;exitY=1;exitDx=0;exitDy=0;exitPerimeter=0;entryX=0;entryY=0.5;entryDx=0;entryDy=0;entryPerimeter=0;endArrow=none;endFill=0;" parent="1" source="JiZGD-UJO6ILcqSkcmLT-2" target="QatNc70n-s6f2DUu6Mrz-9" edge="1">
          <mxGeometry relative="1" as="geometry" />
        </mxCell>
        <mxCell id="QatNc70n-s6f2DUu6Mrz-48" style="edgeStyle=orthogonalEdgeStyle;rounded=1;orthogonalLoop=1;jettySize=auto;html=1;exitX=1;exitY=1;exitDx=0;exitDy=0;exitPerimeter=0;entryX=0;entryY=0.5;entryDx=0;entryDy=0;entryPerimeter=0;endArrow=none;endFill=0;" parent="1" source="JiZGD-UJO6ILcqSkcmLT-11" target="QatNc70n-s6f2DUu6Mrz-16" edge="1">
          <mxGeometry relative="1" as="geometry" />
        </mxCell>
        <mxCell id="QatNc70n-s6f2DUu6Mrz-49" style="edgeStyle=orthogonalEdgeStyle;rounded=1;orthogonalLoop=1;jettySize=auto;html=1;exitX=1;exitY=1;exitDx=0;exitDy=0;exitPerimeter=0;entryX=0;entryY=0.5;entryDx=0;entryDy=0;entryPerimeter=0;endArrow=none;endFill=0;" parent="1" source="JiZGD-UJO6ILcqSkcmLT-8" target="QatNc70n-s6f2DUu6Mrz-15" edge="1">
          <mxGeometry relative="1" as="geometry" />
        </mxCell>
        <mxCell id="QatNc70n-s6f2DUu6Mrz-50" style="edgeStyle=orthogonalEdgeStyle;rounded=1;orthogonalLoop=1;jettySize=auto;html=1;exitX=1;exitY=1;exitDx=0;exitDy=0;exitPerimeter=0;entryX=0;entryY=0.5;entryDx=0;entryDy=0;entryPerimeter=0;endArrow=none;endFill=0;" parent="1" source="JiZGD-UJO6ILcqSkcmLT-3" target="QatNc70n-s6f2DUu6Mrz-13" edge="1">
          <mxGeometry relative="1" as="geometry" />
        </mxCell>
        <mxCell id="QatNc70n-s6f2DUu6Mrz-51" style="edgeStyle=orthogonalEdgeStyle;rounded=1;orthogonalLoop=1;jettySize=auto;html=1;exitX=1;exitY=1;exitDx=0;exitDy=0;exitPerimeter=0;entryX=0;entryY=0.5;entryDx=0;entryDy=0;entryPerimeter=0;endArrow=none;endFill=0;" parent="1" source="JiZGD-UJO6ILcqSkcmLT-12" target="QatNc70n-s6f2DUu6Mrz-10" edge="1">
          <mxGeometry relative="1" as="geometry" />
        </mxCell>
        <mxCell id="QatNc70n-s6f2DUu6Mrz-53" style="edgeStyle=orthogonalEdgeStyle;rounded=1;orthogonalLoop=1;jettySize=auto;html=1;exitX=1;exitY=1;exitDx=0;exitDy=0;exitPerimeter=0;entryX=0;entryY=0.5;entryDx=0;entryDy=0;entryPerimeter=0;endArrow=none;endFill=0;" parent="1" source="JiZGD-UJO6ILcqSkcmLT-1" target="QatNc70n-s6f2DUu6Mrz-2" edge="1">
          <mxGeometry relative="1" as="geometry" />
        </mxCell>
        <mxCell id="QatNc70n-s6f2DUu6Mrz-55" style="edgeStyle=orthogonalEdgeStyle;rounded=1;orthogonalLoop=1;jettySize=auto;html=1;exitX=1;exitY=1;exitDx=0;exitDy=0;exitPerimeter=0;entryX=0;entryY=0.5;entryDx=0;entryDy=0;entryPerimeter=0;endArrow=none;endFill=0;" parent="1" source="JiZGD-UJO6ILcqSkcmLT-7" target="QatNc70n-s6f2DUu6Mrz-12" edge="1">
          <mxGeometry relative="1" as="geometry" />
        </mxCell>
        <mxCell id="QatNc70n-s6f2DUu6Mrz-56" style="edgeStyle=orthogonalEdgeStyle;rounded=1;orthogonalLoop=1;jettySize=auto;html=1;exitX=1;exitY=1;exitDx=0;exitDy=0;exitPerimeter=0;entryX=0;entryY=0.5;entryDx=0;entryDy=0;entryPerimeter=0;endArrow=none;endFill=0;" parent="1" target="QatNc70n-s6f2DUu6Mrz-11" edge="1">
          <mxGeometry relative="1" as="geometry">
            <mxPoint x="195.50000000000006" y="652.5" as="sourcePoint" />
          </mxGeometry>
        </mxCell>
        <mxCell id="QatNc70n-s6f2DUu6Mrz-57" style="edgeStyle=orthogonalEdgeStyle;rounded=1;orthogonalLoop=1;jettySize=auto;html=1;exitX=1;exitY=1;exitDx=0;exitDy=0;exitPerimeter=0;entryX=1;entryY=0.5;entryDx=0;entryDy=0;entryPerimeter=0;endArrow=none;endFill=0;" parent="1" source="JiZGD-UJO6ILcqSkcmLT-10" target="QatNc70n-s6f2DUu6Mrz-5" edge="1">
          <mxGeometry relative="1" as="geometry" />
        </mxCell>
        <mxCell id="QatNc70n-s6f2DUu6Mrz-75" style="edgeStyle=orthogonalEdgeStyle;rounded=1;orthogonalLoop=1;jettySize=auto;html=1;exitX=1;exitY=1;exitDx=0;exitDy=0;exitPerimeter=0;entryX=1;entryY=0.5;entryDx=0;entryDy=0;entryPerimeter=0;endArrow=none;endFill=0;" parent="1" source="JiZGD-UJO6ILcqSkcmLT-9" target="QatNc70n-s6f2DUu6Mrz-4" edge="1">
          <mxGeometry relative="1" as="geometry" />
        </mxCell>
        <mxCell id="QatNc70n-s6f2DUu6Mrz-99" style="edgeStyle=orthogonalEdgeStyle;rounded=1;orthogonalLoop=1;jettySize=auto;html=1;exitX=1;exitY=1;exitDx=0;exitDy=0;exitPerimeter=0;entryX=0;entryY=0.5;entryDx=0;entryDy=0;entryPerimeter=0;endArrow=none;endFill=0;" parent="1" source="JiZGD-UJO6ILcqSkcmLT-6" target="QatNc70n-s6f2DUu6Mrz-3" edge="1">
          <mxGeometry relative="1" as="geometry" />
        </mxCell>
        <mxCell id="bL1KEJmNTPArhZalwCbe-2" value="" style="endArrow=none;html=1;rounded=0;" parent="1" edge="1">
          <mxGeometry width="50" height="50" relative="1" as="geometry">
            <mxPoint x="840" y="804" as="sourcePoint" />
            <mxPoint x="840" y="71" as="targetPoint" />
          </mxGeometry>
        </mxCell>
        <mxCell id="bL1KEJmNTPArhZalwCbe-5" value="" style="shape=image;verticalLabelPosition=bottom;verticalAlign=top;imageAspect=0;image=data:image/png,iVBORw0KGgoAAAANSUhEUgAAAUAAAAD/CAYAAACAew++AAAAAXNSR0IArs4c6QAAAARnQU1BAACxjwv8YQUAAAAJcEhZcwAAEnQAABJ0Ad5mH3gAAABtaVRYdFNuaXBNZXRhZGF0YQAAAAAAeyJjbGlwUG9pbnRzIjpbeyJ4IjotNjQwLCJ5IjotMjY3fSx7IngiOi0zMjAsInkiOi0yNjd9LHsieCI6LTMyMCwieSI6LTV9LHsieCI6LTY0MCwieSI6LTV9XX0Fs+HvAAB+SElEQVR4Xu2dB1hTVxvHX0ZI2CCCCg5UBDcq1D2Le+PWqv1ctc5qHW3dW2sdddUtSh04cGvde9Y9QFEUUHGguAABSfh/9yYXCZCQC4SMen/Pcx7NvW9Cct5z3rP/1wQMJCAgIPAVYsr9KyAgIPDVIQRAAQGBrxYhAAoICHy1CAFQQEDgq0UIgAICAl8tQgAUEBD4ahECoICAwFeLEAAFBAS+WoQAKCAg8NUinAQxYExMTLj/CRgDQlUyPoQAaMCwAdCY3DNnzhxKTk6myZMnc1e0g6Hng7H5SSAdYQgsoDWcnJwoKiqKeyUgYPgIAVBAaxQvXpzu3LnDvdIOjx494v4nIKB9hAAooDXq1q1Ljx8/1mrQOnv2LLVq1Yp7JSCgXYQAKKA1rK2taejQobRo0SLuSt5he5S1atXiXgkIaBdhEcSAMcbJ9ZiYGPL09KTz589ThQoVuKu54+PHj1SjRg06d+6cfH7RUBEWQYwXIQAaMNqpWKn08tJuCinQmvw8Lbhr+cvcuXNp9erVdOrUKXJzc+Ou5oyUlBTq06cPeXl50cSJE7mrWiYpmq6dvkhhsUROXrWpgY8rSbhbcj7H0O3TZ+juG3Nyq9aA6nk5qhwyfTUBMOkpXdyziw5feUAxSWIqWLIq+fn7U4NS1pwBU9peXKTgw/cpnssOExNTMhPbUmHPGlTbx43SLRnb97fowJ6bBO+21LpKxryNexFOLz7KKEuumtiSq4cr2Wpr7MoGQAHdw2Y9n5RXEm79ieYulmix+i13Jf9JTU3F2LFjwQQvREREcFf5wwQ/9OjRAzVr1gTTC+SuapeEm0vQzl0CsVMpVKzgDkcLS5TuuAJ3khT3ZS/2YnhVB4jsisLTswisRS5oMPUM3iluZ0CV39QlY+XdpQXw97CGpJA3mnXrhwH9eqC5dyGILUuj4/I7SOTsko4NQnFza7hV8IGPjyJVleevGG5Nf8elOM4QMkQubQw7c3NY1Z+Hh1LuspwEbO5oAxMV+UfiNgjQYpHIg0cS8eRCEBZNHoUhg4bg54nz8PepR4jn7sqRPceFbQFYt26dIgUEYH3gZgQfuYpnSobSyNPYFMDZrAtAwPq/EbT3LB6+y5ArCqRvEHJ8BzYH7cWFiAx/zajgUxn42KgnDqFBI1Hb2RwmJmKdBkAWNgj+8ccfYIau8n8TEhK4O9nz5MkTNGjQAG3atOH9nhwjjcASP1s4NJyFq1xlen9xMmrb2aPFimfMq2RcGO0Fi1L/Q/CzFOZ1EsJWtUdhy+qYcZd9nRG+fsqbP/WH7OUO9CpmAbc2i3H9PXeRRRaLsxNqwM6uERaEKeqqPACKq2HyrYz59O7MWFSVWKL+/HDFBek9zKllg2q9e6OKZWWMv6JsL8PL2ydx7OhRHE1Lu+egjasEZfrtxgsZZ6YFcueRd5ewwN8D1pJC8G7WDf0G9EOP5t4oJGZb0eW4k94cYFBxc1i7VfjSGvhUrQB3RwuI3Zrid645SNzRA45mdiheOc2mIsoUsoaoYC38dvQNkx0c789ian1niB2Kw6ukE8QSd3RYGcIUV+MjfwOgDBFLmNbVvgK6zZ2Jrm667QEqExYWht5MIS9SpAgGDhyI9evXIyQkBK9evcL79+/lAe/cuXOYOXMm2rdvj0KFCmHChAlITEwrRPlA8hUs/q4lxuxR6kpI72NWDQlKDTvJvEhAUGc7WLffgDQLWfRiNGLKe5+9Wb/XfzsApuDONF+IC/pjg6rIk3AMvzZuigmHFH1jdQEQKbcwuZoFCvbapXh5fQK8Latg0tXbmFHdEu6DjjK5ro5YHBjoAZvKY3FWy32enHtE9hI7ehWDhVsbLM7YHCD27ATUsLNDowVhikvyAChGtcm3mGxU4t0ZjK0qgWX9+QhnGg55ALSoiz8eKfX4kiMQ4F8YFpXGQdE4pODqRG9YMq3yzuesXTxuLGgCF4fmWB6Z8ybhzZs32Lp1Kx4/fsxdyR1nzpzBwYMHc1xhcx0Amd7L9iF1ULxgEVTtuSq9scmADG9vnsTFaKZpSPoHA/QYANN4+vQp5s+fD39/f5QuXRq2trYQi8UoW7YsWrZsiWHDhmHt2rX51+vTgDR8Eb61t0er1c+ZVzI8We+Pwg7f4Kctl3H//gWs718ZtkW/w7aXWctafgVAthd97949eb7klb///hvXr1+Xf2aOkD7GvHpi2PlvVDn8z4zaABi7DT0Ki1D+l0vMiyScGVEGltVnIEQqRfj8BrBy6YagWIVpZuJOj0Q5K08MPaYcb7RDjgNgyp1p8BUXhP+GF+k9sy8k4NivjdF0wiHFS3UBkHl1a3I1WBTshV1MBVYZAJlPf/lXE4jtumArWydSrmBcRQmqTLqR/llJRzGohDX8ljzhLqhHJpPhypUrmDZtmnxuycTERF4gT58+zVnkjsmTJ8s/h02tWrXC0qVLeQVVPpVBlU3yxTEoa87Nh5g6o/duDYHXQAKgKnJcGfMJWcwJ/FrdAXbVJ+NSWvxNCsXqjiVgYaLIaxOxB3pviYRyCU2Djy9Z+NjFx8dj3759GDRoENzd3eXvcXFx4e7mnvLly8s/y9TUFP3790dwcDA+fPjA3c2GpJMYWtICnj+fUxppJePV/evy+qRIV3HjsaJ8yQOgqDjaTFiExYsXM2kR5k8fhS7VnCByaYUV7GRf/AH0L2aNBvMfyfNTFr0SLZiOU7PlT7LGFOlDLGxkB2f/DXie836ORnIYAKV4PK8eE5T8sZFfc6AmAMZiW4/CEJX/BZeYXFUZAOPuYEmrQijYZg2i2B/+MRDtrR3QZatSH1gWjSXfSlBs4BHuQkZiY2OxZcsW1KhRQ+58dSkvKAfAzGnEiBE4fPiwyt4he18TqmykDxeiobUieJuIKuI3NgOzw4ADoCGQ9HALBnjbwbbyj9gZxZU/ZpSzvXcJWHt0xPxDIYiMuIFdU5qhqE15/KSiF8LHlyyq7NhG4P79+1iwYIH8vrqUVzw9PVV+buHChfH777/j9u3bqhuk5LMYWcYCJYeeZPptHLIoLG7iACsrK3kSm5vCoes2+S3FIogdSvrWR/369dGgQUM0atYevUbOw557irr7dlt3OFtUxIC1e7B3714mbcRwXwnETI/wbqYWJvkC0+CLPTHiTM5GWHzJYc4m4eTQkrDw/BnnlOpd8qv7uP6lNbiCqze4HpA8AIpQvM0ELJK3BouxaP50jOpSDU4iF7Ra8VDeAsgDoKklnN094OHBpNIlUMhGBHPXtlgVpgidijkYNwz454sbGOIR2N4SDt22c6/TuXnzJjp06AAbGxuVjtdVYue+hg8fLp/zUoa9pwnVNimIOjQfIwYMwfQd97KZN+EQAqAaZHhzZjr8iohRxG8aTsUodS9iVqOltSM6bVbKM9lzrGhuw1T0rRkX+hj4+JIlsx07KmGHpmwDnTYi0VeqWrUqli9fLl+BzwDTGKxuaQ3Lb5fgiaoeGHP/r8bijAFQ1RA4DdkLrGvrAAuHooq6npZKFISlyAujzis36Ek4Naw0xN4TcUPNx+WVHAbAZJwdWQYWJYfiZHpzgKjFTeDAtQZWYnOYOnRV3OIWQexK+spbg/oNGqBho2Zo32sk5u2596UgyQOgqAL6rQrGzp07mbQdm1bOQL/qzrAq0w/BTN9X9vIvNLbMHADjsKEdGwAVma+K5ORkHD9+XD7PVKZMmSyOP3mSnfTOPZk/jx1ieHt7y1cyr127pnaYx9pqgo+NRoQAqJKEf2ehfgFbVOy3GQ+VixSD7OVyNLUsiO92fNmzwfAemzraw6Z94JeFkTT4+ik7u9evX8vn+nx9fVGwYEG5bVqyY4aHeUX589jk4OAg/1vsUPv5c3beUx0yPF/fHk6SqvjtoooViBwGQFnEYnxr4wj/v2O4KxyJxzDYXQS3vnvT81c+7SVGuTEX822hM4c1TIaXq1vC2vJbLFHdHODlX40hzhAAVQ2BM6J6DpD5tGimIFqLUW/eI6azF4TODvbotEV5CByFhQ0lcB98nLugmaioKKxYsUJeCEQiUZ4DIDsEdnV1Rd++fbF9+3a8e8dnboBfpeFjoxEhAGYl+Tqm+FhC7NkNs9embb9SbMEKOvcMkIbJ553sq4/C/gh26JWAhzuGoKqtI1qtimJKeUb4+omvnVQqxeXLlzFlyhT5e9iV8bxSoUIFeS9v3LhxOHv2bNaeXnak3MOKNq6QuPnhl78vIlo+GpUhLuIs1v/aAiUtJfAccUJumn0AlCJ0Zg1InLtha5bimIyLY8pB5OiPDdxCk6IhKoAeO1QEXi2R4xome74e7Z0kqPrbxSxDATZTtBkA8X4TOjpYoObsMCbvQjDdV4Lyv1xObw3i96KPqw2aLc+uBVPP58+f8enTJ+5V7mA36uZmMl8IgPoj+dJYlEtbSMqQTFGk3wG5TcqjrRhSwwUicwlsrS1gKnZF/dF78CRTEWXh6ye+dpnhtVihgTx/RuJD7JzUGb6uljA1t4K9vSXMTS3gVL4lflp9CWkzCNkGQLZHV8kCRb7fnaUXzZJyewp8LKzQcKFicST5IuMniTcmXs9BsM4hufBICu6taANXiRv8fvkbFxXNAWRxETi7/le0KGkJiecI+bWcBUBfjDt5Tz4hzKa7l/djUc9ysLKpgznyzadM6/F7XdgWaow5598gJfkZDo72hb0z02Lkx/JQPsOnMuS2wghoiyS8un8F5y9cxcM36gdh+R0ADQppHF6E3cSlC//ibtR7eaAyZnLpkUQ83DkJnX1dYWlqDit7e1iam8LCqTxa/rQal9KbA/4B0DS9JTYxMYPIxgWedbpj6oHI9Pcm3sbyLp6wMRVBIjaHuaMPBgdHGZ0T0n4nnyRg+Kjym7okYFjkUQxBRvEvH9GjqFj6bONGnmWLk70ZdyvfkNH7iNt076UpuVWsRMW1dira8BBURowDvn4S/Gl4CGowBoxQYYwDwU/GiyCIKiAg8NUiBEABAYGvFmEIbMBkN7RKir5Gpy+GUSw5kVftBuTjmkHKU4APagVR4+hF+Av6KMua9ya2ruThapuh5/DVDIF1KIiaRvKLG3Tq3D16JylFtfxqUgkr7oa2YAOggO5hs55PykoCbi5pB3eJGE6lKqKCuyMsWFHKFXfSz2oKaCRbQdSEzehoo/pomrhNgMqTIHyTsaJbQVSWJISu6Q5PG0s4e5RFyQJiWHr0QCArH6VF8tADTKKnF/fQrsNX6EFMEokLlqSqfv7k36BUepRPfUEXgw/T/fTmgEzNxGRb2JNq1PYhN85QFnWGtp58RMlyMxMyMTUnywLu5FOvFnk4qF5WTn15iXaHFKDWfp6kG6F37cKn16DKRha5lJpVnkiy347R3t98yJY+0KUpLanZn/Y0N2Q/DXQTZjU0Ioukpc0q00TZb3Rs72/kY0v04dIUatnsT7KfG0IHB5jTnTN36ZU0Pe8Tri2mwVPuU4ugM7SqXeFc9QCNtaeY+iqY/vdNDzpRZR7t+3sYVbVPu/GWzk1uSa0WW9GUK0dppKcZJR8fTJ6tLlOffy/TlMrmnCHR+7O/0LdNl5DtzDt0+ufSjA/u0+/1vqFtZTpQ6vab1OrMNZrhm24vC1tIjWv8QdYzD9O2IZVI8u48TWjajDZU3ExhAW3JhrPLM4xDco6+BFHTSLiFP5u7wLLFahjr+QY+Wa/KJvnKYnzXcgwyannOQg1JKQxLP6AtkB0aBVEzEXsAAz1sUHnsWRWnn/j5kiW31U2/6EMQlfmbU31g5TtdSR1GhjdXdmDdrht4p8VzDzn3iN4EURXEhQZhZG1nmJuYQJzHAPjixQu8fZu3EMoqGsfFKR+a50duA2BWpAhf9C3s7VthtRGeiDEUMgqiKhOH0yPLwcpzKNTpceZnAGSPWbKiqHmFVeZm1WdyjF4EUd8jsL09ExR349+N49G7tR/82vbFtJ33Nasf5ZAcj5ekoatozrZEajVrFQ350hdmMaUCdX+jmYOrk+htBHdNDQ616Lu25UkWepPupHDXMmNRnFo0qUQmUeH0+LPiUioz/POvOZCOFB9DU7u45ngJWyqVyh+0/dtvv1GVKlWoSJEidOvWLe5u7li7di3Z2tqSg4MDzZs3j0JCQthSzt3Nb1Lp9ckJ1GPyVfIaMZF6FBGGv7kh9fVJmtBjMl31GkETexThriqQha+hKWvfULPx46iRcnHPR969e0fbtm2TPxXP1dWV6tWrx93JPf7+/mRmZkYdO3akjRs30uvXr7k7GpBGUeQzUOGS7pS+/vCZYsJu0NWrV7l0jW5GvOPuMaS+oevb/6IlS5YwaTEtmDGaujYZRNtTm9Lw/r5ECccpMPg5Ve/anbyY71SyWw9qkHSQArY9ZUo0g+wtxbxJovjDo6jTH2FUuHYTqu1wl5Z086Oe6yNJJv8jWkIRB/miR0FUBtnbmzh5MRrJTAvyzwA3XkPg6OhoTJ06Vd76qkt5QZ0gKis1tHv3brVPNWNtNJG9TRIebhkAbztbVP5xJ9K0PAVyhkpB1C8k48KYshB7jkB2epx8fMmizo7t5bFy9Y0bN5bbqEp5hX1Cn6rPHTJkCC5duiRXoFGJPgRRpWGYXVMEM7fe2Pkmrdf6EUcHe0DMxIzLWtTGymHO6k8QNSOaAyAriOrn56fS6bpMrOTWDz/8oEVBVAbZG5yZ7oci4iLwm3bqixKHQE7IRhA1jaRTGFZaDO+JSo9hUAEfX7JktksTRC1evLj8nj4TK7llMIKosldY0VQMccs1Gep3wpZOsLViOl9aVMfKYQDUnyBqRvj1ANlW7eLFi5g0aZJKp7NJ24KoyomVOX/w4AFnmRH2viZU2yTg31n1UcC2IvptfpjeKgvkiOwEUdNIuTIOFcXlMOZi9l0OPr5kUWfHSlWx5b5Tp05ym8zJwsKCs8w9qj6XTcywWP5wMPVz4foQRE3G+VGeEFcarzT/z8SZPxvC0q0/Mmgi55EcBkA9CqJmgP8QWBm2FxYYGIju3bt/KQDaEERlP6dUqVLy4cT+/ft5PdmMfY8mVNkkX58CH0sxPLvNxtovQp5MCgjCuWdqhjECGdEkiCqHKcvLm8KyQA9o0uPk40sWPnbscPjOnTuYO3ful2fZsArReYV9KJKJiQlq166NGTNmyNXKeS+K6EEQNeXqJPhYOcNvxlm8SmH+1t0AdPewhMeQY8j5kqN6chgAmZ+tL0HUDOQuACrDdvVZ1d3s5cA1wz5Mhl1hy6koau4CYDIujS0Hc+Y6ey9DMi2CfgeymagS+AIfQVR5hWTyWuI9EZr0ONn38oGvnTJs7/DIEdUP/coJJ06ckD8kLNfoXBA1ESEBfeDtKILIyhoWZpYo0Wo2zr3lGbR5knOPMKFMP4KoyuQ9AOobPpUhNxVGQPfkZwA0OHQsiCqLj8adSxdx/VEs0yRpn1x6RE+CqF8QAqCA4cDXT4I/DQ8jFEQ1ftgjUXzJk3sEdILgT+NFUIMxYIz17OjXhuAn40U4OiAgIPDVIgRAAQGBrxYhAAoICHy1CHOABkx2c0tJT6/QiYvhlGBXluo0qkquYu6GAH/UKkKnkUwvbpyic/fekaRULfKrWUJJECCdr2YOUMeK0EkxEfTk3Wf51hAFJmRu70alCyt/St4wPkFUjYXWOOC7cpjVPVJ6sL43tR6yi94WdifHuCiKtmlOf+zeTEMqC7L4fPl0ayn1aD+GDsW5UpnCqRT98BUVaLOQdm8aSBXZxiT5Hq3t055G7H5HhUvY0NuIl1Sg40o6FNiLSmcqknx9yWKsgfL95YXUt+dE+ifOgxo08qXi1on09OpxOvnAhlov2E0bf6wor4dyQdTmgSTzKkuFueKYmhRLkQ9fkFXDaRQcPJZqyNVMUylqWTOqPOIUSWvPoVsnRpFHhnyNp21di1G3be+VAqApOffeSU82tNNenWcDYI7RkyBqtjLmRgafrFdlI3u5Af5O9qg79TLk8nTxtzC3kQPsW62GIAfIE2kElvjZwqHhLFzljiS8vzgZte3s0WIFexROivsLGsK+SCssvc0ea5Th7bnf4Gvtiv/tyXoQi281ym110zeylzvQq5gF3NosRkYJ0FicnVADdnaNsCBMsSVa3UmQd2fGoqrEEvXnhysuSO9hTi0bVOvdG1UsK2O8sugnS8p1TKgsgfeQzThy9CiOytMxnL4b8yUeaIOce0RfgqgaC23uyOkRtszk9v25DYDSJ8ewZNIynPyyAzwFV8ZVhKTKJNzIumNcQBWaFKFT7mCqjxV8p99NP+kge4MrO9Zh1413WSpgfgfAvJZRltx/hj4UoRneBaK9XTH8cCh/ezc5XgTRmyCq7A2hcD0aMHKo/BkOLPbfdKfW5ZIpLOSh4gIPkpKS6PDhwzRixAgqV64cnT59mruTO2bOnEnOzs40bNgwuTgkU9C4O/mDWTE/Gjp1MDV0lNGnmEd0ecd0mhD4nHy7+lP59EcqCGSHhS8N23iA5rblChKDLPIwHbsvpnKVvYgSbtCNcBf6ptInCprwPbVp3JjaDfiLnlbsSu2rOOhk5fDVq1e0YcMG6tatG5UvX567mnvq1KlDLi4utHr1anr27Bl3lQeyp3T46B0S1+tIbQur+OVWfjT76GGa3syBu6CGj2H08DnIxZUVnE2mi4Fb6UGlTtS1Snnq1rU6xQSvpX1vFaYsn+/dpnvSwkTXxlPPNk2oSft+NHV7CDMw1jJcIOSJfgVRM6NexjwjN27cwK+//opWrVpBIpHIW2LllBcyC6IyhQw9e/aUa6u9efOGs8oKn7+brU3yJYzzcYC1yBSSMl3w19WsPRMBfshiTuDX6g6wqz4Zl5huiPTxPNQVF0Sp0sXh3WksZs2ZiN7VnZlRjz8CIpTKKAcfX7JkZ8dKtwUFBWH48OGoVq2a3FY55RVWDUb58ypWrIihQ4eC6Qzg8+fPnJUKkk5iaEkLeP58TuksbjJe3b/+Rf/zypWruPFYMSSR9wBFxdFmwiK5/ufixYswf/oodKnmBJFLK6xgH/8WfwD9i1mjwXxW9IDJ/+iVaMGMHJstf/KlDMesag5LEwlKNh2KGQvmYVKfWihsURB+C++oOBqbe3KYs4YiiJq10GaGFUT96aef4OnpmcHxukympqaoVasWpk+frl1BVA62sMji7iKwtxckhTtjk6ohikC2qFKElobNRk2RGdx670S6IPFRDPYQo/wvl7McyufjS5bMdqwc1bZt29C1a1c4OjrK7+sj2drawt+fGeJu2JBVEFUfitBMyX53cwcW/3UQ6e1NHE6P8ILItR8OaFab400OA6BhCKJmL2OugJ3zYIPg7Nmz5X9blePZlJ+CqG3bMgF81Sr5g5Myw97XBB8bFtmzRWgktkeXrVosGf951CtCy16tQFOxGC3XKEttJGBLJ1tY+W/MIgPH10+q7D59+oRDhw7JG2tzc3O5TeaUn4KobBo0aJA8EKl8uJc+FKHVkLizJ5zEjbBI5RfJHTkMgPoWROUhY66G9+/fY8eOHejbty9cXV2/OF+bAZAdVowZM0auvZacrN6RLKy9JlTZJBwagxqVe2Oj0m+Xhs9FHWbI1nu3oAfIl2wVoZPPY5SnGJXGX0kvt0yv58+GlnDr/096T4iDjy9Z+NiFh4djyZIlaNmypdyeTdoQRE37LDaxzx6ZP38+QkNDeSyO6EMROh5HJrVB20mHlHQDZXiy5FtYOnZBkCoxwVySwwDIfA09CqLykTHnA+v0c+fO4ffff5cXgrzAtpzqennZwRZETaiykUWuQAsHS1QYGIwIJg+kby5jsX9xWJToh73Gqg2mazQqQqfg6iQfWDn7YcbZV0iRxeFuQHd4WHpgyDHdbYNhe4dso83OM+cVtqyr7eVpQueK0J8RvtgP9ra+GHXwCdPgSPHm8hL4lxDDfcABXo/n5EuOAyBbOPQiiMpLxtx4yG0AZAtRZPBw1HQRwVzCDE3MzWDn1QkLL6l5aK1AFngpQieGIKCPNxxFIlhZW8DMsgRazT4HVYLEqv2UFb52BomuFaFTwhH0oy8KisxhaWMJkZktPDssxGUtF/NcekT3gqj8ZMyNB/a7ayJbm8QXCL18HpduP0Ec/5kAgRwhQ3z0HVy6eB2PYtVPafDxJQtfO4NGx4rQiS9Ccfn8RdyK+sh4Q/sIgqh64Gs4OvU1IfjTeBHEEAyYr+aQvZEj+Ml4EeSwBAQEvlqEACggIPDVIgyBDRheQ6vk1xQVnUoFSxXKoLUmwINspdWSKCbiCb37rJT/JuZk71aaMsvRfTVDYB3rASqT/DqKolMLUqlC2i3lRqgH+JSunLhI4Ql2VLZOI6pqpEqgfCfOs3VP6iva80Md6nKgAe2MWEutBDlA3mjUA4zfRl2LdaNt75Xy39SZeu98QhvaZcxovr5kMdZAqXs9wHRSX+2hH+p0oQMNdlLE2lba1f9kA2CO0ZMeYEpYALqXsYLEqRTKejjD0rIk/JfegjGef+CT9dnbSBER4A83c1OYFu6L/cIhEP7wkFZj5ZoqS7wxZPMRTouOScdO466K00d8q1Fuq5u+0YseYBqMrwL83WBuaorCffdrva7n3CP60gNk/u4GfyfY153KbYaMx625jeBg3wqrjVAJNK8BMOn2PDRyq4ohgxpBIgTAnKFJD5DhXWB72BX7AXzk6P7bAVBPeoByknB7XiO4VR2CQY0k+RIAc7wIojc9QHwmt2+H0Kzpw6i6/M9aU/lGtahocjQ9fZVzDb63b9/Stm3bKCJCw3fVwNmzZ+nQoUOUnJzMXdEB8Rdoet+FlDo8gCZXtyH+AzABOZr0AOkz3bt9jxRydD2pTZMm1L7fVNoeonU1umxh6ieFhYXRunXruCu5Z9OmTXTz5k35Z+YIPekBssRfmE59F6bS8IDJVN0mn0q5PAzyxjD0AKUJrxB+aTsmNSuKAnVn40b2ugNyWOmhq1evYtq0aXKJKhMTE3mLfPr0ac4idyjrAbZu3RrLli3D48ecHFg28Ml6lTayGBwYWBbF2q0Bm10fA9rAUugB5oms0moxWNXcEiaSkmg6dAYWzJuEPrWY0UhBPyy8k3WoxseXLHzs4uPjsW/fPgwePBglS5aUv4fVmMwraXqAZmZm6N+/v1x16cOHD9zdbNCTHqAs5gAGli2GdmtYm48IaGNpCENgQ9ADTMalcT5wsBbBVFIGXf66indqRsCxsbHYsmULatasKXe+upQXMguiKqeRI0fiyJEjSErKOo5i72siq40MURu7wL1MX+x6qfjRQgDMGyql1WTvcHPHYvx1MEJePuXEncYILxFc+x3IMlTj40sWVXasMAd79n3hwoXy++pSXlGni8kqI7FCCbdv31atDKMPPUDm8zd2cUeZvrugKOYGEwANQw9Q3kywCh2BveElKYzOm158aTnSYLUAO3ToABsbG5WO11UqUqSIXOVXK4KoKbcxuZoIEueS8PLykidPN1uYihxQzKsafhKiYA7IqbRaInb2dIK40aIsunh8fMmS2Y4dlfz999+oUaPGlxGJvlLVqlXlKuZZBFH1oAeYcnsyqokkcC6pKONeXp5wszWFyKEYvKr9xH2QdshhANS3HmAmZM+wqJEY9l22qphAVcDq8h0/flyur1amTJksjte2ICqrAu3t7c20fA1w7do1tXprrK0mstjIonFw7s9y8cy0NKSFB0Q2leA/bCwCrmeXywLKZCutFn8Ek9q0xaRDSosksidY8q0lHLsEZVEy4eNLluzsXr9+jbVr18LX11eu/8fapiU7ZniYV5Q/j00ODg7yv8WKoT5/nt0jJXSvB/g++iDm/pxexn/6aQhaeIhgU8kfw8YGcG/QDjkMgMwP0JceYMIhjKlRGb03Kj0WTxqOuXXEKNh7N++ucVRUFFasWCEvBCKRKM8BkB0Cs8MIVmh1+/btePeOn1oZ+/c1wcdGGALnAk3Saky5WuxnD1vfUTj4hImO0je4vMQfJcTuGHAgq3/5+ImFrx37fJDLly9jypQp8vcUKlSIu5N7KlSoIO/ljRs3DmfPns3a08sOnesBZu5cGcwQmEVPeoCySKxo4QDLCgMRrFACxeXF/ihuUQL9cqkEyj4MhhWdzAsfP37koaqbFSEA6g8+0mop4UH40bcgROaWsLEUwczWEx0Wcs9izgQfP7HwtcsMr8UKDeT5M3StB8hdU2BQAZBF93qALNLIYAyv6cIUSgkzDDeHmZ0XOi28pLJQGjp8KkNuK4yAtkjEi9DLOH/xFqI+qpryUcDXT/8Jf+pYDzC/yeNZYH3oASbRy3u36fFHSypWoQIVszE+PYev4ejU14TgT+NFEEMwYNiKJbjH8OHrJ8GfhocghyUgoCOE4Gd4CAFQQEDgq0UYAhswaodMSTEU8eQdZZSqsye30oUFTcCckK0eoDLJ9DoqmlILliJVcnRfzdBW53qASfT0ygm6GJ5AdmXrUKOqrqRt8bs8BkA9aQKmYcRioGyl4YMq98Rv60rFum2jjFJ1vWnnkw2USapOQA0a9QC/kEqv9vxAdbocoAY7I2itCtFFvr5kMdZAqXM9QOkDWt+7NQ3Z9ZYKuztSHNMA2TT/g3ZvHkKVtVnG2QCYK/SkCfgF2Uvs7lcaFka6B45P1qu2ScH1CZUh8R6CzUc4nTomHTt998teLAEN8NADTEMaEQB/N3OYmhZGXzUFjW81ykt10ye61wOU4eUGfzjZ18VU7kHA8bfmopGDPVqtfp41FuSB3HmECT560QT8gvGLgeY+AL5DYHs7FPvhUPrhdIGcwUMPUE7Sbcxr5IaqQwahkeRrDYD60AOU4smxJZi07CS+HHFgN1FXlKDKpBvZ7inOKblaBNGbJiBH8p0/qe+ESGo/oAFZcNdyAvO76c6dOzR//ny6f/8+dzV3HDhwgJYuXUrPnj3jruQzn+/R7XtSKkzXaHzPNtSkSXvqN3U76ViqzrjRqAfIEk8XpvelhanDKWBydcovObrsYDUmmd49TZ8+nbuSe+bNm0fbt2+nT58+cVd4ohc9QDMq5jeUpg5uSI6yTxTz6DLtmD6BAp/7Ulf/8mTOWWkFRRzMCXrWBIw7j/G+bmjw+03E5OAYGHsUiFWa6d+/P4oWLSpvjdNSXlCWw6pcuTJ++eUXnDp1Sn7MLjv4/F2VNjGr0NzSBJKSTTF0xgLMm9QHtQozLavfQqiQqhPgQVY9QBliDgxE2WLtsEYhuog2lrrpAbJakqymJKstydqnpbySpgfIpqZNm+LPP/9EWFiY5mOcetIDTCP50jj4OFhDZCpBmS5/4ao67btckouc1aMmYA7EQFnHshpnrNYZe5hcuTBlTnkhOz3Ajh07Ys2aNWB6h5x1Oux9Taiykb27iR2L/8LBCDbXFMSdHgEvkSv6HVCniSOgDlV6gLKojejiXgZ9d71UVMh8DICsViSrGclqR7L31aW8ok4PkE1DhgzB/v37kZCgovzoQw8wA6wHZIi7G4jeXhIU7rwJqkbiuSUXOasvTcCUHImBsnqAw4YNkwdTVU7XRTIxMZFrvU2dOlU7eoDqSNyJnk5iNFqUtQUVUIc6PcAU3J5cDSKJM0pymotenm6wNRXBoZgXqv20n7NLh6+fMtuxeoDbtm1D586dYW9vL7+vj2RtbY127dphw4YNBqEHqBoZni1qBLF9F2zVYjufiwCoJ03A3w/mWgz0wYMH8p5a8+bNIRaLMzhf23qATk5O6N69O8aPH58l6CnD2mpClU38kUlo03YSMkrVLcG3lo7oEqRKY0OXvMWpxaPw04iRmL7tvkEv0qjXA5Qh+uBc/KykufjTkBbwENmgkv8wjA24ztmlw8eXLNnZsYGHLYusFH6VKlXktmnJ0dGRs8o9yp/HJnZI/OOPP2LVqlUqFcvT0b0e4Eck4NCYGqjce6PSzgYpwufWgbhgb+xWX9VzTC4CIPMj9KEJOPOMVsRA2W7+wYMH5YWsVKlSeQ6A7DNGqlevLg+wly5dkmu58YEthJpQZSMNXww/e1v4jjoIhVTdZSzxLwGx+wCokKrTLbIILKhvIf/eJqIiaDThIKLUNej6RJMeYGZ0OAeYRnR0tFwglRVHZYV88wr7WIi2bdvKVZ8jIyO5qzzRuR5gCiJXtICDZQUMDI5gGlIp3lxeDP/iFijRb2/6yrAWyFUAZIcJetEEzIQ2tPDYYUheyO37cxsA2bwPD/oRvgVFMLe0YYYNZrD17ICF3H4pvaIUAOXJxBwFffthyelnShPo+oePHmAG9BAAlclrGWXJ82foWg9QGong4TXhIjKHxJr5W2Z28Oq0EJe0XMxzGQBZ9KMJqIwxi4HyqQzZ2iS+QOjl87h4KwrZSNXpFqUAaFqgInzLWMOE9aWpNUo1HoI/993Bm+wKgZHCx5csfO0MGh3rASa+CMXl85dw+0kc0+fUPlo4C6wPTUDj5j97dCo1khY28qKfz3wmc48RdPzcdxQ2cTCNC7hKb6Ts7zAhsUslatSyGTWsU518KpUjjxJFqGCBAmSTmw2dBsLXcBTuv4oghmDAsBXLmAPgiZCFVM9CRq8ub6C5036ndUce0nt5IFRGTO0C39LuXlbca+PD6Pwk8AVBDksgnzGjQjX60vwD9+jxrb205JfvqFF5F7I01cPRCgGBTAgBUEBHmJJj+dY0dM5Gpmf4it5Eh9CFf7bR+pULqZ+PEY9/BYwaIQAK6AWrwuWoVvPO9P0Pg6hNea2e7hQQ4I0wB2jAGN/cUjI9v3ONHn9IJRNLN6rsU5LS5Qb+uwhzgMaLEAANmGwrVvILunHqHN17J6FStfyoZgnjXUTQG5oUoZOe0pUTFyk8wY7K1mlEVV1V6xF/NQFQD4rQ0ddO00WFg6h2Ax9y1aYYKkMeAqA+1KCTKCbiCb3LqAVP9m6lqbCRSUKzlYYPqtyTfG8t9Wk/gna/K0wlbN5SxMsC1HHlIQrsVZqEHUj80KQILX2wnnq3HkK73hYmd8c4ioq2oeZ/7KbNQypnkc3n60sWYw2UOleE/nSLlvZoT2MOxZFrmcKUGv2QXhVoQwt3b6KBGSW78wYbAHOMvtSg47aii4MJW4LSk6kzemvzcKCO4JP1Km2k97GgoT2KtFqK2+yhcNlbnPvNF9au/8MeRXbqj6QwHNsUiMDAnKRNOPk4v7fTZkKTIrTsJTb4O8G+7lQoDtjE49bcRnCwb4XVz7Nux+XjSxa+doaG7hWhpYhY4gdbh4aYle4gTK5tB/sWKxSvtUTOPaJHNWhWRbayxBtDNh/5IgV/9Nhp3DVCLfjcBsCUO1PhY+WL6Uq6QbI3V7Bj3S7c0LJWWk6RvVqOphZKjROvJEa7QB3LeGlShJY+wbElk7DsZPqp05Qr41BRUgWTbmQ9ysL+Dj7wtTMs9KEInYwri79DyzF7lI7MSXF/Vg1ISg3jXmuHHHsk5c40+IoLwn/DCxVHUxJw7NfGaDrhkOKl2mNwKbg1uRosCvbCLqbzploIgRVVaAKxXbr8zbvA9rAr9gMO5VFmhNUKZOWy5s6di9DQUO5q7ti3b59cXPLJkyfcFX7wqQyqbN4zeWDvPgi7/92I8b1bw8+vLfpO24n7Oo4hKondiI6OpvLjb4rgxifpIQCqQBq+CN/aK545oYw04RXCL23HpGZFUaDubNxQcaiZ/R184GuXRmJiIg4dOoQpU6ZwV3IPW9a3bNmC+HgVii7ZIX2MefXEsPPfCH76x2oCYOw29CgsQvlfLjEvknBmRBlYVp+BEKkU4fMbwMqlG4JiFaYqkYZj0bf2sG+1mrugHXIYAPWpBp2MC6O9YPXND5g56ju0btwY7fpOwba7/MZ979+/x44dO9C3b1+4uroqVcAcZkEmlAVRK1asiDFjxuDEiRNITs7++D+fv5vVhs3/ukxrXAqli3uj09hZmDOxN6o7M8MT/wAoaaTqjeQnxzGjuRvMTQgm5kXRdvbO9N66ynQcN7WpcJkLsipCp5GMS+N84GAtgqmkDLr8dRWqOtl8yxAfu/DwcCxZsgQtW7aU26elvKKsCN2YqTsLFizAvXv3DF4RWo4sBid+rQ4Hu+qYnNFBeSaHOatHNWjEYFVzS5hISqLp0BlYMG8S+tRihsgF/bBQhRZ8Wi9v9uzZcHZ2zlCYMqe8kJ0itL+/v1xv7enTp5x1Oux9TWS1kSJsdk2IzNzQe2f63OjHo4PhIS6PXy5nH3R1RsJNzPNzgimZwLxoN2xWqRtpGKhShM4A+9Vlcbgb2BteksLovCnryIePL1lU2aX18lh5N/a+upRXslOEHjRokFyZWWXvUN+K0EkPsWWAN+xsK+PHnVHyeKFNcpiz+lKDZoqc7B1u7liMvw5GpGdC3GmM8BLBtd8BpfkDBbdu3ZIXquwcn9/JxMQEtWrVwvTp07WkCC3DqxVNIRa3xBplUbSELehkawX/jTkc3uQj0vClaOJgyvwGMxTvt4/X8Em3qFOEVoPsGRY1EsO+y9YsZY2PL1ky27ESVdu3b0fXrl3h4OAgv6+PZGtrK2+s2UUpQ1KElr05g+l+RSAu4odpp2KyNDzaIIcBUE9q0PMecVcyk4idPZ0gbrRItXM42GEFK1zKDiskEkkG52tbEZrtbX733XeYNGkSYmIyqd4qwdpqQpVN8vlR8BRXyrBqJov6Ew0t3dD/nzxOjmqVRFxZ+wtGMI3QiPF/47aBdE7TUK8IzZBwCGNqVEbvjUqVThqOuXXEKNh7N/PLMsLHlyzZ2bGB5/Tp0/LHOFSrVk1um5byQxGana5hnwXCiq5mP12jD0VohoR/Mat+AdhW7IfNWRykPXIYAJkfoA816NlhrBY8JrVpi0kZteCx5FtLOHYJUimwqIpPnz7Jhxzsdhu25dGGIjSrtss+9+Pff//lLTzJFkJNqLRJuYpJPlZw9puBs69SmNHZXQR094ClxxAc0/c2GGNBkyK0LBIrWjjAssJABEcwlU/6BpcX+6O4RQn025tVj5iPL1n42rG8ePECAQEB8gd6sY9/yCvsSKR9+/ZYuXJljhfsdK8InYjrU3xgKfZEt9lrlfyzDgFB5zh77ZDjAMiu4OpFDZppgRf72cPWdxQOKrTgcXmJP0qI3TEgD1rweVXKze37cx0AGRJDAtDH2xEikRWsLcxgWaIVZp97m95bEcgWPorQ0shgDK/pApG5hBnxmMPMzgudFl6CKkFidX7KDF+7zORZzZkhz5+hS0XoP4Ixupy5kl/Sk2mRfpy1dsjlSZAkCt81m8bNWkP7r8eQia01ISGOZPZlqXHPkTRpfF+q4WzKbgunwZ6t6HKff+nylMpqH2icFPwduXbZTO9SFa9NTMzI3NqJSnr70XfjmL/TsoT8vdJHW2lYt6G09mYCiUVSSjQvSe2m/U3rRlQn5cezGwN8jk9la5OaQM9D79KTFGfyrFCKChicoEoqxT25RVeuh9Lj6Nf04dNnSjUVk7WjCxXzqES+vhWpiMGf3kuil/du0+OPllSsQgUqZqNaO4SPL1n42hk0snh6+egRRcV+Jhs3Typb3N6oTx/l8SywPtSguUL5QUJFK1Sk4rbGJ2jDVgS+GF+FkdKTw3Ppt0nLaNfVF5SYqur7m5CZrTvV7fYzzZwxmOq4GLco0X/bn/9tBDEEA8b4egyp9HLXAKrXLYDClc9rq8WErL1H0b5Tf1AjB+6SEfKf6Nl9pQgB0IAxuoolvUmTv6lO02+mkIl9WWrVuyc19y1DrgXsyFpiRqnSz5Sc8IFintyny/s30qaTEZRIVtTozxA6Mdyd+xDjQwiAxosQAA0Yo6tY7wOoTZF+tD9ZTN8ufkBHhxZTr7grvU2Ta/jStOsycv5+F8Wsb8vdMD6EAGi8CAHQgFFZseJeUPiLjyTL4jUTsnX1IFd9zonGbaQOrr1pV4I5VR13gc7N8GX6d2p4d4h+rN6GVoaD3Prvp2erm3M3dIhGPUAN9zm+mgCocz1AjtSXdGl3CBVo7Uee2l7sYwOggO7hk/WqbBI2d4QNU9/YexmTGG0C+O6GzCekj7CokQ33LGAbuNdsi14/jsAvEyZh6rRpmDZtCib+OhI/9mwJH1eJQjTB1AVdg95wH6A7Em4uQTt3CcROpVCxgjscLVgptxW4w+251XRfGVV++q/x7tIC+HtYQ1LIG8269cOAfj3Q3LsQxJal0XH5nS+bwxVH4azhVoGTtmNSVXn+ieHW9HdwCngMMkQubQw7c3NY1Z8H9oiwahJw68/mcLFsgdVZt2DmmTx4LhFPLgRh0eRRGDJoCH6eOA9/n3qUcXO07DkubAtI38gYEID1gZsRfOQqnikZSiNPY1NA2mbHAASs/xtBe8/i4TtVuZKE59cPYdumLdh7MTLLsSRjIWsAU50yI3t5GyePKYsJ7MYcdpNqmX7YrWdRAZaEq3/Az8WcnyKMiQjFO63Dw+w2ieYHmvQANd3PhMrfpiYZI7rXA+SIC0XQyNpwNjeBidiQAqC+BFGTQrGmuydsLJ3hUbYkCjB/z6NHoFxT0NjgUxn42MQeGAgPm8oYe9ZwzgEnRx7DwsGtUa2YHUQqeqsm5rYoWrUlBv15As90HfxYNOkBarqfCT5+YuFrZ1joQw+QQcY0Qo3tYF+hG+bO7Ao3g+kB6k0QVYr7CxrCvkgrLFVIIePtud/ga+2K/+VSCpk9f8mqceSFuLg4zZJCKuBTGTTaxJ3GyHJW8Bx6TOUJBf0jRfyrR7hz5QLOnj6F02cv4urdx3gVb3gtljo9wDSyu5/fAZAtY3kl15+hLz1A2VvcPHkR0cmM9T8D8i0A5njGXBq6iuZsS6RWs1bRkKrK5y9MqUDd32jm4OokehvBXVODQy36rm15koXepDsp3LXMWBSnFk0qkUlUOD3+zLyW3qOtm/6lMoN/px8rsVPrpuRYaxQt3zCD2hWXEneIRCPPnj2jNWvWUIcOHcjJyYkuXbrE3ckd8+bNI1NTU/r2229p586d9PHjR+5OfiOj8DVTaO2bZjR+XCMDPQljRtYupaiiby2qW78B1fYwpQeH1tHcyRNp5or9dDft6I+eSX19kib0mExXvUbQxB5FuKvpaLqvbZgGla5evUrTp0+n2rVrk4eHB3cn99SqVUu+WDN+/Hi6cOECyWQy7o4GpFEU+QxUuKS70oLWZ4oJuyH/jop0jW5GvOPuMaS+oevb/6IlS5YwaTEtmDGaujYZRNtTm9Lw/r5ECccpMPg5Ve/anbzMzKhktx7UIOkgBWx7ml6PTR3Ju2FNcs3vE05cIOSJHgVR3weivb07Bu3+FxvH90ZrPz+07TsNOzVIIX/+/Bnbtm1D3bp1Ua5cOXkrnDnlhcx6gGZmZvJhPKu0cfv2bbW9Qz5/N1ub5AsYU1YMzxFnsqiT6JdkRB6chi41PeHqUhTerX9B8KNkJN9dhtZuIqW5QRNmFNEUs/R8hlmTHqBGvUAGPr5kyc4uNjYWv/32m1y0wMXFhcuj9JRXMpf9AgUKyP/WsmXLski1ZUDfeoAM+dkDzGHO6k8QVfp4HuqKC6JU6eLw7jQWs+ZMRO/qzkwl8keACilkVgy1U6dOsGOG5MqO13UqWrSoXJdQO3qA6SSdGobSYm9MVPGMCv0hw6vd/VBapPzgKhOIy/XBkBaO7HBD6brinlnRXtjxSh8hUJMeIH+9QPa38CGzHStQwGrwMb08MKMIpXzRffL19cXy5csNSg8wDQMKgPoTRJWGzUZNkRnceu/EmzRHfDyKwR5ilP/lMvPNssLq8W3cuFGuz6fK6WzSth6gcmJ7gf/8849cgisz7H1NqLdJwZVxFZnAMgYXVf1wfSG9i+nfWCi2wViXRN22rVG9KLfdhQl2NlUHYsPFcDyLuIGdk/xQyIy5biJBw4UR3Afojmz1ABk03VeGjy9ZVNmxI4SQkBDMmzcPZcuWldtkThYWFpx17lH1uWlp1qxZuHHjhprRip70AJUwoACoP0FU2asVaCoWo2VGKWRs6WQLK/+NKrQJMyKVSnHp0iX5kLV69epfnK8NPUD2c8TMd2vRooW8l/vw4UPurnrY92hCrQ1T6JY3tUSBHjs0/m6dEheI9lZM748Jag0WPJb37qURS9HEjrlmWhDfBSt9W+k9zKwuYn6jKQr12cdd1BGa9AA13c8EH1+y8LH7+PEjdu/ejYEDB34ZvRQsWJC7m3sqVaok/6wiRYqgT58+8mmhd+94ysjpXA8wY2wxoADI/Gx9CaImn8coTzEqjb+S/lmyKPzZ0BJu/f9Jn5/gyfPnz+VPyXr8mBuu5xJWxVddLy87+FQGtTbJFzG2nATeE69nm6865/16tLVkA6AVmq3gnp0hvY/lnSujZOGi6BGk1LanXMX4ymwAZHr1/Q9yF3WDJj1APnqByrD3+MDXLg22R8Y+2oF9rkxe2bBhQza9PB7oUg9woeJhSWkYVABkh196EURlPuHqJB9YOfthxtlXSGEfVBPQHR6WHhhihFLIfCpDTiuM3km5g2m+7BDYBOaujTBy+UlEZnF8Cp7/uxWzupVXnGgxsUfrNS+4e8ZJfgVAg0QahxdhN3Hpwr+4G/U+Q6AyRnLpkUQ83DkJnX1dYWlqDit7e1iam8LCqTxa/rQal9KbA/4B0DS9pTUxMYPIxgWedbpj6oHI9PcmhiCgjzccRSJYWVvAzLIEWs0+h7eqRuMGDp/KYHwVRrEIUopbBDFz64+DWbrm8djcye7LvKC1z3icN6hxfM7h6yfj8+d/nzyKIehDEDWVEp6H0t0nKeTsWYFKGZ4UskbY/Vh8yZN79MJnerR7Oo2ZtoaO242hWyd+JvcMu00/04XRlajBny+oZIufacnKidTM1Zg1hf/r/vxvI6jBGDDGrTKSSklJKSSRiLnX6SQ8vkqhJmXIp6S9egUQI+KrUYP5DyIEQAPGaCtW6gcKO3mQTobGknnhytSoaV0qbZ8x1MnCD9KK3SH0Cebk0WoY+ZdX98QYw0cIgMaLEAANmOwq1ueY23T6zF16Y+5G1RrUIy9HA+lLxf1L87p2pPGHnpFCFd+ERAWrUc9py2n+wG8o7Wsm7e5NRTv+TbGpYmoX+JZ299LDE5J46v2lvrxEu0MKUGs/T1I14fLVBECd6wHKKDb0NJ269Zos3GvQt7XcM7xfK7ABUED3sFnPJ2VFhhd7h6Oqgwh2RT3hWcQaIpcGmHom948G1R6JODuqnEoFGDK1RdXh+/GcW7BK3NULTvKFLzHaBepe1Iy33l/CLfzZ3AWWLVZD3S6MLL81m2Ss6F4P8D3OTq0PZ7EDinuVhJNYAvcOKxGi5Y3/efCIrvUAP+L5w7Av22SUU1j0R8WeMyOCT2VQaZN8AaO9LFDqf8EKKamkMKxqX1iurCHfLaRPko5jsLsZ871NYFWpH1Ydu4xLR9djQtsysGKDoqk9akw4I1cV0WsA5Kn3FxcahJG1nWFuYgKxhgDIB2MNgPrQA0y5OhHelqXwv53P5Vtt4m8sQBMXBzRfHqkw0BK584g+9AATNqOjjfIZ0/QkbhOgcmMlH3K9MZQjt+9nv7cmVNokBKGznTXab0j7xTJEL27EtMx9sDct3/XFu7VoJWY3Qluj7XqlHinTEO4fXhW2TBA0MSuEZgtvIHanHgMgD70/WcQSNGYCYoVuczGzq5vGHiAf+NplJq9llCX3n6EPPUDFUU9JlUlIP+qehKODSsDabwn3Wjvk3CP60gNk/u7tk8eUlJCPYvccdkN2GfTbzZ064EFycjJOnDiBMWPGoHLlyjh16hR3J3fMnDlTLngwevRo+a59vgUt1wFQ9gTrmXxx+OYnbLnM9IAvrEf/yrYo+t02ZDpBpHviN6ED20iZiNFgYURGn0ifILh/WUjYIGheCLUaVeak/fUzBM5MZr0/2dubOHkxGslMxftngO4D4Js3b7B582b06tULFStW5K7mHvYsfokSJbB+/Xq8fPmSu8oDvegBfkRge2s4dNmqNKJkGvol30JSbCD3WjvkOACm3JkGX3FB+G9QFXQScOzXxmg64ZDipdqN0Cm4NbkaLAr2wi6m16L6KBx7rK4JxHZdsFVV/Yg9gIEeNqg89qzG87D37t3D9OnT4e/vDxsbG3lBVE55IbMclpubG/r16ycvaO/fq5cp5fN31dkkha5GxxIK0QF2uCn26I0tkcp5pyeYXtSc2mL59zIt4IPek1fihPL3SnmIDd1KwiLDHKH+A6As5gR+re4Au+qTcSnLV9FNAGSVYVhpqF9//RU1a9aECTPsTs+jvJVRlvLly2f4vGrVqsk7AWwHgD0nr5akkxha0gKeP59TEhxJxqv717+oP125chU3HityRx4ARcXRZsIi+bn4xYsXYf70UehSzQkil1ZYwU72xR9A/2LWaDBfceRNFr0SLZiOU7PlTxQxRRaNxY0kcBuQ8YhrfGB7WDp0415phxzmrB71ADMQh9Mjy8HKcyiOqYkxrBYf62C29VR2vC6Tubk5GjRogDlz5mhNDkv2cjt6l7CGR8f5OBQSiYgbuzClWVHYlP9JbV7oDqbR2tELxc25ymvmhh8OZVpVSLqPwJ6esPwSBPUbADXr/eVfAGSDXnBwsLyXp0oDUFfJ0dERXbt2xaZNm7LKYelDD1CuMGOZJQDGbWin7wCoPz1AZaQPF6KRnTPTC32uoheqgG3VLl++jClTpqBGjRoqHc+m/JTDat68OZYsWYLwcG7iVwn2viZU2cSwajyOnbBZqTbKnq9AcxsHdN2qqS+sC+Jxe8NgNCxhAzNRVUy6mdV/bAE/ObsjyjuwD0/SVwDkq/eXvz1AVqp+z549+PHHH+X3VaX8lsPq27cvtm/frlodhvGV7vUA4xHU2QH2nbZkGAJHLWwIiftg7rV2yGEA1J8eYDrJuDCmLMSeI3AmB5P+r1+/lrdwPXv2hLOz8xfnazMAenp6ysVPDx06pFEdhrXXRFYbpoe1vCksC36HHcr6D6xqjr0N2gfmdikoH5DF43nofTzP1AFURhp7BwfWLcRWPYi68tf7090cIDt/HBoaivnz56Nx48ZyezZpQw4r7bPYxNbF2bNny0WDNc9Z60MPUIqQ6b6QMCPEy186WvHY28cVNs2Wc6+1Qw4DIFMB9aQH+IWkUxhWWgzviTey/czsYIcex44dk88LsmKUeWHXrl1YunQpHj1S+o48YAuiJlTZSMPY3q89qo/ajwi2AUh4iB1DqsLWsRVWZZ0rEFBFjvT+9LMIwsL2DllB33HjxnFXcs+MGTOwY8eObOel1aIHPUBp6O+oa1sIjeecx5uUZDw7OBq+9opRnzbJYQBkfra+9AA5Uq6MQ0VxOYwxKCnknJPbAMguID3aOgQ1XEQwl9jC2sIUYtf6GL3niXw6wSBIeYXrO5ZgytjhGPbTL5ix8gBC3xlOcM6Z3p/+AqBBoXM9wETcXt4FnjamEEnEMDd3hM/gYKh5LEuuyYVH9KUHyMINAQv0wA5DmO7KA3wqQ7Y2Sa9w/8p5XLj6EG8MqC2QvTmJSfVdYJ5hpdcEFsVaYcEV49Nt5APfwMbXzqDRsR6g9N1jXL9wATej8uewQy49oic9QLabPLYcJN4TcT27DzRw0n4nn2RcfMTBH0rALEPwS0smEHuPV5rT+e+Q9beqTwKGhRHqAX49GN0h++Sj9KNHC1r5TEamTjXpxymjqUWR57Tv90m05sp7SjX3pFGn79C82san4ZgdghqM8SKowRgwRlex4v8mf5fvaXeiOflOu0GXJlYgtj2U3plKNX2m0DWpNfn//ZJ2fmejsP+PIARA4+W/oEcpYCgkJ1JSKhMITMRUwqOkPPixmJcuTx5W7PkQKSXEJ3JXBQT0j+4CYOorurxjAwWde8oMnFUgi6TTmwLpYEg8d0HA6JClEhv/yMScLCyUipapmCRiVjYelPL5M6UqrgoI6B3dBUBTCUXv/ZV6D1xG1z5z15RIOv0H9ek3j84nqpKkFMhM0vNr9M/2INp57Da9VJGf+kA5sMmSPtD79+8V6UMSSbkRYmpyHH1Iuy5PHyhBqrinc1hB1MM7aPPmHXT42nNK4i5/QRZLoSeCacvWfXQxMoG7KPBfQqdzgJ+ODaYKrY6TP1NpF9RTflZEPO3rW5a63h9G18/+QkUfnqTDd94wFcqETEzNydKpJFWr6U1F0mJj/H06efgOvWFqHKs4a27pRCWr1STvLwaGDztvxIes7vlMYev7UruhW+mZnTsVwUuKsWtBc7atp0HeelBVViI1ZgW1KDaIjuQoIOtHEfrTraXUo/0YOhTnSmUKp1L0w1dUoM1C2r1pIFVki+aHczStbQeadduS3B0TKPKFLbVadIC2/FA+iyo0X1+mYbzzhTJ6fHIznZNWp65NvEic+pwu7DhKUUUaUZd6xb9MeciJv0sHdoVRwab+5JtwmjafifzSCGbG1KEStW7nS05Md0yzSrSWYQOgzpA/0NsC7oOOfVGQlfM2CF2d7dD0L1YNQop7s2rA0r0BevTsiZ7fdUP7hl5wKeqH6WcUW1Gl92ahhqU7GvRg7vf8Dt3aN4SXS1H4TT+jdrOqocEn61XZSCOWoam9FSoN2oModitQ8mNs+58nbH2mKGmn6QfZq+VoapF160f2SQ9ngTUKoqbg6kRvWJb6H3Y+Z3e6xePGgiZwcWiO5ZFZd6Oxv4MPfO0MlwRs9LeCuNkKyA+yJf2DAW5mMHXww6J7GQufNHwu6khKY/jpZCQeHI06aXqg1TxRUGQK22KVvmiEVu+8mBPz1aQSrX107JEU3JnqA4lbP+z/spFZhhfr2sLBqSM2yvcPKgKgQ4dNSgKJSQhZ0hyFPYfhBPM+eQB06IBNSvUmKWQJmhf2xDDWQAc8f/5c43nf7OBTGVTZvFvfDjZ27bD+DXeBQRo6A9UtK2JcJlVdnfP+CKZ374ROnXKSeuD309kextU+mgRR2RMLFSWoMknpuGXSUQwqYQ2/JU+4C+kYcgB8/PixVgRVFagOgCamZnDwWwTlGKgcADOQuAffu4hRZ2541k3UGlSi8wOde0T6aCEaWhdGz2DuTKIsCksb28GtD3sImkVVAGRgC2BJd/x4NEllAGSD5NFBJeH+41Hmf/kPe46YLdAFChTAvHnzcOfOnRwVtNwFQPaoYRNIijANiFIXWvZsERpZ2KDDJiM/HqNHMgiifgxEe2sHdFFW15FFY8m3EhQbeIS7kI4hB0BW9Jf9u507d8bff/+dRZYtZ6gKgGJ8070Hykkc4bfo3pcGIzcBMHuV6PxBd4sgHGbuXem7hkl0KOggvWVey8K30paLLtTx+yZkqzBRjXkpKuUWS1GRn7gLmTGnUqXcKDYqktRZ5Adv376l0aNHU6VKlaho0aLUp08fCgoKotjYWM5Cm5iSo3dlKh57hvaffsddk9GT/YfopjSFPsVnmcbXG7J3IXTo4FWKzbTkmxp7mXYFX6Zow/mqlPr6JE3oMZmueo2giT2KUGrce/ogsyZ7O6VHdZraM69NKO7DB+6CccDUcfm/27dvp169elGhQoWoWrVq9Ntvv9GpU6fo8+e8rqCZkNU342nZYFc6P2Uo/XU/tytayXQxcCs9qNSJulYpT926VqeY4LW0jw0S+YjOAyCZFqGOvZqR6bFttC/mM4Vs2Uo3Snej3nU0LGAgkRKTTMnCQt3zY0GJiUlkamHBhEL9wAyLaf369dS9e3cqWLAg1axZk2bMmEE3b978UhDzikWNYTSpw2da16kGNe0zhAb1aEBNFsdQUXtTEqnNG10ST7fW9CHf0t7U6vtFdCbDtr9Uitk1nb7vXIs8y7WgiQeekL4WgNNIDg+iH5u0p2VJ3Wj99olUg12LMTMnsyzrGuxoSfGvMaGq3N24cYPmzJlDjRo1IrFYTP7+/rR27Vp68eIFZ5FDTGyo/pRlNNj1PE0Z+hflKgYmHKfA4OdUvWt38jIzo5LdelCDpIMUsO1pvm6b0n0AZHBs3ZvaWJ+i7btOUFBwGFX9ridV0VB3U2P/pasRpcjb25K7konUWPr3agSV8vYmVRbsSp0208SJE7lPVs/9+/cpJCREnuLjtbS/0awEfbfhPB2Z14VKmySRqNxA2nxgJHmiALm46HsVPJWitwyg1oM20M13Mkr9cJOuhCrVhtQY2r/rDDEDS/oUeYhmdm5Bow6/zdcCrp5Uij07g1rV/x/tLzia9h1bRv7FFeuYpjYFyFEcT+/eK3/3t/T2A8ihgBN3Ie+oKlfaTnfv3uX+mnrSyihbXnPbUJvYNqApywaT6/kpNPSv+zlu2N4d3Eh7XpUkT4e7dHDfPjpwzZrKeH6mUwGBdE/lxmEtwfxgPcA+FMUT9mUroJRDMyzPoC2YdQ5Q+vYW1n3niSItV4BVzMoyByh9i1vrvoNnkZZYkVlSK59gs05VYp+9wErxs1Lf7AOY1MHaakKVjezZUSydHoCLSrJu8Yd+QAm7ZliRQThWDySdwYgy5vLvbSJyQ6OfluNstPJ3ikP4ibWY0LECmA4rY2cCUeUJiode6ZhsBVGlIZjuK0H5Xy7jiwfj96KPqw2aLc+qR8fHlyx87bQJ+zczJ/ZRDX5+fnLhVVbBnT+q5gAlaLAwilNq+YhTP1eAxNEPC/6Zhdp85wB5qUTnD3oKgOyE50RUEZnCqdMmKC1oMigCoIXYXq7c7OLijIKFy6Bu7z9x/q0im+UB0EIMe+a+s4sLnAsWRpm6vfHn+becI/If5QLVokULuShqREQEd1cz7Ps0odLm7Xb0KOSAulMugM2OxIg9GOFjj6K9gr9osumL5Iuczp6JDerOvp3NYtQ7nBpVGWJWNUZUGRN0Le2jURBVitDf68K2UGPMOf8GKcnPcHC0L1Pe/LFBRSPDx5csfO20Cfs30xIrfc8+g+TDhw/c3ZyiKQAyfDyFnytI4FChEkpY8AuA/FSi8we9BUBj5/Tp09i/fz8SEnK3TsWnMqi2keJxUH9UdhDBwsaOaSHt4Nl+Ds7E6jn6MSQEdYEdG9Qs/LBM1TNklZBFLkQDds+giQO6bcvvtb6M8BJETbyN5V08YWMqgkRsDnNHHwwOjkrvtSih2k9Z4WunTTZs2ICrV6/KVdDzDo8AyPDx1M+oYGECMucTAPmrROcHepkD/C9Qv359atWqFVlZ6fr0hRmV7Lqarkc+oMtHj9K/4U8odNcvVK+A/l1pambGTSqbkqmmr2MpIcVZIBlJ83OORwUWNX6n0BR5458pyej5mpYKI0kl+nFrKD0Nv0wnTl6lR1H/0rIOmU47GAG9e/cmHx8fxh+6Kx+2DabQsqHlOf9qQHqDNgbdIMeW3aiFI3ftCxbk26srVU44TAFbIlVrCOQRQQ5LT7AT1HwwJvdIb02mb76ZRjdljtRm1S3a3a+YmlW2VIoO6ECV+++ht6bl6ZdzN2hODePVCOTrSxahuhkW+u82fKUoehzZJ2PDvEIbalVORCap7+jA2G40NjiM4rMs8SbQg92/Ubcx++gtc8+8VHNqU8X4BVJV+U9VEjAshB6gAcP2LIzLPan0alc/qtllA0WyJ99NzMnWtRxVKleMCtqISBb/mp7cv0P3ouPkB+NNzNyoc+Bl2tLDzahbYuPzk0AauguArB7gzkMUUfhb6ly3WNa5FFYPMOgMJVTpQC0r/LcUg3OLcVaseLq2uCd1HLuXopLVf3cTi2LUYsZW2jSmFjlw14wVIQAaL7preAU9wHwglV5e2knHH2TNUFlsKJ0I3kJb910k3UrZ2ZDP8J107XwgTfiuAZV1tkw/VWFiSmInT6rT5Vdae+YK7TWQ4Jf68hLtPP6AsuRi0nO69s92Ctp5jG4biuiigHZhe4C6IuHoILhbeGLkmcw7xOKwt48bLGvNwT1un4Hs7V0cWLcQs2fOxbLNp/E4wzl/Gd7ePYB1C2dj5txl2Hz6sYpnFBs2bNbzSdmRcOtPNHexRIvVGfcPvD87FfWdxXAo7oWSTmJI3DtgZUj+bSbNHiniY57gcXgEot/EpW8sNhQSbuHP5i5ZnvubfD8A33lZw9y6CDw8CsPGzhOd/7qp8nC+Kr9llwQMB51OvVjV701dSkfSri3nMqrvvjtAm/bHUb1ePciTGRvLIgKpR4029Pu5GJKafKKHO4ZRvdrD6EAMO6Muo4jAHlSjze90LkZKJp8e0o5h9aj2sAMkv21EMPmfbVJPPN3b+jM1aTyaDr/O9KOl12j+0Dn0rNUWCn18nx5HXaJZZc7RL6PWUZRe8seMrJ2LUcnS7uTqZJNFTFSfxN/bSj83aUyjD7/OeBxPFklrho+gXRa9KTj0CT18GEW319SmW7/0oz9uqj7kpcp/mVOanYDhoONFECndnVaTvllVhXaEraFW1uw1ZhgX4E/lxoho6b1t9J0zKHRGbfILHU0PNndWKMSkPqdVrb1pc+N/6dRPiTSjth+Fjn5Amzsr9GNSn6+i1t6bqfG/x+nnksaxU4vPvJFqm1SKXNqMvCe8oJbjexAWzaCPU6LpYH/FJirp1fFUtd5B6nDxCk3lDlgnHxtMXu0f0Oh7R2hosXxs86QxdP/6Y3qfo0BrSo5lfMmLlQPWIamRS6mZ9wR60XI89cAimvFxCkUf7E/yXHy/gdoXG0609DHt/p47+yu7RzNr+1BQ4zN0Y6ZvBsENvnOAxj5XKHt8kjafk1L1rk3IS5xKzy/soKNRRahRl3rEHaPmiKe7B3ZRWMGm1LFGQbmK9JlIqbz7mxVTcqjUmlo7h9D2k49IMW1solCCL+BOPvVqkYdDPtZpxiE6RbMeoAzRq1rC0aMLlp6ORDy3AVyaGIe4RGZ8LIvGqpaO8OiyFKcj47kd6FIkxsWBva0rVq5cKT8Ct3r1arx5k/EwHx/4ZL1qG2b4f/MkLkYzg0n5TvyMQ+CPge1h7dAFGaXsluBbSTEMPJK/SolGowjNIHt7EycvRjND8iT8M8AtwxBY9vIvNJEUQb+MootY1MgCNh02ZZluYX8HH/jaaZOePXvKtQBPnjyZ7dl0PiRs9IeVuBlWKI6ByPPNzNQhgw6gHGk45taRoPTw08yLRBwcXeeL+nM1z4IQmdqiWCVOIdqnOjovvou4HT3gaGaH4pW561Urokwha4gK1sJvR99kOGmiTXS++0CzHqApuX6/mFa1fUsL25Qh5yLlqH7HoTT/8DMiCdMSmLrS94tXUdu3C6lNGWcqUq4+dRw6n9Ju64qYmBj6559/aMCAAXLpq+rVq9OECRPo7NmzlJKSwlnlB6wmYEOq6apqMJlKce8/kMzanjJK2TGvTeLowwcdH7kwYEwdvalhTVeVQ3L2XuXisXRm/2n6orr4ZD8dYoa/KZ/isz48yYC5ffu2XAuQlb5ydHSkNm3a0NKlS+nBgwdsNOas8gA+0qnJ2ekASqjFH+fo6tWr8nT+j1bkKKpMw3Zd5q5dpm3DKih61GZK16/foQdP7tKqehE0/+cFdD2n8jI80XkA5KUHaFGaOs0/SuEvIunChl+plVskrfu+HnVYGsbd7kTzj4bTi8gLtOHXVuQWuY6+r9eBlobpr4JfuXKFZs6cKT8iZ2FhQfZM0GF6ifTsGROZdYiZuRkzgMgEU9DlRV0L5Z0vJqaWVKhcPfIfMJ4WrN1EmzdvVpMCaVSGB2QZABY1aNikDvR5XSeq0bQPDRnUgxo0WUwxRe3JVKQ/vcncIJOl14lPnz7R/v37adiwYeTl5SU/HscGxL1791JCQu62Cpj7dqWuRfKgA5gdFsWpRZNKZBIVTo/zaxFe0RHUMfEH0K+oA1qt+Ae/VbJBnd/vpx8ylz3BluFdMOus8nBNhieLG8G20SLm9hYM7zILGW8/weJGtmi0KOvzGtJgf6o+kkgkwujRo7MocLD3NKHRRsUQOD6oMxzsO2GL8hA4aiEaStwx+Hj+DoHxZj387U3BBGClPDCBiYUTytRqgz5j52L9gSt4EpdfA5rckHUIrCAZz06twPgf+6DvsGkI/DcCGzs6wK3fgSwqN3x8yZLZLj2P9J/c3NzANEjZPtZB1RBY0mABQk78jArKkvgZhsAZSdzzPVzEdTA3PON8VSI7BLaoiz+U5ezi7mBJq0Io2GYNovKpyOi+B8hi7Uffd3Khc3+Opq1P61DP7mXSN0abulAxi7u0bOZfdDOOu5YaSyGhL8nJw5O5XYws7i6jmX/dpPTbIRT60ok8PNWLVTK/VauJD6w0/uvXr+mPP/4gOzs77mr+IqlUmTySQ+lmSHqTmXjrNj0w96JK5UTclXzC6Xva+fwpXf9nPc0d8z219HUnB+ZP4nMsPby4jwLmjqX/tapOJQq6kFftdtTv13m04Z9rFK3LZxjwITWaji2bS0fF3WjG8nW0dvFE6lU+jM5cTaWK31QlbeWiqnKl7aSJ8uXL07lz5ygqKkquZM4u1OQME7KpP0ULkvgM0ms0168slSlThsp4uFPhItVo5I0aNGve91Q8vyIVk0l6Qb0eIEP8dfzVozIKFfKEb9268CnjBo8mk3D0laIZiL/+F3pULoRCnr6oW9cHZdw80GTSUXC3dQKbdcqJnbidNGkSLl++zEt6iE/Wa7RR0QOENBS/17VFocZzcP5NCpKfHcRoX3s4+2+APvRSU96G4cy2pZj0Y0c0KF8IlqYmGfJNX4sg6ajqAb7F9h6F4FB3Ci4oRBexZ4QP7Iv2QrAK0UU+vmTha6dNlPNaIpGgdevWWL58OZiAx1nwR3UPcKGid8bpADqyT4dLymUPUFQB/VYFY+fOnUzajk0rZ6BfdWdYlemH4HwqvHoLgHxIignHras3EPLsY/oQ+QtJiAm/has3QvDsY9a7+c3ixYvRsWNHrF27Vv6IzJzCpzJotFEVABkSby9HF08bmIokEJubw9FnMIKjdJ9HyiREX8eBgNkY3MwDNhmCoCEGQKYdeRyE/pUdILKwgZ2lCHae7THnTKzK1Ug+vmTha6dN/P39MWTIEBw8eDBPj3FlyTYAMsh1ANmh8IJ/MKu2FobADLLo5WhqLUa9eY+4K9rFoAPgfxk+lSFPFUb6Do+vX8CFm1H4mD+NZ7ZI3z/GhV0rMHVoFzSqWBhWWXp+JjARO8Gzlj/m5qPkeZ6QvkfEjYu4fCcK77NpP/j6KU/+NAA0BUAmBCok8R0qoFIJC60EQLzfhI4OFqg5O4y7oF30MwcokP+YOVDJqrWolndxstWVl5PuUtDkH8i/jhcVcilNdfx/pMlLt9HJuy/pUyoT8iwKUJmaranPmLkUsP9finwTQ2EXdtKY2gYqh2VmT+5ValL1isXJXodbrIwXW2rAPh3O7SHdzdWxoyR69+QhhYWFyVPIvwdo8dAZ9I/0G2rfphRno12EAKhH2Ann7JKxkfrxHAXMWU27LzygWHYNhgl4HjVa0/9G/07r9l+myNjX9ODiPlo3dwz9r5UvFbf57xQ/Vf7LnL4K5E+HG0rlc7OzSXqVZjUqR2XLlqVy5SpQVb++tCyiCv2ydRONqpA/m48EPUADhq00xuSe1JgV1KLYIDrCBD8TUwkVdC9FLpaaKr6Yvp11nha3NV4VIGPzk0A6QgA0YIw5APJHTO0C39LuXrp+tor2EAKg8SIEQANGc8Vi9QB3U0iB1uTnmWkeLfUlXdodQgVa+1HmW/nG+4M04fuldD1HJwEtqOborTTpW/2dBmH1AHeHFKDWfp4Zj8Z9jqHbp8/Q3Tfm5FatAdXzclQ5ZyQEQCOGDYD6RhZ9HlvXb8YZFVs14u7sR+COS9yrNGT4+PAo1v0+AT8PHYKRk/7E9quvVGyVMVz4ZL0mG3V6gMwd3PqzOVwsWyDLLYGMJKjWA5S92IvhVR0gsisKT88isBa5oMHUM3jH3VfGQKqRQC4wCM8l/TMAbmamcGA3UWaUlUD43DqQlB7OvWaQPsO+0XVQSOKE8o27od8P/dDNzwsOFi6oP+kkDODxuLxgKw2fpJo4hAaNRG1nc5iYiDMGwLhQBI2sDWdzdpuJEACzIy40CCNrO8PcxATiDAEwGRdGe8Gi1P8Q/IwtkEkIW9UehS2rY8bdrA9xV+W37JIxoup3GFtShQEtw4E+nppMQ/+6T+oP00gpdFFP6rUyiXrsukO3j26hNSvX0JZjN+nsH1Xp3uw+9MuhD5yt4cPkf7ZJNaweoD/VHHiEio+ZSl1clVyYGklL/WvSwCPFaczULqR8SyAjrB6gf82BdKT4GJraxTXT0FZKT6JekKhyI2rixq4+ismj1bdUDlH06LHq0qnKf5lTmp0xkvm3GGNSheFUEXNf6tq1SPbnCZOO0+I/z1PB/82jGc2LKD1YSUIVf5xDE3vVJqeE1/nyAGVDwr7eeDocep22DK9GGU8Y21O98Ycp9PoWGl5NN2ePjRb7ejT+cChd3zKcsmaVhGq38iPbU0tpYtC/FBZ2kf6evIauFmxMLaob6J5FNSxZsoT27NlDiYmJ3BUBZQxiEST50A9U2v8Bjbo2mZ51aUkBhX+nC4eGU1lzGT36owFVXOlDieGL6PO/v1G1uuupenAErWtj3A9P4jNxrtEm+RD9ULoDPVNShE5DnqcdntGU6IOU6ZZABpLp0A+lqcMzJUVoluR7tOa7FjRkZxR9ZlxgIvagXuuP0bpuJbI80ZDvIog+Fku8vb3lmoAsTZs2pWbNmskTK4LAfh/+pNLLyzuZhjeO+R8H834zkRUVKOFNtWt6UQFuq15qzL+0+58Q+qBqL7SJFXk16US13bhc/BRBp4OD6ej1SHrPNODFKn9LHTv5kYdCHJT9MPp39z8UovrDyMqrCXWqkUxnNp9RPIpVFaYOVKl1O/JVpTrOOETvyOcAJQ2wMEqafp5QLq2TcQ5QfozGwhsTb2SdhzE2+GS9Rhs1Z4FZ5HkqLILwQMVZYNlLbO9dAtYeHTH/UAgiI25g15RmKGpTHj8d45TMleBbjfRR3SpUqCD/u5kTK3/VvHlz+Vn2t2/5FJIknBxWCuaWrijHqTuzqWr54nAQmaNA9V9w5I1iAj757Eh4iizhWi7d7kvybY7p3NFH2ct9GFrJFjbuddGhz0AM7NsZDT3sYFmqC9aFcXU8+SxGeopg6Vou62f5+KL59PNITjyI0XXSrlWDZ0ERTG2LoVKaXfXOWKxi7pbFwAIgm4HceUJHPyy6l5QhACYd+gFFLSrg18s5PzuqqhDoOimT+bUqNNoIAVALqAiAMavR0toRnTYrZZ7sOVY0t4FD161ak8RnXxtCMjMzQ4MGDTToASoCoEWFX5G5+n28MhMNHESoPP6KXA9QHgDFmuppCm5OqsrU7QE4EMtdYom/hPE+lnDutlXhD3kAFKPCr5d5PlEwEXu+d4G4zlxkOm6sEgOcJufOE7oqVGYfKnVrReUqUBnTpxQWpkq99jPd+HsmLd4bSvHcFWWY36r3JGAcpKZKSZpqRmILJeU/UyuytTYjaXJy+hAwj6gqI9pOfJg8eTItXLiQunXrlsNhsQLbaj2oXWUTenAnhPjPNErpydPnBOdSVNqeu8Ri7UsDJoyljp5mpIsnOBjmOqH8POFgcj0/jUZvif5S4EzdWlHbmql0clMQRWbOnLcHadG4qTT/wFPhgLNAnjAt+C21qPmZ9s+dQgci2SeAfKLw4PE074gpNWjZgOQPMzRSWGHezp070/r16+nVq1fyIDlx4kSqWrVqroIfizTiEB0LARUtWYr4b2e3oOrNGpHj1TnUofNYWhJ8nh69Yxc/zahE+ym0fGpHcteBAIXBxgrbBqzKrBs9vBuV3uKalaZ+kwdSsbPjqNOQtXTpRbL8ckLEYZrx3VDanNSYfhvTmIz3UJWAQWDmSUPXrKaeJn+TfxlHsrNxJK/vdpHtwPW0vG9xo2pgK1euTOXKlaPRo0fTyZMn6c2bN7Rt2zb6/vvvycXFhbPiD6L30+Te3eXq0d27d6PObRpQhW+G00mnHjR9ZO30kzSyh7SqEzNiY9WdlZKX3wz6V35U0pQKdV5Oe5d1JZdbK+nnznWpTCFnKlWzAw1fcpKiM2wEkdHDVZ2oQqbPKuPlRzMUH5ZrDGoVeHTYCRqhrH0dd5pG1WpGi5MGUkr4Iu6ilKL2TaHBo5fSkfBEsrQTU3JcEtlV6kwTly+loTVVH1cyNPisCOpj1VBAmWSKCbtD4W9NyMWzEnk4qd4Cw9dP+vDn27dvqUCBAtyrvJBMp4aXp6ZBRajn/+qSCzPYfXohmIKvEDX6bQUtGd2aPGwUlp/P/UyV/HaS9+z51L1kxtpoYuNB9fwqUcYF2U/0/MZpOnL0OB07tIf2nYkix66BdPbvblRMeo5+ruRHO71n0/zuJTPWbRMb8qjnR5UyfFgS7f1fCeoSPppCTo+h0pp6kYxDjJREvAq7jgvnzuP6wzc8J0gNBz5Zb9Tu+Yrg6yfj9qeKRZCUCAT18oCkSCssC0l/VBSvRZCU+zi4ag2OZFmpSETIvEawF9fG7w+Ze1/fIghfJEyrXJVq1alNVT2cVD7f1dBhewTZJQHjQZX/Mqf/HObu1HXZOhrmfJxGdf6Fjr/nrvNB9oz2zxxMo9bdoIyDWAl51KxKhUySKSkp/3vLRhwAjRum8dGYBIwHVf5Tlf5z2NajyX/9RF6Pl9PQySfoy0FUpND76PAv6s7p6QFFxSYTietR3z7eFLFsAA1ZfZ6eyp8MmErxjw/TnCmb6Xnl9tSubJoIKijlfTSFZ/msMHoQFcsMzvMA4xQBA0Vwj3HwdfhJ/T5AIB7nfvGGxKIcfjr+XjEENs+631CRRKj427+Kt6VEYu+45ihjZwZTkTUcHKwhMrdFKb9RCH7E/RH5ENhcxecokqjib/g3wx7nnA2BBT1AA4YdNgnuMXwEP+WRpNcUfj+cXiWKqIB7OSpXRHcbjYQAaMBorljqBVGToq/R6YthFEtO5FW7Afm4GvfZ6fwkqyBqHL0If0EfZVnz3sTWlTxcbTPMHQkB0HjRUQD8RBGngyn46HWKfE9kX6wyfduxE/l9OfGcTmpcOJ3YsZNO331K71CAytRuS939fcglbTlbFkVntp6meO8O1LICt+5uhPCdFM/OPZ9uL6KOTX4jk5nKYgif6NbSHtR+zCGKcy1DhVOj6eGrAtRm4W7aNLBiDjaqfiV8uk2LOjah30xmposhfNpCnQp9R8HxWfNe3CaAXu/9HymXXL6+TMNog2Xqe7p1YA/dhDe1bV2FHFWsIBhdw8sGwHxF9hL7hlaCrY076nbog4ED+6JzQw/YWZZCl3Vh8rODCqR4tm806hSSwKl8Y3Tr9wP6dfODl4MFXOpPwsk0pdPEHejhaIG6fzwyKgXozPDJevU26gVRpRFL4GfrgIazruKj/Mp7XJxcG3b2LbDimZGoxeoItYKoTJm9ffIYjh49+iXtntMGrpIy6Lf7RZaHo/OtRrqobvmJLHIpGtuZw9yqPuaxW1QykICbS9rBXSKGU6mKqODuCAvL0ui44g7SN8gYHvnukZSbk1BVUhoDDmQ48YxL431g6dwNW7lSlxIyHw0dbOEz8h88V8rbxDuL0MxZBPf+B5iqzF4wjAB4//59PH36lHuVc3IfAGWIWNKYCWgV0G3uTHTNJIaQfGUxvms5BnsU0U+O9P4s1JCUwrCThlwUdYuMaSga29mjQre5mNk1kxhCZmIPYKCHDSqPPZtFCIFFFwEwMTER586d417pAynuzakFm2q90buK5RfhgzSMteHN920w0idP6TmcqVTGE8/kO2ACje3oSWbyE89JdHzxn3S+4P9o3ozmVERp97ak4o80Z2Ivqu2UQK8NSOl0+/btVKxYMfnw57fffiOmcJJUql7LWpuoF0QlsvAdRhsPzKW2X8ZoMoo8fIzui8tRZS+lw/1fO9kKoioTT2dmjKa/Tf9HC8bV1ek5YKaBpRUrVlCbNm3I0dGROnXqxN3RA9LbtGnLTfJoPZxGd6pEDzeto1PyrSsKZG9AhesNoJFDfbjpAXv6pntrKpccRiEPc/SULN3CBcJ8Q/YyCN0Km8O+vD/GLN6Bc+FvM7QccpIv49cKIhTusxeJ3CW1GEgPcPr06fIWXTkxhRTdu3fHxo0b8ebNG85SNXyyXqNNNnJYCmSIOfErqjvYofrkS8wgRSArKuSwlJA+XIhGds7w3/A8y9A3DT6+ZNFkl5KSgrNnz+LXX39FpUqV5PaZk75IOjMCZdhnooRIIQ2fjwZWLugWpDyqy4wU4Yu+hb19K6x+brg9QB3kqAzv/l2JHxqWgp25CchEBIeSNeA/bDFOyB84w5C4B9+7WMB74o2swTEzBhwAM6datWph8uTJuHDhgrxwK8Pe14RGm2wDYBIebhkAbztbVP5xJ1Q8cE9ATnYBMBkXxpSF2HMEzmTTMvPxJYsqO1aMlNXh69Gjh/y+pqQf4nGgfzFYN5iPR2w5kkVjZQs72DVbjicqY5vxNLw6OAliSg7f/EArTz6iF1HX6OC6GdSvthXd2TCSmtX5noKephKZiElswfSyUz5rTWstM+xQVZuJlRDSxK1bt+jatWvy9OLFC+6qDkiNpbMzWlH9/+2ngqP30bFl/lRcB9JC/zmSL9KWnRFUtuv3VCsfFjOZ+kchISFfyggfVJVFbSaVvDtIG/e8opKeDnT34D7ad+AaWZfxpM+nAijwXuZ5qWQKD/qRmrRfRknd1tP2iTUMW51JEQfzixTcP7gKa46EZ+mtJYbMQyN7MWr//pBpMKKwqJEEdv6BKochydcDMWPRHoTEMS8MpAfIZp2qVK1aNfkQZufOnfKJa3WwtprQaKOyB5iAf2fVRwHbiui3+aFBr8AZBup7gClXxqGiuBzGXMz+GD4fX7Josnv48CGWLFmCdu3awcbGRm6vnNhrukeGF+vawsHCAUU9PODxJZVAQUsRvEadTxcpkL3Bmel+KCIuAr9ppxBjuCPfL+RzAEzCscElYFFpHK5kLkPJ5/CzpwQ+U+8wL6QIX9gQNg7N8FdE5rAWi13fF4Wo+A84xPalDWwIXLhwYfTu3Vs+7/fq1SvurmbY92pCo42KAJh8fQp8LMXw7DYba9etw7q0FBCEc8/0mWOGiroAKMPL5U1hWaAHdqha+lWCjy9Z+NqxfP78GWfOnMH48eNRtmzZL2VN58gisPhbGzj6/40Y7pKCRKZuu0Pk1hd75cu+xtnw5nMAZCrk1Sn4xsYeVfqvwrknitkAWdwjHJraGIVtqmP6TW5u7ONJjKpkBQefgVhz8bkiA+Mf49D05nATFUSL5Q8VAY8LgL7jTuLe/fvy7SiKFIbIN7rL9hs3buDmzZvZPEMhe/InACbj0thyMGfex743QzItgn4HNC4xfYWoC4DJuMjkpcR7Iq5rmJjW6CcOvnaqiImJwb59+7hXukMaOhM1JM7olrZfTYnki2NQTuQI/w0vkWikDW++B0B2GBy5dxyal7GDmakI1g4OsBaZw7aUH0YFP8qg8ZUSuRfjW3rC3twUFrYOsLUwg6hgFfRYdBFv07rT8gBomrFyy5MIlSdc17yIYiDwqQx8bAT0D18/GZ8/U3BlXCVYFPkeu5X2lX4h5Tam+FjAquEfCB5tnA2vDs8CJ9Hr8PsU/iqRRAXcqVy5Imr3VCXFPKB7j15ToqQQeVXwIDVCvEaN2gnnTOjMPQK5hq8vWQR/GhaCGIIBw1YswT2Gj+An40UQRBUQEPhqEQKggIDAV4sQAPUEO2zSlDTD6gHupOMPsj4aMOnpFTq4bQttP3SDnudJM/y/D6sHuPP4g0zPpmBJphc3DtP2zUG071IUKR19zYIq/6lLAgYEOwcooHv4ZL0mm4Rbf6K5S+aN0CkIC+iOMlYSOJUqCw9nS1iW9MfSW8IWGJUk3MKfzV2yboNJCsWa7p6wsXSGR9mSKCC2hEePQJUy63yrkVDdDI987QF+ijhNf8+bQCOHDqWR43+ngOPhFMfdY0l9cZG2rw+ggAAmrV9PGwI3UtCuo3RN8YQUlaS+v0X7NmygvTff5duxOcMnnu5t/ZmaNB5Nh19nzIXUV5vp19EHqdAvp+nRo3v0MOISTXU/SePHbaQXX2+GqST+3lb6uUljGn34daayJKOwvwbTqFNlaM7lSHp4L5zCj48ghz2/0owD8ZzNVwgriLpvA23Ye5PeZVuW1I9MDA4uEGoZGV7uG4pKtjZwr9sBfQYORN/ODeFhZ4lSXdYhjNusl3RsEIqbW8Otgg98fJhUtTLKFnOAhcgFNYdtx6Msm/pkiFzaGHbm5rCqPw9ZNBlzyIMHD3J0ekMVYWFheP36NfeKP3yyXrVN9nqA0ifHsGTSMpz8condy1URkiqTcMNYNknqgGz1AFPuYKqPFXyn300/bSR7gys71mHXjXeMBzLCtxrlprqxYgnbt29H//79UaNGDe6qfsheEDUd1SMTwyR/AmDKTUyqKkHpAQeQQQb10nj4MEOKtF3l8gAorobJt5RrZgIebhuAilbW+GbKlYxHaqT3MKeWDar17o0qlpUx/krOajS7mz4oKAgDBgxAqVKl5AXy5MmT3N3cwaq9sJ/DprFjx+Lw4cNISNCsf8GnMqi2keHtzZO4GJ2s4iSIMlIkvArHpe2T0KxoAdSdfSPDpvOvHdnbmzh5MZrJExUnQd4Hor29Owbt/hcbx/dGaz8/tO07DTvvq/YrH1+y8LFjVYPOnz+PSZMmoWbNmjAxMZG/Ly3pj+wFURWoVyo3VPInRxP3ok8hMWrOvp/xvK40Ersm/4hJOyLk11UHQJZEnB9dHqLC32M3K4DAkXJ9Arwtq2DS1duYUd0S7oOOZiu18+HDB/nxoV69emUoRJlTXlAOgJnTjBkzcOXKFchkWU+Fs/c1odEmuwCYfAnjfNhTN6aQlOmCv65m7bkIsGQNgNLH81BXXBClSheHd6exmDVnInpXd4aFmz8CspxVz3sAjIyMxMqVK+X3NSW9kXIdE7wtUWXSVdyeUR2W7oNwNEPly35kYqjkT47KXiKoW2GY25eH/5jF2HEuHG9VdNbUB0Dm3vHBKGHhhVHn0/otSTgzogwsq89AiFSK8PkNYOXSDao0GdnzuQcPHkS9evVgZmamsiDpKjk4OGDIkCFZhtrsPU1otMm2B8gWSSbF3UVgby9ICnfGphdCCMyKigAYNhs1RWZw670Tb9Ky7ONRDPYQo/wvl7P0pPn4kiWzHSt4sGzZMnh6esrvZZfEYrHK69pO6tAsiMp3ZGJY5M8iiGkh6rx8Ly3r6kK3Vv5MneuWoULOpahmh+G05GQ08RGON3MpRAXpDb16xc22JhynwODnVL1rd/IyM6OS3XpQg6SDFLDtaZbFEHarQYsWLejMmTMUGxtLu3fvJl9fX2KCEWeRDjMEZr2e66QKZ2dn8vLyotOnT9Pr169p6dKl5OLiwt3VHaxzTW0q0HezBlOtd0doz5kkxQ2BbDFxcCQ7U3Pyrt+QnNJqiG1tqlfFgiIfPCRtCbyLRCIaPHgwhYWFUUREBC1cuJCKFClCFhZZz34mJyeTjY2NyjKozaSaBDoeGEzPq3el7l5mZFayG/VokEQHA7YRK+epwJQcvRtSTVfjOreab6vApg7f0A8rT9KjF1F07eA6mtGvNlnd2UAjm9Wh74OyBq0sJCZRMklIIlHsm3p3cCPteVWSPB3u0sF9++jANWsq4/mZTgUEUhZNRiXs7e2pXbt2xAxF6e3bt3IBynnz5nF38w4zBJYH1s6dO9O6devo+fPnFBMTQ/fv36f69euTubk5Z6kbPh0eSzW9v6dNSqvDSEqmzyQiiThfF/3/M5g6VKJKJYieRjxKb6xTmcb4jZQcnZwoPzzq7u5OI0aMkJefDx8+0D///ENDhw6lkiVLchYkD4B6IUeCqEYGE/W1Tsr9g1i15kjWPVOJIZjXyB7i2r/LV3CzGwK/DfSHnUUd/MFqcMteYF1bB1g4FFUSZGRSiYKwFCkPk3NGfHw84uKUJhlzAbsCnFnung98sl6jjYqhhixyBVo4WKLCwGBEJDHDuTeXsdi/OCxK9MNewx+R6AFVclgpuDrJB1bOfphx9hVSZHG4G9AdHpYeGHIsa3nhW41yU93Y6ZzQ0FAMHz5c/rwZ3ZMDQdQ0jGgInC8BMOkYO39XCeOyqqDi3M+ekPhMxR0mZqgNgNKHWORnD8tacxDKxr+IxfjWxhH+f2eUZETiMQx2F8Gt717uUXzGQ34FQCbzEBk8HDVdRDCXWMPS3Ax2Xp2w8JL8oaICWVCjB8g01gF9vOEoEsHK2gJmliXQava5dFk2JfIzAOod3oKoSnztARDJVzHlGxvYV+mPVeeeKFZqmVb00aGpaFzYBtWn35QvocsDoEUF/LQ/VCFqeu8urpzYglndKsDO3hfjTrGVVorQmTUgUXqGcDrJuDimHESO/tjw0rgm+NnKwCflmsQXCL18HpduP0GcsPaRS2SIj76DSxev41Gs+lGGKr+pS8YGX0HUDEXsqw+ADKy46bjmZWBnZgqRtQMcrJkeiW0p+I0KxiOuLMkDoFl64TAxNYeEGeZWbtIff555pcjUlCsYV8kCRb7frbKXl3J7CnwsrNBwoX4l8vMDY6wwXyN8/WR8/uQriLpQ8bS4NIwoAOa7HmDS63C6H/6KEkUFyL1cOSqiyydLGznsanY+u0dACwh+Ml4EQVQDRqhYxoHgJ+NFCIAGjOaKxR46300hBVqTn6ea/VfJrykqOpUKliqk9hEEXzusHNbukALU2s+T0nMxiWIintC7z0r5b2JO9m6lqXCmjBQCoPEibAzTE2ylySufbi+hPu160vwzCdyVTKS+oj1DapFnnXF0StgDrZpPt2lJn3bUc/4ZypCL8XtpWLWyVLasUipXi345JmTkfwn9B8DU53Rh2wbacvYJZdlSGX+XDvwdTJfTToNwpMaF07GAuTRx1DAa+vNkWrTjGsUY4X5MNghml9SjXg4rHRlFBg6iIRsieJ28+RpRL4dFJH14h+4nVaYhm4/Q0aNHFenIDhpbW3VPW5X/1CWjhYccliw2lE4Eb6Gt+y5SpJp22aBgh8B6Rb5iZAZTBz8supdxP6A0fC7qSEpj+Om0LQhSPNs3GnUKSeBUvjG69fsB/br5wcvBAi71J+FkrPHs9+CT9apt+B06T7o9D43cqmLIoEaQFO6L/YIeagaylcNieBfYHnbFfsAhHo+a5luNDKG65QVNcljvz05FfWcxHIp7oaSTGBL3DlgZon77kCFgMENgfDxFk4f+Rfez6a5IQxdRz14rKanHLrpz+yhtWbOS1mw5RjfP/kFV782mPr8cog+c7X8Z+3rj6XDoddoyvBrZcdcyEH+BpvddSKnDA2hydRsSRNhVYF+Pxh8OpetbhlO1LJn4me7dvkfSwkTXxvekNk2aUPt+U2l7iH7EUNkjnFu2bKFRo0ZxV/SBjB4EbaJLHj2oh+cVClx/I+PIQnqN5g+dQ89abaHQx/fpcdQlmlXmHP0yah1FqRukGAAGEgDNybdrVypyfgoN/eu+miFbEh1f/CedL/g/mjejORUx4y4zSCr+SHMm9qLaTgn02siPJmpGw6Hz1Nd0cHQ/CnSbSutGeZOEuyyQEVNHb2pY01Vp0UOZD3T37hNKvHOUTieXo2+b16YC91ZQz4bt6c+7+T+hwHRM6Pbt2zR79myqW7cuOTk5UY8ePWjBggWchR6Q3qZNW26SR+vhNLpTJXq4aR2dUhJul97cSbvCvKjnT20UddO6Cg0e25Hsz+6gfdGGGwENJACakNU342nZYFc6P2Uo/aWqG/j5Np0695Kc6jWhmlbctS9YUJVha2nTnM7koRQYvz5S6cmWoTTkRG1avLIPlfqq8yIPpIqoev/fadnOE3RwyXgaOYppTI5spcFOZ+iPP49k+3Ck3PLp0ye5SEebNm2oRIkS5O3tTePGjaPz589zFvol+WIgbX1QiTp1rULlu3Wl6jHBtHbfW+4uUeK9UIqQeFKFMulSEaLy5am07AHdva8t/RztYzirwCY2VH/KMhrsep6mqBoKp76kF69NqFDRYrlS41A1Ga3rlO9IQ2jdgl308v1J+rVBefnKpe+EU5Qcu5MGVfGhEQeEFUxemDqQd8dhNKiFO31pQ2yqU/1v7Cj2cTjFaqlDw/b09u3bR61atZL38saMGUP79++np0+fchZZUVWutJlUo0kOK5Xi3n8gmbU92SlVTlN75rVJHH34YLjDMsMJgAwmtg1oyrLB5KpqKGwiJjEzXpGmfNYspaUCtrDpO+U7pk5Uo9swGtijLTVv3lyemlQuRGbiYuTbtDFVcdWtNJfRknCUJrdtR5MPKz3CK/U1RT//RFbOhchBS7WGDTitW7emmTNn0vjx48nV1ZW7oxpW2k1VudJmUgkPOSwzc7Osc83sZ8r/lb8yTJgfrV/kq8ASNFgYxR2o/ohTP1eAxNEPC/6Zhdppq8CyKCxqJIGdf2BG1Q6O5OuBmLFoD0Lypm6lM/hkvUYbHmcuPwa0gaWwCpwNKtRgpOFY7GcPW99ROPhErimGy0v8UULsjgEH3nFG6fCtRnzsYmNjsW3bNvTr1w9FixaVvyctOTs7c1a6hJ8cVnxQZzjYd8KWeMW7WGRRC9FQ4o7Bx3kspesJg+oBKrClBtxQeNroLfRl/tTUjVq1rUmpJzdRUGTmLvVbOrhoHE2df4CeGuAvEjAyzErToJUr6TvaQO1KOZKtbRGqPS6EfOZspT9aZlUV1yYFChSQi+uuWbOGnjx5QqGhoXKlaFNTU+Z72HJWOiT1CW3feIJMWi2h6w8f0sMv6T4F9XGjx0Frie0oSypVJo/kULoZkv4ozMRbt+mBuRdVKifirhggXCDUH1l6gAo+nvoZFSxMQOZK+wA/nsSoSlZw8BmINRefM203Q/xjHJreHG6igmix/KHRKMLwyXpDcM/XTSJehF7G+Yu3EPVR/R5Tvn7Kqz/ZZ4joGt5yWNJQ/F7XFoUaz8H5NylIfnYQo33t4ey/Ac8NeHuuwQbAtKGwWDkAMrAyW+NbesLe3BQWtg6wtTCDqGAV9Fh0UaVYpaEiBMD/DroKgLonZ3JYibeXo4unDUxFEqbemsPRZzCCowy7S2K0YghJMQ/o3qPXlCgpRF4VPMhJzbY4Q0X9iltGjNQ9XxV8fcnyn/en7D1F3L5HL03dqGKl4mRr4FNSghqMAcNWLME9ho/gJ+NFWDIQEBD4ahF6gAZMToZWAvpFqEbGiRAABQQEvlqEIbCAgMBXixAABQQEvlqEACggIPDVIgRAAQGBrxYhAAoICHy1CAFQQEDgK4Xo/+vBBqYEf6gYAAAAAElFTkSuQmCC;rotation=0;clipPath=inset(2.3% 31% 2.3% 29%);aspect=fixed;" parent="1" vertex="1">
          <mxGeometry x="279.99999999999994" y="213.35" width="121.04732248585589" height="230" as="geometry" />
        </mxCell>
        <mxCell id="bL1KEJmNTPArhZalwCbe-10" style="edgeStyle=orthogonalEdgeStyle;rounded=0;orthogonalLoop=1;jettySize=auto;html=1;exitX=0;exitY=0.5;exitDx=0;exitDy=0;exitPerimeter=0;entryX=0.005;entryY=0.077;entryDx=0;entryDy=0;entryPerimeter=0;endArrow=none;endFill=0;" parent="1" source="QatNc70n-s6f2DUu6Mrz-5" target="bL1KEJmNTPArhZalwCbe-5" edge="1">
          <mxGeometry relative="1" as="geometry" />
        </mxCell>
        <mxCell id="bL1KEJmNTPArhZalwCbe-12" style="edgeStyle=orthogonalEdgeStyle;rounded=0;orthogonalLoop=1;jettySize=auto;html=1;exitX=1;exitY=0.5;exitDx=0;exitDy=0;exitPerimeter=0;entryX=0.006;entryY=0.213;entryDx=0;entryDy=0;entryPerimeter=0;endArrow=none;endFill=0;" parent="1" source="QatNc70n-s6f2DUu6Mrz-2" target="bL1KEJmNTPArhZalwCbe-5" edge="1">
          <mxGeometry relative="1" as="geometry" />
        </mxCell>
        <mxCell id="bL1KEJmNTPArhZalwCbe-13" style="edgeStyle=orthogonalEdgeStyle;rounded=0;orthogonalLoop=1;jettySize=auto;html=1;exitX=0;exitY=0.5;exitDx=0;exitDy=0;exitPerimeter=0;entryX=-0.002;entryY=0.139;entryDx=0;entryDy=0;entryPerimeter=0;endArrow=none;endFill=0;" parent="1" source="QatNc70n-s6f2DUu6Mrz-4" target="bL1KEJmNTPArhZalwCbe-5" edge="1">
          <mxGeometry relative="1" as="geometry" />
        </mxCell>
        <mxCell id="bL1KEJmNTPArhZalwCbe-19" style="edgeStyle=orthogonalEdgeStyle;rounded=0;orthogonalLoop=1;jettySize=auto;html=1;exitX=1;exitY=0.5;exitDx=0;exitDy=0;exitPerimeter=0;entryX=0.008;entryY=0.29;entryDx=0;entryDy=0;entryPerimeter=0;endArrow=none;endFill=0;" parent="1" source="QatNc70n-s6f2DUu6Mrz-3" target="bL1KEJmNTPArhZalwCbe-5" edge="1">
          <mxGeometry relative="1" as="geometry" />
        </mxCell>
        <mxCell id="bL1KEJmNTPArhZalwCbe-20" style="edgeStyle=orthogonalEdgeStyle;rounded=0;orthogonalLoop=1;jettySize=auto;html=1;exitX=1;exitY=0.5;exitDx=0;exitDy=0;exitPerimeter=0;entryX=-0.006;entryY=0.348;entryDx=0;entryDy=0;entryPerimeter=0;endArrow=none;endFill=0;" parent="1" source="QatNc70n-s6f2DUu6Mrz-12" target="bL1KEJmNTPArhZalwCbe-5" edge="1">
          <mxGeometry relative="1" as="geometry" />
        </mxCell>
        <mxCell id="bL1KEJmNTPArhZalwCbe-21" style="edgeStyle=orthogonalEdgeStyle;rounded=0;orthogonalLoop=1;jettySize=auto;html=1;exitX=1;exitY=0.5;exitDx=0;exitDy=0;exitPerimeter=0;entryX=0.008;entryY=0.425;entryDx=0;entryDy=0;entryPerimeter=0;endArrow=none;endFill=0;" parent="1" source="QatNc70n-s6f2DUu6Mrz-11" target="bL1KEJmNTPArhZalwCbe-5" edge="1">
          <mxGeometry relative="1" as="geometry" />
        </mxCell>
        <mxCell id="bL1KEJmNTPArhZalwCbe-23" style="edgeStyle=orthogonalEdgeStyle;rounded=0;orthogonalLoop=1;jettySize=auto;html=1;exitX=1;exitY=0.5;exitDx=0;exitDy=0;exitPerimeter=0;entryX=1.006;entryY=0.557;entryDx=0;entryDy=0;entryPerimeter=0;endArrow=none;endFill=0;" parent="1" source="QatNc70n-s6f2DUu6Mrz-16" target="bL1KEJmNTPArhZalwCbe-5" edge="1">
          <mxGeometry relative="1" as="geometry" />
        </mxCell>
        <mxCell id="bL1KEJmNTPArhZalwCbe-25" style="edgeStyle=orthogonalEdgeStyle;rounded=0;orthogonalLoop=1;jettySize=auto;html=1;exitX=1;exitY=0.5;exitDx=0;exitDy=0;exitPerimeter=0;entryX=0.992;entryY=0.436;entryDx=0;entryDy=0;entryPerimeter=0;endArrow=none;endFill=0;" parent="1" source="QatNc70n-s6f2DUu6Mrz-14" target="bL1KEJmNTPArhZalwCbe-5" edge="1">
          <mxGeometry relative="1" as="geometry" />
        </mxCell>
        <mxCell id="bL1KEJmNTPArhZalwCbe-26" style="edgeStyle=orthogonalEdgeStyle;rounded=0;orthogonalLoop=1;jettySize=auto;html=1;exitX=1;exitY=0.5;exitDx=0;exitDy=0;exitPerimeter=0;entryX=0.992;entryY=0.363;entryDx=0;entryDy=0;entryPerimeter=0;endArrow=none;endFill=0;" parent="1" source="QatNc70n-s6f2DUu6Mrz-9" target="bL1KEJmNTPArhZalwCbe-5" edge="1">
          <mxGeometry relative="1" as="geometry" />
        </mxCell>
        <mxCell id="bL1KEJmNTPArhZalwCbe-27" style="edgeStyle=orthogonalEdgeStyle;rounded=0;orthogonalLoop=1;jettySize=auto;html=1;exitX=1;exitY=0.5;exitDx=0;exitDy=0;exitPerimeter=0;entryX=0.999;entryY=0.282;entryDx=0;entryDy=0;entryPerimeter=0;endArrow=none;endFill=0;" parent="1" source="QatNc70n-s6f2DUu6Mrz-13" target="bL1KEJmNTPArhZalwCbe-5" edge="1">
          <mxGeometry relative="1" as="geometry" />
        </mxCell>
        <mxCell id="bL1KEJmNTPArhZalwCbe-28" style="edgeStyle=orthogonalEdgeStyle;rounded=0;orthogonalLoop=1;jettySize=auto;html=1;exitX=1;exitY=0.5;exitDx=0;exitDy=0;exitPerimeter=0;entryX=0.992;entryY=0.22;entryDx=0;entryDy=0;entryPerimeter=0;endArrow=none;endFill=0;" parent="1" source="QatNc70n-s6f2DUu6Mrz-10" target="bL1KEJmNTPArhZalwCbe-5" edge="1">
          <mxGeometry relative="1" as="geometry" />
        </mxCell>
        <mxCell id="bL1KEJmNTPArhZalwCbe-29" value="" style="shape=image;verticalLabelPosition=bottom;verticalAlign=top;imageAspect=0;image=data:image/png,iVBORw0KGgoAAAANSUhEUgAAAJsAAAGhCAYAAAB298bzAAAAAXNSR0IArs4c6QAAAARnQU1BAACxjwv8YQUAAAAJcEhZcwAAEnQAABJ0Ad5mH3gAAABhaVRYdFNuaXBNZXRhZGF0YQAAAAAAeyJjbGlwUG9pbnRzIjpbeyJ4IjowLCJ5IjowfSx7IngiOjE1NSwieSI6MH0seyJ4IjoxNTUsInkiOjQxOH0seyJ4IjowLCJ5Ijo0MTh9XX18Sbw3AABi4klEQVR4Xu2dBXQUSRPH/xt3IwkQ3IIEd3d3P9w57OCQ44PAIYcGONw55HAOd3d3CBI8QJBA3GWtvpndBpKwWTZhZ8OG+b1XL5ma6k2mt6a1ultCHBARMQAm7KeIiOCIziZiMERnEzEYorOJGAzR2UQMhuhsIgZDdDYRgyE6m4jBEJ1NxGCIMwjJIDy58AiPzN3QsrLb5zcxPioGt29/wNuPiXDL7YCSXlnh6mDB7oroiuhsyZBjXotZmOlYHYGbasGM0yhkCWhbaRkOP4iFqYkJSKmEk0dWXLvTG3mdzdXJRHRCrEa1Qjg5ez8OvjPHkWu/4unT33D/dm+4m0ZgxtJ7zEZEV0Rn0wZX6H94EYNK9QqjfpmsyJ3bEZ7Fc6JSHge8fhbOjER0RXQ2bUhM0HBIKTw//QDzN97H2bOvcHjXTZx5FoMWbQoyIxFdEZ3tG2QvVxa7/vaCd4/dqFNnPZq1P4TeU5pgUKu8zEJEV0Rn0wrh3OojaDf6AcYvb4EzZ3pg84o6WDX+IKaseshsRHRFdDYtKBJi8edft9F7QiP8ObAsatfOhy4DauKfMQWxbOF1RMmZoYhO/NTOlhAdh/v3P0Cq+DT6Q1DKCSam6mxRSqX4+E6J4vmdIVFp1FSolxemAeEIjlUyjYgu/NTO5n/xLspVXg+/DwlqRWICjpxSoFRRZ5hylyaWFnDNClx7Gqq+z7i86wlisjvCzV6sGNLCTz2oG/P+DYoXXQdbzxyoUMIVEYEhOHD6A47cHIyGJZxVQx+3dp9Eg163UaZ2buRxs0FCVCyOHH+J3pObYd7I0uyTRHTh555B4B794p7rmDzrCk5dj0SOQu7o/1tFjBlcBlZmrNTibHauOoe5y+7i6r1I5CyZDb26l8XooeXgYCmWbGlBnK4SMRjiqyliMERnEzEYorOJGAzR2UQMhuhsIgZDdDYRgyE6m4jBEJ1NxGBkikFd/gmOHgXi4pgik5EvH1C2LLswYjKFsykUQIECwOvXTJHJ6NsXWL2aXRgxmc7ZatViykzAy5dAQIDobD8USZ3N+J/mC97egI9P5nG2H6aDIIsLQat6VXD4qbhqSR9EBT7AgPZNUcbLC15eJdCwWUdceRzI7mYMP4SzxYW8wrDObXHg9FVEJnDFlMh3ER/6FDWq1MWuy09RrFIN1KpeCS+vHkOrpq1wzT+MWRmeDHY2wr1LR9C0bn3svfkiWei1SHpR4uKaGbgXZI/tpy9h89oVWLZyNW7dOw8P6QtMWrqXy/WMIWOdTalAn96/o1DT4bh2eA1smVrkezBBlV6TsGrHBtQukpXpAIccxbnSrjCCnmZcVZqxziYxwd4LV7By5hDYWpiKJZuesHPPh/7NqiX7cmXRgbjl+wbVm1XKsHzOcGfLmTULTCSimwmJQhqDKcP644N9SYzpUpNpDU8Gt9lEhEYaH4G/+zbEwmPPsWHrOuTIwK2+RGfLxCSE+6Nz5ZKYdjwWV65eRTVPd3YnY/hhBnVDH51A/mINscI3GJ1LujKtbqRnUHfdOuD+fXahIyVLAr16sQsO/u/+9RcQE8MUOjJqFJAjB7vQQvoHdQl+Z/5DlwGjYV26I7YtnYI8bj9A94t3th+BEL/j5MD9O1t8g5lGd+Ryojx5eDdjCh1o00ZtnxZp25YlZkilRG5umm21ye3b7AO+wdixavu+fZlCR2I+PKSiHs7UccQcilMw5Q/AT1+N2tgAjo7axZRfHv8NNKVLKQaBZFg1ciAevQ/H9vmjYWMqgYTrgH2S4hVHQMm5cEbwwzibpUN2dOzaFXmdLJnGMPDVU2ho6hISolt4j6a0KUUXp/1elHI5YnJ6oSuXl5qkeeNyXOOJGRsaVsIZNd9TjW7bxhSpoFQSVayottVWjeqCqanaVuhq9EdF7I2KGAwJ2dtzb4/xExvLVSFKwJ6imEY7bdsCe/YA27YBv/zClBrgy5bKlYHr19Vpdu1iNzhkMnWvMjhYbfctzMzUPdjbt4EyZZhSC4nekyH1mQdzc8DKiimNGVU5nZlER4yhGv1cj2YSkdDhw9xP44Yv0fr2AT4GAYepCdNqxxhKtn+9n2C7jz8aNQJ+/50pjRn2DmUgCvoY4E+3bt2mt4Gh3FXaETsI30App4f37lF4TAJTZAwZ20EgBf4a1AZ5ChZG+fLlUCBfTnQc7INELotF9AXh2bl1qFSxOs74vmO6jCHjnI3k2DG2E2auPo8+o6Zi584d8BkzAOc2TsPAyZuZkfDcvAns3Zu67NsHhOsQqa4pbUrhyylD8/7pddRu8itiErg6P6NhJZzBkcWFU9UyJaj9+LXE1YKfmdSzARWt2Zxd6YY4XaWZxMgP9HvH+jTAZx052jnR7ksv2J2MIcNKNjNrJ1y4eRf/Temp2iyZy1TEx0QiJDQa2d2FPz3FwwPw9Eyb8GlSwgcAaLLVJpYGmSRRYu3c6bhLhTC/X/UfI2aQOV2GEh1wgzwLFaIcWV2pWK1OFBwVz+7oRnpKNmPge0q291c2UN7yLehjTCLFhTwjZ3vnn7dkS0rE+w8oX7MOXB3MEPb6PpavOcHuiKQHaWwgWnabir9mzYC77Y9zLuoP4Ww5KzXH5tUrcffxa8wc0AA+U4fjaYx4oEV6UCRE4s/uHVCy1yR0rVucaX8MMtTZpImJkMmTrBM1sUDXvn0hCXuHf6+HMKVIWgh55Ys5ey5h7YRuMGNhRTauhRAeHY621QrAs0xXfD7QxsBkWKRuTPBbVK1ZF23HLcXk7g2Yluuq3zmC3OU7Yd2jQHT3tGFa7aQnUvfkSeDVK3ahI3nzAvXrswsOfuZiyxYgIYEpdKRNGyBLFnahhfRE6kZ9eIpRE+awKzXy+Chs3b4PNRq3QsXy9TF1Qn+uw8BuGhJVyy0DUCTGUN+6xcjMNj/N/WcrnThxgvbt2kLNq3pR3hKNScrsdEEc+tDOj9JByNA1CEpZJLq0aIpTV+8jJDIaNo4uyFe4Mtbu3oqKORyY1bdJT8n2aW6Un6PUNKTxCf7zLl/mOjER2udGmzVjSi0cPqz+PF3nRvW1sUx86HPkyFcRa47eRJuq+Zk2A1C5XAajkMsoMTGRZHwRlQ7EudFvoSSufUwK/mEykB+iN2piagYLCwuYGSJu+qdEAnMufzN6YPeHcDaRnwMTrm/MOb5xi6mZBK9eS0CZbLeQmfBWPdPqNV8/szGKWLKJGAwT1WCRkYtCpkS+PEr+YdhjZQ7GYYbqmfr3/fqZjVEyvBrdv3MzFixcmEz+3bpXo6024aubzFaNfnom1XNpeOZvScDzB9i+ZT0WLlqEvYdOIjRWqtHOYMJ6pRmDUk41iuUie0cXcnNz+ywV63dgBrohDn2kREnPzq8nNzNzcnZW5621uSmVbzaUoqUZtx9DhrbZFPJgvAmJxJK9l+Dv7/9ZzuxbzyyEZ9Ag9cBsapIzJ3D3LjPWgqa0KYUffDYE0rgwNO8yHLWGTMDLly+5PH2Bu6f+hf+Z9Vh/7DGzygCY02UIcY82kaN1IXoY/H0LMcTpquQ83D+NzGxK072PsUzDoZDS8X076fRdf6YwPBk4XaXEsXEN0f5EXmweUwN79x1CgrkrmrZoj85t6rLoXd1Iz3TV4sXqaaO0UK4c8Ntv7IKD/7sjRgDR0UyhI5MnA3nysAstpGu6iuRY3qUu5ilq48Ks9lixcgN8n7xA8bLV0fvXfsif1VA73GhA5XIZgFIWS03cXMjJxZWyumenXLlyUfZs7mRhZkHth81nVrqRnpLNGEhXySZPoB7VilLtDoOocoEclDUbn7c5ycHGkvKUbEKvw9IWBa1PMq7NZmqJqTv/w4r1O/H81SsEBATgNfdz04L/Yf+6ufCNNFADJ5PBvcaIVchwdsdy1Bq2CK9evVbl7aNbJ2EbfBV/LNrHLA1PhjmbRGKKcjXr45fmtWBnrQ5dNre0RutfOsMl+iMWnnmr0omkDYnEBO4WllyPpClGDmwDK0tzXguPItXQqlFF3Nt/IsOCJzPM2ZRyGZ4+eYLI2HimUWPKOZwblzlWphKmEUkTJmaoXIzr+tpawixZFkq4l9qGu69k14Ynw5wtMToY1SuVxZ9rj0LBjzBz8FXAtcP78cAhK/7XLLdKJxR8bJqmcUdt0q4dS8zg49nc3TXbapM7d9gHCAFXY7QYMgh2z/Zi4xFfvhWrUsvjw3Du3DUUaFIHGfUeZ5izWTtlxba/OmDV6O4oUbocKlWqhArlyqLlwPGo0/w35M241qTR41ikEZrUKYU/ezVC2fIVuLytCC+vkrgW6YG5v3FvWQaRcV8p9wbWHbYau/+di/y2wI0bNxBj6Yaxs/7F7nV/MCPh4YchLlxIXc6fB4oWZcZa0JQ2pZgYKLdNzKyxfscB+PxvICwTg3Dz5gOUqt0Bhw5vRxH3DNw1XN0pNW7E6SrjQKysRAyGhNav594e44bvX4weDdwMyYtzpNvZTMawGeBO79s44PMAtbhH6tOXKY0ZVTmdmURHjKEa/VyPZhKRkIcH99P4+fiRK2EULihOup0RZAwl2xvvZUjwWQA3m1g4OTGlESOh+HijdzYl9wUWKwY8DzCHnHSbwjcGZ+Mn4uf6yNC3lwLLlzOlEWOi2vM8AyQ+LhyVq1dBsbJlNUglzLwepTGdJiFOEiRWUKQpVsQ4kMEcMlPNz61NlIoIjPitO8qV5/KzXAU06dYPfqEJGm0NJRnWGzUxt0TVatVRs2bNZOJmZ4rXgREon9sw40FJQuRTFV3QlC6lGAqFNBYdG9XBxsN3ULRiddSoVgnvrhxG0+ad8SoykVllAKwp+kMQG/iAyudypz7TdjCNbojBk8mJeneZsliY0KojD5mG0725QR7OLrT4kB/TGJ4fZpyNFAkY3rsXlCVaYpl3iklIkTRhamkPc3NTJEq5RiWD+MaiRAI7W65KyyB+mMNtn57dgLJNR2PdsUvoUCNte+ry+ZjWSN3Tp9X2aYGPrq1bl11w8FXjf/+lfcusli2F2zKLh5RyrJ87Dos2nkShkiVhY67EnTNXUa79ICya+TtszTOojFGVbxmMIiGC2lbMT9V6TE22c7iuiJG6yVHIE2nv+gVUrEAOKlq8JJUsUZyycFXouAWbKTYDV1f9EF/PiwubyMTUno7eec80aUN0tuS8v7aRrE0sadXxB0zDtdne3qA8rs7057qLTGN4foA2G2Hbpv/gkq8OqnplZTqRdEMybJ22BJZ1+qBnvWJMCdjnKIsOTctj58q1P1+k7if4jsHFG75o1Lkb7A3YluDbefygbFqET5MSTXbfEr68Eg4JrCwkSIyVQsFHaiZBolSApBnkaRwZ7myy0Hu4/ygY9ZtWZRrD0KEDYGGRNunYkSVm8I7DzyBostUmuix6TjcSUzQa0gN0YzdW7zyNyNhEKOQyPLiwF7uO3UaVti0yZj9djgx3tvd3LyBQ5oEqRbMxjWHh9x/kp5G0SYoCQiOa0qUUwyBB/pr98HvrYvj9l3pwsrOCmbkFStRsB9sibTDvj5acRcaQ8W02mzwYMLQvsttnzFTT5s3Jq7iUIpUCFSowYy1oSptSDLWxpsTUHD7/ncT5E/swfugADBw4DOu3H8K5oyvgbJlxU3oZ7mx5q3fA0nnecMh4t89cmFqher2WmLZoBZYvX4geHZrC2YarwzMQ8SsWMRgSsrXNuO6JHomLA3ZTG3SjjUyjHWMIMZrsLcVoHxdVOsOc5CcwXB6pRw4zi+iIGKlreJHQ0KHcT+OGlMCGDYBfdE7Mov8xrXaMoWRb7f0C8T4L4VUMqFuPKY0Z9g5lGEqlgkLev6GHD/3o/ccwkqfjYAhxKZ92pHHh9Coogl0lRUlxUWH0yM+PHvsHUFwC90ACkrEdBK5ImjSwHfIX8oQX9/oWLJAPHQZORYycy2MRvaBICMeAplXQdcF+vsmUjFPbFyN33nwoxuV9scKeKF6+Ns4+CmJ39U/GOZtShn/G/ILZa86j27AJ2LplCxbOnoiA4yvwy4BpzEjke4j88Bwj+nTDurOPv3K0iGdn0ffX8Shcsy3Wb9yMVQtnwlURgI7teyIsXs6s9Awr4QxOXOg7cnGwoT6ztzONmnPbFpKNuyeFpSESRozUTYmSHl05RBUL5KFSlWpQbu5Dqo7bwGm/sGxUL8paoiHFJFH639hPtpZ2dOr+W6bRLxlWssXHxkEuU6BVlSJMo6ZEmRKIC/qAg8+Tb6Wlb2xsAAeHtAmfJiX29ppttYnge35wPnp4xy40GDIHdy/sh6bzlB8G+KNEuVKwTTJ35eFZBnkdCecf+DONfskwZzMzN+MyXYKXYVFMoybwBR8+m4C7/hFqhUDwS+P8uTxNiyxbxhIzzM2Bmzc122oTLy/2AUIhMcFvM5djyvAOTPE1Ye9C4eyYfFGRuaUDnNyd8OGNMHmfYc5ml8UN7Ut6YOqokdh5+g7i4+Pw/M5pDB03UzVRrFByNYiA8CUSH5qdFuHTpMTZWbOtNjHEpDx/yqG26A6uToWTlSu7YkgknJ9KEBIeyRT6JcOczcTcFksPHkVZq2D80qAcV0XZokiV9ijfrCvcYAo3x4xbmPEzYGIqQYI8jl2p4dp6UCqUcHbQ8FbpgQxzNh5z54I45uuHc0f3Y9nKf/D89Ut496yFIDN71CudCfYb+IFx5KrLoPAQdqVGKU9AXHQsPPK4MI1+ybDVVYrEaDRt1hLF2ozE/CEtmBY4smY6us/YjY8vbum8vj09q6sOHABevGAXOlKwINC8Obvg4FdX/fMP19lJY1+mSxf19qjfQi/Hdssi0MzCGRHjNuDi9O6fY9nWjO+HyUcD8ezmIVgx5Zu7x1C0Yhv8d+kBmlUQ4HhvVZ80I1BIae2QZmRpm59mr9hIhw4dpA0r51OpPDmp+5iVzEg3xKEPLUjDqSn3ISmHPsIfHycPe2uq2XEo7dl/gHZu/ZcaVypKLoVq0fuoRGalX7hHyTiUigTq3rgaOdnbcJkqIRd3D2o/aFqyTNGF73G2bNmIChbULlZWalttzqYpXUrh7Xj5EZyNZ9uCMZQzuxuZSCRkam5DeYqWoX13hRlj4+EeJWPh50ZlMhn3xUlJxnlNOqZGv8vZtmzhCllF6sJ/ti5zo5rSppSMmhuVqfKW+we+Qsk9n1yV91KpjOT8PykgGdpB4OEPiTAzM4O5uTnMTE11ivfXJ/wA67dEFzSlSykZhZkqbzX9AxKYcnnO5725uRlMBf4nMzALRH42JNSpE1dUGzd8ZXPwIBAbC3SirUyrHWOIZ7vnvQ1+PvtQgOsYVqjIlMaMqlGQmURHjCGe7XOjLZOIhPbs4X4aN/x416CBwJ3gHLhOOqy74zCGkm2T90Ps8nmGBvWBwUOY0phh75CwKBLo3r17pNDW0+R6pU/u3aLgGK64SCPf0xv9GSJ1E6OD6EFAELtKioLCAt/RlcuX6eq1OxQWFcf0wmCADgLhxp4lqNy6J6SpTq4TQl7eQa2a1XHihTCTwD8r8sRozOnfEL+uOJosgJLkCdg+fxxcsudAlapVUblSGXjkKYnjd19CqBgIgZ2NcHPbLDTuPp5da+bN3eMoW642PkQIG8OmCf7I7dBQ7SLXIXBVU7qUYmgUskhM698OE7Z9vbnIseWT0X3MPFSoMwQPHz/FnQsHUdElHq1rV8ftl8nnTPWFYM4WHRyAzi0boP7AxajkVYJpU0BKTPujP6o07IXqLdsgI+I8+vcHXF1TFzc3dRvrW2hKm1L49pphINw9tgHVy1XE9gdx0BQ+d+jcNZRv2QcXTixGscKFULp6M+w+uR+uyjAcvf6YWekXwZwtLDQMoZICOH7tBvrWT6XRzjnbi4/Aoi0HsWhsdxhycwCu5lDtZJQWqVKFJWbwA9D8lqWabLWJ4AdocE29C5fvokb7kThzcjc0ndw6+9992LnsL1gmOXzU3tUDLk5Wwg2ss7aboOwcO4hs8peheHnqPYQQv+PkwP07W3yDmUZ30tNBMAaEnhtNyd1ja8nS0okuPvrANPpFnEEQUeF/7QA69B+HLhOWoqKnDvFP6UB0tp8dUuDWiS1o/MtAVOo8GsvHdoa5QLsFis72EyNLiML+9QtRp/0INB00G2tnjkzWhtM3P62z8bMBfEM4LdIuxVkg/AwCH3GryVab3LnDPiAj4Uq0uWN6o92wmdhy2RcLxnSFOfe/CYlYsv2k7Jk7HtO3+WL74ZOonNUMoaGhnyU2Xsqs9MtP72ytWwPjxqUu/DoADw9mrAVNaVMKX6r9GCiwatsOxAS9QNsapeHm5gZXV1cm7hi5+Biz0y8GWfDy3s8Xt96Fo2n92kitSSCNDsKJU5dRqm5T5HRI24hbeha8GMNEvF4WvChluLr/EGSFy6FG0VyflDh74ggiYrkH+AoJ8nlVQqlCAmyorRoAMXLEiXjjQGyziRgMk6+6SkYopmYSvHotAWXYDv/CMBPeqmdavebrZzZGkfBr2dizGTV8u4lvD2WjQKbRjjG02aK9ZyDWZzGsrQFHR6Y0YiQUE2P0zqbkvsDiJYCAACCGdDvu2xicbZK3FHN9ZOjZE1i6lCmNGdZ2ExR5XCBNmTKNpBpCdRPiwmjPP4uod+9+tH7HSQqPEyN1P6GvDkLQkzM0e89ldqWZqEA/Gj1iPIXEC7d2VPAOglIeh+nDh8Dn311fHT0oDX+OVjUrosPg0di+fSt+7doYFWu0wb0PyXfXEUk/QS9uo2HdVth743mySN2k8CcjjhnYH8vWbUesTMm0+kdAZyPER4ehf9uGmPIPV1+lgH/APxo0wNnH5th36T5iYqLx7NZJWAddwtAhk5mV8CxaBHTunLrwm8DosgGNprQphV+YYyiIFHh85QDq1mkE33fJN1xMBmd3fPn/sOW0AebQWAmnd94/86XcWV2oTMM+NLFL26/i2eQJ0fRH/140c/OpZHFWswa3pCI1mrEr3fieajQtoq0aTYsIXo1ydf8Wn+HkYO1KQybNoVrch6QWz/b6/inK6VGGNi2fSLZOheh1lIzd0T+CzSCEvA/A5gO38GvvFjg8aRh6bL+K0Ke3YJXKFAJ/iP7DSycw8NffUKzzX1g1sRu7823SM4Nw6pTaPi3kzQvUrcsuOPiSiu9gJCQwhY60aqXegfJbpHsGgcuE43u2wTxnWdQpk1Xjllk80YFP0LVVRzSf8R8qJR5DtW5L4Rfgh9z2XE9GCFQuJzDfitQNe3ySdxGVlGs2gKITuaIqDYiRulpILVJXEU/Tfu9OzQfOIhnXcfM9tEDwku2HmEGIizHD1oNHMZjrIDw7sx6NW45jd0SE4uq2edhwOxH7ufaamYGOVv4hnC1HuVro1KwRlm46hAt7VuLqmbU4/CaR3RXRN8oIP/QZvRHef47Gh8BABHISEhbJNWUUCPrwAeHRwiypzDBnI4UMd2/fhH9gMNPwmKBYmbKwlUZzvVRht6b/mYl6cgGP3j9G70YV4OHhoZJ63SchLsofFTxzo9/MncxSvxgkxGiX9+CvOgixwW+Qt0BhVO8/B1t8BsHa3IR7s5S4umc5anSbhrNv36B6Ft0aqunpIEydCly+zC50pFo14M8/2QUHv3i5G9ePiUzjIv4lS9T/77cQak9decQbnLz6UH2f8fL6PoycfQCrNq5Cca/SKOOpQxBfWlG13ARGYwdBKaN941uRqcSUytdsQr1796b2rRuRs6UJVaz3GzPSDXHoQws6LuXL3B0EiRlaTt2Bbf/Mgl3US6xbtw63XkVhyPRVOHxgPjMSngkTgDNnUpfTp4EiyU880oimtCklI3ef/CFgTmfUiHOjxsHP/q6JGBAJ+ftzb49xw4/k16oFvHsH+FM+ptWOMYQYzfYOxwqfCHTk/j+fmUxpzKjK6cwkOmIM1ejnejSTiIT69OF+Gjf8k+zYAcTEAH1oDdNqxxhKtpveu3DP5zA8PYHq1ZnSmGHvkMCoD3fQhFwuUx26kVyEnxv9qToISgWlfqAG992wfFfwDysgBukghD87jxpN2iIxZfQkV4n/2qk5ChUqlEzqt+nN7ot8P0pcXO+NLvP3s+svKKUxWD/fG1W8isKzqBd6DJmA8ASBzofnENzZwl7cQPsOv8L3xZuvIkX5sCLfO/eQo0AZ1KlT57NUrlCKWYh8H3Kc2bIY9XvPxtuw6OT5r4zD5L4dMPivNchVvipqVCqJ89sWoGLtbgjWuHhZD7ASTu/IEmLo5L6tlMPNlbK7uGgMMZLHPaGczk50+MFHpkkf4gzC14QHvqC5Y/uTnYMLOXEfknIG4faueWTh6EGrz71kGiK/s1vIxtya9l17wTT6RbCS7fVjXzTv/Bt6+fyHhb9qboGHX9uJUGlheOV2RmJCPBISpVzWcvkr8n2QEksnjMbczfex//INVGXqpGzafxyVG7ZH35p5IJclIj4+Hp41fkGsNA4tKwpw1iiHYBPx0sR4BEckIru7I/aMG6IhUleODZ3LY1RQOXTK9gG7T9+AwsQalep3xOplM+Bma87svk16JuKfPeOcPZxd6Ah/HjzXpPwM/7fu3lX3StNC8eKAjQ270ML3TMQHB32Apa0THCwSNEbqdqpWHLZV+6BVwSj8b/YahEQlIlfhyli/bT1K5uQeVAAyLOqDb5zW5hqlfjEStOn0C/Jnc0J0WCB2bdsCG8/GuHVqk84NyvQ4mzEgVNQHT8Oy+fEs2AJkboouvTvDhhJw+L9NeBbjiktXT8MzuwOz1CO8swlNamHhcRGhFPAxnF2peXh6E5mYOdNOf91PG0lPm80YEC7qQ0n1Such53yV6GlwLNMRBfvfIA8HK5q69QLT6JcMnRu1dnRBLvfk+7QXrVgDJeWRWHHan2lE9I8EjhZWKFenFgq5fqnPs+QshgqFPHDn3ium0S8Z5myJ0RH4e5YP7r18zzRqZLFReAsr1CkqwP5gIp/JWSAXwgKTn+SiVEgRFhsPF2c7ptEvGeZsJiZKbFowEwPGzMTT9+qWenx0KJbMngNZ7gIYXEWHtW7fAT/1pGGjHa2SmfbU7dq8CR6dPYDZm44gUaGEUp6AM3vW497rSLSqV5JZ6ZcMczZzWxcc37sQH85uROEcLtyXIIGNgysmrjmO3/63AE7cl2IIeGfJz/X0tYmlJTPWgqZ0KeVHomKXofhf90qY1LMprMxMYWpujca9vFGm1VjUL6Vb5EyaYW03QTk2dzKVadCGEjSsG42NCqLl44dRkSJFqfe4v+lFYIRqPjItfM+g7qZNRImJ2qVCBbWttkFdTelSSobMjcoiaUCRItR5/r5kg7o8crmUXvtdonrly1D5yh3o5I3HJJMLt7EM9yjGjzgRbxxkaG9U5OdCQo0acW+PccM/wPnzwMX48hhP09TKb2AM8WxPvdfhpc9/yJkT8NJ0jqOxoSqnM5PoiBipa3iR0KBB3E/jhn+SzZuBq9FeWEK6ndxvDCXbZu+HeOSzF/WKvkOd2kxpxBhkbpSUibj/4AmKlyiJT3uYKGSJuHnzFrgOqlqRDAmyFyuP/M66Hb6RnrlRY3A2vcyNckhjgvE0DCie241pvhAd9gEPHr+AiaUTihUrBHtr4Y4YNkAHgXB1x0JUadML0iSOlRDxEU0a1kP16tU1SF0svZYBh6pnQuSJ0ZjWsx4GrDyaIniVcGHXEjhkyY6q1aqjcvniyO1VETefB6Ww0x8COxvh/IaZaNl3Erv+grVzNpy/fB13795NIncwul9rZC9QBuNqCXPAakrev+ca4k+1iy6b/WlKl1IMjTQ2GJP6tce03feZ5guh9w6gZY//oXrTEbhx6zauXzqGWlliUb9WLQSE6/DA6UHVEBWAqOA31KttA8rimpcali2jdTPAT/idWk/Zs+Sm1acfM41uiJG6KVHS3RNbqGqJwlS8fA0qyn1IykjdE7NGkmW+ihQm/TKI++LaPjI1t6MLDwKZRr8IVrKFhQTDPzoHTl69il8bco2ebyCLDcKAQeNQrcsQ9K1TmGmFgz/IwsEhbcKnSYm9vWZbbSL4nh+cj54/dxXVOozCuRO7oGnyyatWZdiGvcP243cQGRmFiLAgXDh5AjZOOZHVjXsoIWBOJyjf2uaU58zKP8jEugj5BsUzje6I8Wxa0LKL0d1zu6iYraqJppL8xRvT9Rch7K7++SFmEGQR/hg2cRX6TpyCEm5WTCsiJNEBNzFq9ARE5amPv6ZOxSTv4bCM9MW4sVMRKdByvh/C2S4d3oEnMfYY1KXh57BlEWFZMHkq/CUF4Xv7GCb++Scmz5iPU8e348Gx1dh2+usOhT74AZxNiQN7DiJ3+VbwypUJTgMzEvwePUf5ymXgYvnFBbLlL41i+bLg+MUHTKNfMtzZlPIoXPZ9hFbtOsPCgMXay5fqlVFpkVcpoqX5FtUD7nvRZKtN4oXZHzlN2LvYIigo+f6sssRohIREwMlemEjdDO8gxD0/TM7mjnTwURjTpB1x6EMLqXQQzqydolrA3GvwbPJ7/IQe3btOo3o0JUurLHT2wTtmpV8yvGR75XsNUaY54ZUnY6rQxo2BYcNSl6FDgaxZmbEWNKVNKXxI+I9C7Z7/w6KxPbB/y1R4FS2MYqWrYcNZf8xevRvVimVnVnqGOZ2gBL14Suev3iQNJ0BSxLundPbiLZKmPiryTcTgSS0oZXTvzBm67f+BKZITExZI58+dowuXblN4dNqHndKCQUo2t/yFUKNSuc+T8Elx9CiEWtXKwlzshgqDxAwlatdGmXyai2db52yoUbMmqlctAyc7YYedfoDeqMjPgkmyNWZGKqZmErx6LcF9lGCPlTmoj5MgSLB6jebnNjbJVCVbITxjv2UOquAq+y1zICE/P64Ratzwu4U3bAg8f2+DV5SHabVjDMGTk72l2O7zQrU4mj/+yOhhHQVBkUa/p1mz56rOtUxJbGQQ7Vm3jIYOHUartxykj5G6byjzCbE3+jVyaRzdvXycJgwdSkOHjaD9xy5RdDz3DydBnhhHN84epJHDh9H/pi+i249faRwx0Bc6ZlP6kSdG08R+bTQO6iaEPqd6ZfKTpZUNOTs7k4O9LRUoVZ+uPA1iFrohOlty5IlR9Gv7emRjYUEOjk7k7OREFqbmVLfDSAqNY2dTKeLJ5/eOZGJqRk5OzuRob0fWdq408d+zgjmcgG02gjQ+Fl1b1MX0NXuZ7gski0XHmrVx4bElDl55iLCwMAS+eYHaWUPRu1s/ZiU8fBRubKx24avpb6EpXUoxFM9OrcDa3WcxfMF2BAaFIjQ0GMf+nYbbB5dh0oazKhv/Mxvx5+LDGLVsP4JDQ7m8f44+DYtgzoieeBsp0FmvzOn0zrtnvpTfw5UqNh9IE7t8XbJFfXhFTrZWNHPrKaZR8+TMFjK1y0mPE3R/vcTpqqQoyXffSqrSczLFJd1JQZlIfRqXoTKtZqimraYO6UhedboSl3WfCXlxjdwsrei/S4+YRr8ItroqNDAAWw7cRr9ezXF40rCvdp4Me/sC+Ty9sP7YdbSu8WXXnLDHp5ClaCvMu/EOI8rrNoWVntVVixcDt26xCx0pV049ffUJ/u8OHw5ERzOFjvz1F5BHh36MvlZX8ZA8Du1qlYOsyljs/7snBjSviMCcDXBgxXRmwa9Z+IhKRQujwcSdmN2vPtPqEZXLCYymifjYkLfkbm9Dg+b/R0mbckdXTuHcxYJ+P6T7ZHB6SjZjQC/TVSoUdHrrHHJ1L0An/dTt4U6Vi1HXkT6q3z+h4Np61Uvmoh5TdjKNfsmwcTYbl6yY27USVo3qioHjF+Lq1SvYuGAsuo78G7pv3SzybQjPL21Dy74TMWL+atQr+mXtqI25plAiQnwi15AVgIwb1JWYocuig/irTwvsXvYnqlargfErLmH9rk1w4NzNM4cDMxRJL0pFInYvnYjyTQZj6vqDGNWxJrsDmFuaIiox+Xbp/CEoskQpXJ2EicDJOGcjJYJCIzFk/kY8evQYjx8/ht/d0yidBYiwc0bjYrbMUCQ9JER9gPevnTDs731YvvMsfmtbB5ZmX75ut1zZEBgYzK7USOMiER4agwKFvl45rw8yzNmUiTGoVcYLDYcuhr1rNngWKghrUyX27juAXAWKIJ/AYSBjxwJVqqRN+AZ7UuRyoEkTzbbaROgFy/LEKPRt3Qhbbsdg/7mz6NywNMxShNw0qlAGd65cxOOPEeqlVVypdvf8EbyMMkOlQrrNwqQZ1nYTFM2RukryP+ZDtmbmVLpyHWrXri3VqliSLMxcaNZuX2ajG+LQR1IUdHbxb2QmkVCZavW5fG2XTIaPWcdZEMmiXlDl3A5k7+ZBLVq3oSb1a5KjrSXlrTeU4mS6DzulhQw7dEMFKbBr9TzMXrgS1x++Rs3mHTBw8FB0bsK9/mngezaWadMGKFaMKVNh3Tr1Ng3a5kbHj2dKLcyYof7/hNxYhj/MpGXFIjjk+45pkuNVYTjuXZuvii18cvMUZs+ei027j8HUIS+69e+Jcf/7A3mz6HD8THpQuZyRI05XGQcZ10EQ+ekQnU3EYEgoRw6uqDZ+PnxQt91y0Fum0Y4xxLNFefsg2mcJbLkmlJMwB+UZFBNIpcgMYgEpIpD8HCxjxxRy1XOZKjU/s9EJa7sZNWIHwTgQtM2mlIdh7cTxGDBgIJZvOIwEjfvnMkiONXMm4sbbGKYQ+V7evbiDCQMGYODAYbh48xm+DsuT4f75kxg6eBCGjfwLD/y5toiQMKfTMwq6sncZ5bFSD05/kuye1enM3VfMJglKOZ1Y60O2lma0xTeYKXVHLNmSI5fG0NgBHcjONEn+S8ypZS9vCo/nMosjPuQZ9Whc9ct9TsysnGjAuKUULxPmSCFBSrb4j4/QvfNQWFTphOtPPnLZpcTd07vgHu+HIWNncy2RLyREhWD93+PQtM9YxCYKsy+YNg4cAP7+W7sEBjJjLWhKl1J41xEewosza7Hgn0Po8edSBEVLoZDGYfWfg3Bh+2JM33xRZbXG5y/svP4GUxfshVSuQFzoG0zo0RDr5ozGibuvVTZ6hzmdXnl99QgVq1CLQtn1J+5tnUCwr0BvP704XIlWvURecshSiDZtW08O3L9j6JItLWIU01Vcnu6e0IdytPiDEphKjZT6NipFpZtPU0XqThrwC/UYO119i5EQ9ZaKZ7Mj73WnmUa/CDRdRVznQwYLi6R76hMurByJpgsfI/DhEdjxs1ZKBTbtOIx69WrBIvga8hdriBW+wehc0lWdREfSM111/756yCItuLkBJZKsg+b/1qVL6o5WWqhQQb0X77dId6QuV5PESeWwsfyS/6RMQNe65RBWfhSO/N0HxGWaXKmEhfmX6MG4sJcoU6Qkhv17BkOalmdaPaJyOQMQ9uY+lcjhSL/+tZ5pkhPid9ygJZsxoL/eqJIu7phP7u756eg9zTuBKxWJ9O/MoWTnXoyeBkYxrX4xyAxC5Mdn6NK2LeILt8S0PzozrYgh4EOHHl3ehTYDp6LPlPloWOLr49BJKcPupZPx+/w9WLpjDwpmE2a3cMGdTR7+CA1q1MR795q4dWgt3GzEoG9Dcn7nQpSu3Rkjl+zA1P4tvt6zWCnFslGd0H38Siz+7wi61/QUbF9j4ZyN5Li8ZSaKFq6Mkq24Hs7WpXCwMmM3RQRHEY2Jgzqg68iVWLf7HEZ1qP1VAGXku0fo3KIBJuwOwu4TF9G1VnFBN9AWyNkUOLttIWr0nIG2k//Fkpkj4G6vw0HrBoSf59Sw0Y5W4ffcSAo/N8qfMa/JVpvcucM+QCAU0mgMbt8YW66HYPmeI+jSvCrMTZN/1XFBT9Hjl47wk+bAlRtH0LhSUY375+kTQZwtwv8WunX5A27Vu8LTOhLbNq3Hv//+y2QPwmUCdIBFGITb2+dizd7LqNOoCUIfXkiS9/9i78HrqhHcxeO9ceRRFHp1bIArh3cms7ly/436o/QN6yjolZ2r+LWfqmfSIEXoftTXI9SG7o1+GmdbupQoICB1ef2aqHRpta22cTZNaVOKIWYQ+LWfDUt5cOk05T3Iq8JwUiilVLmwu8b7XPlDv87azz5NvwgyzpYQH4PIqNQ2tzBDFvcsMEtRZCvlUoSGhsM+ixuskqwC0oXvCQvPdOeNcv9IeFgIpHLNG5SYmdsgi4sdwkJCIFNospHAxs4R9rb6b/YIUo1aWdsha9asqcjXjsZjYmYBN+5+Wh1NJAVco9CZe2E1531WztH4YQ0JXFxTs3EXxNF4JBQYqPeSzdDwuwxVqgS8fQsE0tfjSJowhpJthnc0FvvEoksXYO5cpjRmuDzi8ynziI4YQ9TH50ZbJhEJ/f4799O44Z9k3b9AdBTwOy1gWu0YQ8l2yfsgbvqchFdxoH49pjRm2Dtk1IjxbMaBYK1xhSwBVw+tRZ2c2bg2qwSVG/bA6Tv+SBms+/bJNfRrVgsSE3O07TUat569Z3dEvoe4iA9YM3cccnB5b2JqjaFj5uBVMFf0p8Lrm3uQO3sxBEQLF1MojLMpE7Hij06o2bI/3thn5RrvlRD25CQaVSqFORtOMSNC0O1tqFK5Lg7ce4dKFcvhwemNqFm+MtaeT3H8nUiaSIwKQO2K5TH8r5VwK1sRFcoVx9bFE1GlSmPcf//1zoXy2A/o1n0YwgQ61PYzrITTK0EPT5OlmTX1XniAotgO1THhgTS4UWlyKdGKormqSZEQSTVzuVK+yj3IP0gd0hIXEUi/1ChK5Rr2UF3ryvdUoy4uRDlzahcLC7WttmpUU7qUwtvxImw1qqDTCweSiVUe2nv1iXqHdqWCXt87Q8Wyu1DLsRtVwZOf4DfYHtu2OlWuUppsnQrR6yi2wbMACFKyOeT0wvLV/2DFsOawt1JHedg6ZcOoEd0Q/iYQUVwWSsysMXHBEqxcOh752AH41g7u8CqcFzK58Ady2tkBzs7qr1/TZstJxdZWbcunSYmTk/qepnQphbfjxdSUJRYECYo36YuxSxaiRSVP9eS7xAS5S9RAnSqeePsoyVQUKXBp32rs/pAfM4Z3YUoBYU5nAJS06LdmlLt692SbBn9CIY2jdZN+I3tLV1p07CnT6kZ6SjY+DV8ypUX4NCnRZPct4TsduqDPDoIyIYyqeuakfvMOMg3R21tHKbubJ70IiiHfQwsEL9kM5mzXD60lJyszWrz7GtN8Iej+IS5T1XNzhaq2o+ehaTt4Iz3OZgzoy9mUSimN6deKshWrTf6f8jbhA3WoXpGm/XdZde6BIZzNIHNDZ/f+g3b9vNF9+mYMbF2Rab9g5VoCfs/9cXz/FnhZBqBhnY5IYPdEvo/EmBDMGNWL63S9xdoNq5HPxVqln+c9AjGFmmB8xyqChxZ9hjmdICgVUjq6+i/K5pqV/rdkZ7KGaWqEPj5LprCjZXd1j4MXSzbNhAX60x9d6pF7nlJ07fmXw23j/Y+Rs3V2Gj1jPi1ZskQl4wa2Iwtrd5ry92I6fOUxs9Qvgn09ibFhNLplSTJ3zkW7zj7giurkriaNi6YFc2bSsVsPmUZNQqAv2cGKxp36yDTfRnS2rwl+foXKF3Ajr7pdKTI2IdmLHn51Bfe5n0KKUoqE2npvYJb6RZCvRymPpTkDmpNt9jJ07elbjQ3ihMggKuhqTwWqdqfnHyPVurhIWjK+H9m6FaIAgU946d6dKEuWtEnPniwxg2/se3pqttUmvjru4ppeZ4sLfU5l8mWlNoOmUEhsItN+QSlLoJCQkGRyfut0snEoQHdffaRozjmFQJA229MLhzB+5UFIY97il4bVkT9/PuTL90nq4UmMEpYOrji6dQ7kT/ejvJen6l6Bgp7wXrIfg0ZMRS5LYRsSMTFAaKj6dxsb7cKf4MLbajrJJTxcfU9TupTC2/HCz48KBsmx4c9huPvyIy7sWcXlbeEkeZ8PDVtPBZlaIkuWLMnE0cEWEhMTOLu4wM5GmBAjQZztyetXyJY7N7I7W0OpVKYQvrTmkaBA/QG4fe86RnVoqLpXqWVvnLl+G3O8tcyM65mlS4GAgNSFD8gsXZoZa0FT2pQi7PiaGoUsHsefvEcuLv9tLExS5L0SXH3KLJNjYWWPnDk9YMovkhAKVsIZNempRsWJeMNjkKEPEREeCf/6sN+NFlICK1YCkZHAWJrJtNoxhni2c97HcMXnLEqVUh/uYfSoyunMJDoiRuoaXiR0/Tr307jh2r2qwzP4fdSuUwWm1Y4xlGxLvd9ivU8gWrXS7VCPHx72DgmDUkpvnz+jhw/96M27YNUxNikJeOXP3X+YTJ75v2Z3dUPsIGgmIS6KnnH56ef3iMIjYzXO4MhlifTq8WPye/SYIqLjmVYYBOsgBAc8ROdyhVC0aDF4eRVDkaKF0ab/DARHJ531JPTr0Ji775VMmrTvz+6LpAciBS4e+hdVvDxRjMvPYsW84Fm0JJZtPwN5kqGPD8/uoHuzSiharBhnVwwlytfByVv+XHpmoGcEcTZKDMagOlWw3fc9/rf4P9y5fQuT+zXHgdXj0c97GbPi7BSJCPgQjonzduDOnTufZf/WLzYiaSf69QW0btcPMU7FsePUNdy8ehZlrBMxrFsbbLvMtjCVBaFfq8Y4+UyKLacu4+rZfcgnf4HmdWrjWWis2kbfsBJOr/if30mwzkL7/D58LrqVChltHteJzLPXoCCmlIZfo2z27nTppXq6Kr18TzWaFtFWjaZFBK1GlXLa9FtjQp765B/2JVRLGvOBmpbKQ1W6zVN9J9t8hpNLwcr0NChWbcDx8eklcrO0oFUn03Yqoq4IUrLlq94K/g9uoHnRrJ+3YJKYmKF8pZJcxUlMR3h+YA3CHSsjt70cB3dtxvaDpxEZk7SaFUkzElN0nrsDV4/+g3zO6nAiHnPbLMidx43rEqqvz12/iWq166OAsxnuXT6GfzduRrRNYQQlJKJ/vZJqI33DnE5w5AmR1KWGJ9XqOkGtUCTSxEp5yL1iIyqb78smJ9kKVqSDaQxxEaM+vk3I88uUL2tWmrfvjuq6dQVP6t5/Ag1tU5NMJOq8t7DLTgu3nVWvWxAAw8wgkAwL/xyEHfdiMH3SMJWK30jmoVN+uHMN1tk7ziM8PBzPuNKwWu4E9O7SDYn844voBWnsB9Rv0gHZanfD4OalOA0hSpqIrWvn4DYVwpPAYAR/eIkRbUvhj16tcfmxQIdvMKcTDKU0iiYMbE9u+UvSsTuvknW/FTIZJUiThyEH+50mc4ktzb6acmP71BFLttR5++gKVSqcg6p1GkYBoTFMS9SwTD7yrNaeoqVfBqTiwl6Tl4cjDVt0iGn0i4AlGyHi/RP0blAd26+EY8f+Q2hYOs/nNhyPiZkZLM3N2JUa1zwFUYricf5JMNOIpAt+5dThjWjesDVcK3TDvn9mI5eLLbsJZLGzRW7PfLAz/+ICVnau8PRww/sPYUyjXwRztnePr6NI0dI4Y14Rp84eQC2vnOyOmpigd6hQuiQ2n7qpajB8IvSNP+6aOqBbtdxMIwz8bMOzZ2mTlCe98OWOv79mW22SmMg+QCD4cbY9C0ajWeehqDhsMQ5u9OGcK3mMmmfxIvB/+Axxsi97tEnjI/AiKBT5cmdlGj3DSji9ooh5S41zu1GuFpMpgi1STolCGkMdCjqTg4cnbb/gp9J9fHWPWlYuRLlK1tS43C81xKGP5AQ/PEhZrMxp9rbzqpVTmgjyPUBuJuZUvV1/Ck+QkTQ+lCb0aU5Wts5055XuTZi0IMjOk2e3L0adX9Qdga8pgvtRD1Hc3gTxQY/Qv0sXrnS7y+4BXlVaYPmK5ahRMgfTfBt+vjG9O0927AgUL86UqbBqlXrvN21zo1OmMKUWJk9Wz+MKufMkyeMxuEkFrDj5kGmS41VhOO5dmw8TiRInti/Dr72G4hVbE26bNS/mLNqAXzvUgKkAMZSCONsT38s4evYGu0qJM7oN6o4sFuxpuJ7qnbOncP7eE+QtWRn1q1aArWXaavfvcbbMts0pPyuzc/O/eB+uebwyS9Yy6Nqp5ue2c3zUR/y3eRcSTF3RrE1j5HJzYHcEgHc2Y0eciDcODDPOJiLCIeHXlrHfjRp+ldMLZT6Up9Sq7+QYQzUa5z0V8T4LYcV1JG01bGpjdKjK6Uwi4XBiBfa3MYZqNGrsDIqFjTpRJhAJPXrE/TRu+B5egwbArffZEUGOTKsdY+kg8JG6fdtHYupUpjRiBDrcVo1SFoqV46fjcmAwytVujwG9W8Ka7WKSGBWK30eNRmwC9419hRka/TEP3Uo5s2vtiL1Rzbx9egMLpy7CR4kl+gz+AzUqF0HypasE/1unMWPJRpi7FMPI0f1RKJtueZ4uVOW13lHQpd1LKLeVanLgs2QrWJVO3XmpsogJek3OdlbJ7n8WE1uacUn3Y4XE3mhy5NIYGt2vLdmaJslTiTk16z6GwuLZcLkihqYPavvlPieWju40Zu5ukqUyEPy9CFKyxX98gOL5SsOkSmf8t2oeyhZwxcMLB9Gtay8kFvsF944u48quryFZLEb2bIPzoXlw69g/TPttvqdka9/+24O6/3D/yrt32ks2fsD2W/ADv0IP6vJ+8/T4IpRs4o1f/1qISSN6w8VCjo2zxmP4zJXovfAg5varjWdHlqBwm0mY8PdGTBjcBJBGYMH/BmL82pO4/eQlvHIIMN6mcjk98+7OKapUuwkFp5gr8d06geBQgd5qWvlCStozdyjZZStLj8I1T3GlhjhdlQSlnI7MGU752/yP4pNmv1JKfRuVpjItpqsib45NH06WhapS0iUuAb7HydTcjs7df880+kWgNhtBLldwbZSk5Rfh7PLhaLnoGd77HYZdiumQqMD7KF28OjpO2gCfYa2YVjfSU7L9+Sdw8SK70JEaNZCsoS6Xq88g5RdHpwW+pCxUiF1oId1tNlIiUa5MFlFDinh0rlMeURX+wKG5vZEQeBe1a7RE9hq9MaxHHa6YjsL6udNxJTwvLp/ZBFdbAU68VrmcAQgJuEclPRzo1yka9v5Symjhb83JrVhLCoxjbYo0IMazfQslnd8xn9zd89Oxe582BVTQ1SMbkrWrcxapQ5cfB7L7+scgX09k0AuqXyYf5avT40sDNQlRLy+To7kl/b3r6/12dUF0ttThFxo9vrqbsrg40/h/Dn4OXn12Zj3Z29lTiz4z6dlzf3p05zx1qV2aXDxK0YvgL0GW+kTwr0ceep/KF8xGZVoOoPBYzW2xtTN/I7ssxelt5Ncb1+mC6Gypc3LLLLKxtKC5O86QVP6lETe4RWWq2n4wJVGxSF0HGrf2NNPoF+HmRkmOCxumonCRaijTbiyObVoIJxsN7QBS4PypCyjTrBuy2Vswpch3I4/C+AHt0Ot/a7Buz1kMbVMT5knihsKCo7ietFuyUCJLWxdkdXPG42dvmUa/CNRBUODM5vmo3/MveC/bjAl9W8AylQApRdxLlM5XEp2WXsb49iWYNm2kp4OwYgVw90sYnU7wwxUDBrALDv7vjhmj3sUyLYwbB+TWIRA5vR0EhTQaQ9o3xKl3Nlj0z2o0KZuP3fnC6G6NcPi9M64f2wpbc/V3E+x/A2XL1UKf+YfwVy+u06BnBHG28OfX4FWoMuTVemBcx3IpYs+d0XVgt8/xbOF3NsOjwiicef0KlXNYqXRp5XvG2dKCtnG2tCDsOJsS19ZPRI1e0/HLsAmoUMCV6dXw8WxdfqmB91d3olLDbiDXyhgxtDVMpBHY/M8KvIz1wNU75+CZTX3qjl7hnU3f7Fo1lf/KU5EidD/qy0Db7fV/kKl9GXqXmHRQKG18zzjb3LnETw9rlZIl1bbaxtk0pUsphphBUCRGUaPSHlw6TXkP8qownIWKK+nR1SNUu0ppMjORkLmFC9Vp14eevgv/3InQN9yj6B9pYjxFRESkItHJGqVy3jYy+rse8HucLfNNVykpJjpSQ76rJTrFTkX8LkaRkRGcxJBMrnG0XW8I0kEwt7CCo6NjKmKXrFFqyts62CVb4ifyPUhga+egId/VYmeXvKliamYBBwdHTmxhZipsLK2JqnVr5CKJjYEtxcAawp/mZ0hMufaXHWJgJdf83EYnqnI6k0g07FiB/W2MoRoNGTtHnSCTSKZag/AWyRdCGzt+KMZ+yxyYaPZB4xKFnJA3D6EoHrHHyhwcRlOuBUbo11fzcxubCFayKeWJOLtlAarnzKaK/qhQpyMOXn2q6n8n5c3DS+jRuDpnY4GG7X7FFb937I7I96BMiMQ/c8fCg8t7Z/dSWLDxGOLlX7Za4IkNe48Z/+sPWysLOHtWwsL1+yBTpPyG9IcwzqaMx+IRv6B+91GIzFYA9erVhSzwBlrXKItZ608yI8L7a5tRpXpDnH4Wgbr16iD+3XU0rVIBf2+5xGxE0oM8MRK/1KuCEdPWIn+NOijnZYfxv7ZG+4EzIWV76irjA9G9WW1MWb4DlWvURnEXGbwH/IKG/ed8ttE7rC2qV4IenCZzM2vqPu8AxSaqozwSooNpcONS5FyiJcVwjW5ZbCgVzepMxWr1o4Aw9VabClkiLRrdg7IXrkJpOc/3e8bZunYlmj1bu+TKpbbV1kHQlC6lmJiobYUOC39+YjFZSuxp5Z7rpFDwnRw5HV0+mmwdPOhygPoc19OrJpG1S0E67Ks+NZHP+81/jyJLO1e6/zZCZaNvuEfRP7LYMNq8+T9KGePx8sQ8kjhVpHdcBoS/fUGONpa0/vh1dlfNR9/DBHM3OhumdlJd+B5nS4sYRaQuR0yoP02bvJaSTNTQO9895ObkTiefh6muR/duRlXbDFb9/omYj48pr60FLT18k2n0iyDVqJmNM7p06YjkMR6EvbuPI0+JIsjK/1VVPgI2FslXI5jwR9fJonDkVgjTCMO8eeqJ+LQInyYpfCDymTOabbVJkSLsAwTC1iUfxk/qDXvVt0t4dfMImrUaiKINB6BGPvXqqeCAt8ieM/m8KVeqwTWbHfyMdefJT1w98A85WZnRkr3qkiyRq1bzOdtT+a4TKebzch4FLRjeiXNBC/r90Dum+zZiPFtqyMi7fTHuM0BmFi7ks/XU52nBTpWLUe/RC9iVGn5etXrJnPTLn1uYRr8I1htNypndK9Gu/3j08tmGAS3Vx/1Y2Llg75opeLV3NqrVaICePXuiRf1q2HThDRy4Dr+luQEO5/wJ6DtuI148fYDZ47rj74HdsWD3dXYHkGg8W1QCixS7geoLQZ2NlDIcWj4ev/SbiJ6TV2He7+1g9vn5TFCyzXDsXTsP7hYxOHfxMpwKN8Wu7QuhlFihXEEnZieSfsxQoExZ5C/khRGT5qJ7E08sm7oI/OiGtYMlwmKTx0YpFVIkxsUhSxZhts0SzNkSY0Iwom1VtJ20HSt2n8TUX1slm2znx+H27tkNq1ItcfTMJTx/8hgblvyJ2Od+kLm6onFeYY6OzvSQErcObEI776VIvteACZwcHSBTRPONDXjkzYM3L5O3zeLCA/HuXQyKF87GNHpGXZvqF6UshmYNaE62OSvQzeeBGsOHlNJYalciJ2Uv15GevON7SEoKe/+c+reuSWXq9lYb6Uh62mydOhHZ2qZNunRhiRl8b5T/u5pstcndu+wDvkH62mwKOrvoNzI1caDF2y+QajNwhZweXTpART1cqOP/1qu+j4d7F5ClfXZatPMsZ6Ok+KgQWuDdhyxts9O9N0Y09PHo9DbiWlxkYmlLLi4uKaQS+UWr++SxAWfI082erG3tVffsba0oe4GqdOaZunuuK+LQR3JkcWHUumYZsrayImdnLs+dncnKwoLK1e5OgdFsQEoeRYOalSMTUzNy4u47OtiTuZUt/TJxY7J4Q30iSDX68MUzOLq4wMlWe1Vok6s2bj32Rf82dbh2qSV+n7URTx6cQe2CAm5ukoLly4H371MXftsFXUK4NaVNKfyojiEws3bGrtPXcObAOuTl2i4mDu5Yd+QKrpz8F9ns2ICUqT0W776AoxvmwNbSDC75auHghRvYMrlbsnhDvcKczqj5npJN3ObUcBhk6ENEhEdCZ85wb49xw+8M1KUL8PEjcIZqM612Pq2u+pH3Z/vH2x9bfALQtBkw+g+mNGZU5XRmEh0xhmr0cz2aSURCLVtyP40b/klOnQLuxBXGaJrNtNoxhpLtkfcGPPPZhTy5gVKlmdKYYe+QUSN2EIwDwToICrkUj33PoUPp4nBzK4Tpy7bgbVAEX21rRBYfhk51ymD3w1CmEfke4iNDcGDrEpR0dUWBog2w5/R1RMdL2V0eQtCbJ1gyaSxyZHVHzrzlsGzjAYRECbhCjTmd3jm/bYpqpTX/J9QiIWt7T3oUnHyRLI9SmUDTOtYmiQS0xVf3vXQ/IZZsyVFI46hNxUKq/PyU/xKJKTUbNOfzbE6Y31HKZmv5+b5KJCaUo1BDCk3HHnm6IEjJlhj8GN37zUDJ7gsQFBnHZZccr3zPwDH+BRZzb09SPvpdQMtqlTBx+1nOjikNCL8xTGmuPZSa8G2rBw+YsRY0pU0pfK/ZELy6vB6Hb73Dgv8uIEGmgEIWj/1LRuLs5oW4HBClspkzawEs8lfH3cdvoeD+MXliHC7sWokI/7PYdv6eykbvMKfTK/Hhb2nxvCXkF/3lDVEmhlIVJ3PqN2sT03AoZFSxSGHq9Os4unFuDzlw/46hS7a0iHFMVynp3f2zNPWvfyhc+qkcIwq6v5dcHd3prL963vPsge209eAx1e+fkMZ8oNK5HMl7nTD7s3GPIix8iLif702aO6Yf2bkUorMPkmwOrFTQ87dBql9D/I4b1NmMAX10EEI/vqGbF45RswqeVK31KIrVMvEZ4n+Dstnb0LaLj5hGvwg+g/B03yQUL1MRf8zegu5jJqKCpzu7wyExQYEcbuxCRP/I8feQhqhYqwlOPzXFiFG9YZPaPnmJEfhz5HAo8zRAg7IFmVa/CO5sLsV74MGjR/hvzQycmDsUvwyZzWWBiKHoPfZf+N2/hQkDqmNAy8ZYfvAuu/MFWVwIfuvWFocDrHDmxEa4WAsTqWvQiufZ0YVkYpKLLrxLYJoviNXo1+h1nE0po9/aVSfPcr2ShBAp6cMLX67nmp+KVWlM996EM70wCFKyyaKCsHDFKsSmWF2dPW8BmCuj8DFC4BP5dYA/MjIwMG3Cp0kK7wr8fKwmW23CzzwISdiz6+jpsxbypNkvMUU2V1ckJAbxrySnIDy5uAcFilfCE4c2uHhqP0rkFDgUX+1z+iXo/kniHo5KtVpECeyUF6U8jgY1LUVZijWlcA2HIxm6ZMu8vVEFnZzXn2BmT+sO32c6ophAXyri4UytRq1RjbUF3txH7k5O1GfmDoqVfhk1EBJBSja3YjWwaeZvuLd/OCpWrobatWujtFcxrDgVjMULZ8Dpy6oXEb1jghr9p6BxyWwY1q0BqtWqjdq1aqJwkSow92yG+WM7qdaCTJk0CyHxcjw6vARNG9RTfUdqqYt5Wy+rP0rPCNNBMLFA5z9m48KeVaiUJzusrK1Ro3VPXL5/G53rl2JGyTG3zYJ6jRohu4G3p+cn4r8ue74IPxBbsSIz1oKmtCnFUJG6FnbZsO/8JSyY9BuyW1vB2iELBkyeh5P7VyOfqw1nIYOpuwca1K4GBxsrWFklFzMzgf5RVsIZNeJ0lXEg+NCHiMgnJDRpEvf2GDfEVXWLFgMREcAk0uHgTw5jiGc75X0SF30uoixn26IlUxozqnI6M4mOGEM1+rkezSQioY8fuZ/GDd+Ir8A14t++AT5SkukwLRhDyTbNOwaLfeLQpSswP8UOSkYJe4eMGrGDYBwI1kGICXmHkb92QG57W5iYWKNstYZYtPkUuBf7C1xja/mMUSiRPxckElMU8iqP0TPXIJHLYpHvgfDo7C60aVwddhIJLG3c0aR9f1x7nPp+xdsXjoWraxEERAs3cy2MsykTsGJMdyxcexIN+/6OWT4TUMA2GsO7tcKBa/5qG1Lg3JLfMHLicuSt3BSzZ89Eo7I5sXzyMPyx8JjaxgC84arehw+1S7wOkdKa0qUUvpwyBAnhr9Gucx/c53xrxJSZmDSuP15d34tufUYjIvHrCM7gJ+cwespiJCgEju5kJZxeiXh+kcxgSYM23WeHchHJYt5TKTsz6jp1jepaGhNMHi72VHfQQkr8ZKRU0PiudalYzRbqax35nmpUIvm2qN1EezWqKV1K+fQ5QgdPXls3kiTwoHNPQ5mO6PXljeRo50JHkuh4EiIDqUpOD/rtt+5k61SIXkelZTfjtMFlAf9AeobkCHj+Gs4FC8CezUzFBj9FubxeaD1vL3wGNOONEMK16BOtHJHD1VFtpIjHkDa1cRsVcWX/YrVOB9JzBOT06cDlNM7KVK0KjB/PLjjkXI3TowcQGckUOrJokfr//RbpPm9UFgtf37coUb7w561mb+2dh0b9luPkg7sonc1WpSPObsGoPjhn2QDja0SjTs/l8Avw45o+RhpiFPX6Bi2ZO52qFs5HpWv1pndRXx/NnRDxjv5ZuYzaVy9DeQrXocuv1Tta64oYYpQaSrp1dg/NGDOI3Jyy0tgFu1WT8GqUdHrLPMpXpgVFxUvJ99ACwUs2wWcQAi5txfS/l8AvMARPAv0RERnD7nwhMsAXEyZPxRm/lwiO/oDQYHE5n36Q48CamVi8fjfipNF4EfgW8VJ1Fy028A5G/m8F/t2/FfZWGo5TFwLmdIIhjY2h+IQECvkYQL1rFaVs5dtS9JfXS4VcmqiyiQwPocV/DiTbbEUpJMm26t9CLNlSQ0nxXP4nxMfRywfnqaCbM3WYuInTKqlrndI0ZNoOZkcGKdkM+vVEPthDFshCB55GM83XxL+7TfawpsnndI9rE51NF5Q0uX9LyluiNYXd2USWpjZUonwlqlKlikpKFclLJqZWVLZiVfJefoSl0S+CVKNvbp1G5VoNcSMk6Qpsrov97g0UplawtzFDfPhHtGzSAPN2n2N31USFhyFRYgZ3J2H31OVnBPbtS5vwaZLCz1wcOaLZVpuktUORJkiBAz4jUKB2b4QkJBnK4PRhYeEws7KHiXUWNG7eAPlzZIO7u7tKXJzsITExg6ubGxxt03dW/zdhTqdX4oMeUWEHM7J0q0m3nr2liIhwunvhABXJbk9lWg4nriAieUIUNfR0J1PbwrT7vK/qSOlXz+5Sl3plKGuhSl+dDqON7xn6SIsYR6Sukp6fWUHWphLqOWo+vQ8Np/DQYNo2dzTZ29jRnxsuMLvkGKIaFWboA4TH1w6hbcuOeBLyab0BoWit7tizeREKZVcPdSSEPkOHZi1w6PozfNqSP7tnZazdtBkNy+VVK3QgPUMfn+ZGa9YE8n7jTx0+DISEaJ8b5YdAvsXGjer/T9e50fQOfZBCiiWTf8fEuasR9WkQ19QCQyevxOwx3WGhYTnfvcMLUbXrUuMd+pAlRtG+lctppo8PHbv2gOSfBm+ToJDH09Uje1U2246co4i4tJRpar6nZMu8c6NK+hjwmFbMnEmz5i2mx29CVM+SGkHPb9Dc+SspMjENPbM0omM2/diIzmYciJG6IgZDQgULcm+P8fPqlXr6qCA9YxrtGEM8W6j3XIT7rICDA7geI1MaM6pyOjOJjhhDNfq5Hs0kYqJZbVyikBPy5iHV4f2ZCW/MVD1Tv75fP7MxiqBtNqUyHkf/XYP5C1bi4SvNB6bu37UZ8+bNSyZrN+9md0W+h7AP/ljH5eeK1bsRGqt5ywtpXAR2LluCBYuX4fHrj0wrEKzA1jsv754kr9yOJOH+BP9nTMysqWn3cRQWzw/pMpQKqlU8r+p+UilYtiEz0A2xN5ocpUJG66b8Ri72n7YxlZCVY15auO0Ms1BzestiyuNuy2xA5tbONHTqZtXBaUIgSMmmTAjCyM6dEGhaAmfvBUAmjcaWv0fg9GYfrNx9iVlxdvIwvAmJwIbjT7jGtuyzPL5+mFkIz4kT6vOrUpMVK4CgIGasBU1pUwrvOoYg/OV5jJr5D+p28cb78HjERgSgS83smDB8JJ6zTX3Cn1/AwOETUKrtcLyNjEN81AdM6lEHK2YMwe2XAkXdMKfTK0F+ZylPrqK08+WXrbGU8giq62ZOXVikLk9cwH5ytclHDz5+valzWhCnq5KioHPLhpGHRwN6GfWlFgl9epTcHJ3pyJMQ1bXPsK5UoEo7zvoLcSEvuJqmCK06peMZlWlEkJLNrWgtPHt+F22SHFD79t4lXA2To2rx0kyjxPWNyxFdsC7sE1+jQ4PyqNl+MPzfptiXSiSNmKDmwPl4/vwA8th/2rODsG3ZCsgdvFCKbYv12M8PlStVhCIhGism9kLhUuVx/FEczt5/hP51Ne/H8t0wpxOMV8fnUumSXuRil4Um/XOE4j9tlyWPow75spJt1tyUxc6Ke4PV7QZrezf6beJytY2OpKdkMwa+fwZBTkvGdKDinvnI0bUsnbr9kumJmpYrQA3rdqLiubMma1fXbz+KogSashJ8BkFOrujaqw9aN6uEGSN7YvEmrpHEQTBF6/GTMX7MRPi+CubdBLGRIZg1vA3WLJmNpzECr/T5KVAiT4GK6N2vH8rljUP/vgNx40UIpyfEy+U4dfUMuv21AjGq7evjsH/VJFzZvxQHrz1RJ9c3ap8zBAr6b0pvMncuRc+StCVSkvjhHjnCggYfeMM030Ys2b6NPCGMmlUoSOVbjleteGtcNj9VbTOY3VUjjw+jKoWzUre//mMa/SJMyaaQwu/JU+69SooJWnfrDJPwV7gb8PU6hE9Y2DkiD5cyKtnRNyJpQR4fgdO+T1V14ydMLZ1RvVIpfHxxG5yvIXsWZ1imCJI0MbWEq60dpFxJJwSCxLM9Pf0fijT5FT47L+OP5l4w4cOnSIG9c4eg04yruPvqFnJLPyB3gcLoOnUd5g3t8Pmo6DtH1qJSx4m49uY1yjjptildeuLZ1q3T7eSWpJQoAfTqxS44+L/7119AbCxT6MjIkeo51W+Rrng2kmNl/6YYtCcYN26d5qpP9RHo8vgQtG9QE4EurXFl3wz8O2kARm24hXOXzqBkDnuVTejrOyhXtgZ+X30KI9pUUun0iqp80zeJodS/aiEyMbWgacs30KFDh2jq8G7ctSX1nciGPhSJtLBbbbIwN6f+f85T2fy7fDbld7Wj2h1+U9voiDj0kZyoN1cor4steZZrSFv2HqSD+3ZRixK5yMGtIO29GaCykYX6UZXc7pQlT1Haumcf7du9keqUyE3uBSvSm/DvG4pKDe5RhEEWH0Ej6uQkM1NTMuXEzNyCxmy6xO5+4d/xXcjczExtw/3sOHQ2pXX8+nucbetWzu+5zldqwn+2LjMImtKmFEPNIPBEBlyjUjkdVPnKi3UWD7r6Qj3G9onooKdUz92c2ZiRR5naFBprrKurlAoKfveWXr16RaFRsUyZEiVFhgarbD6GRmiM5v0W3+NsmTl4UpoQR++4fH0d8IbiEjU7kVyWSO8CAijgTSDFp2KjL4Qd+pCYwNUjB/LkyQMXe37jYE1I4ODiqrJxd3GEqaqBJ6IPzC2t4cHla+5cOWFtoXldgamZBTxy5UKunNlglYqNvpDQxYvc22Pc8EvqOnYE7n9wwxPyZFrtGEPw5Arv19jk8xbNmwNjxzKlMaMqpzOJyMHVUzpiDNXo53o0k4jgMwiG5AYqsN8yB74ohRfQYbsjIyFTRepWwRX2WJmDbeiEgngOMVL3GyjkUjx/dAUt8ueCiakbpi3fjsCQyM+j2rHBAVynwRoSiUSDWGL44ffMUiQ9xEeF4fB/S5GXy0+X7FVx4OIdxKSYlYkK+4CtiybAxtIMTrmqYcvRi4hO4BqiQsFaB3rn3JZJZGFmQhITEzLhRCIxIRv7QuQXpB4wjAl6TVkcbFT3kgrnbAQzJ9rwKFJlpwvi0EdyFNI4alWhEHE9+y/5amJOTQfM+jKGmRhITYq4c5//xcaE+wcLVB6s9bTl70GQki0x+BG6/zoLxbsvRFB4LNcDk+LVvTNwivfHkk37VTa2brkREsnfU3yWxNCnqF7AA21GLkD3Ig4qO6H53/+AkiVTl1KldJvW0pQ2pfC9ZkPw6uI6HLn9DvN3XERcogwyaSwOLB2Jc1sX43JAlMrm2sYVOBmeBVf83kAuV3A28Ti9eS5e39mMB/7CROoKU41aOGHcjAXYsmgwXB34yV5T5PIsjjx2JpDy4wUa4PenmDh4AIKzV8eaaTpsnKEnAgKA+/e1S1wcM9aCpnQphS+nhIdgk70UJk1ejB4tq8DSzIRrxlihYvUqsJZIIVeoPd7MzBxKMoVrTneu2cJPwlsgi5uL6p5KIQACbSzzBUViNF6/fIkdK+diytpLOHr1MmoU/XrF7ds7B1C0Sjcs3HsZfRp7Ma1u8GNXaZ2IP3gQePGCXehIwYJAM347YAZfUvET5LrsJp6ULl0ANx2Oxk/vxjJJiQ4PwqvHvvhj8EDE5muHEztmwdpUApKG4ffObbDnegxat6kOkkXh5P7jKN1+PNbPGwTLVM6S/y5UlamA+G0dxn/9BIkVdRq/lKITuQZWCpSKOOpXpzCVajWGEhRMmQbS02YzBr53uopIRmPbFVHlv6Vdflp/IkljUZlIG+b8QTamqj6bSuyzedKaQ7fTPDetK4J/PW9vXqFHz57SppVzqHA2J2rWbzqXBcl5dWUn15mwpZ1XXjBN2hCdLTWk9PjqFXrid4em/NGPsjjmoKUH1Q63b+EYlXOt239DNR8tjQ3jnO9/ZG/rSmcevFXZ6BuDfj0vTyzheiQ56NzbL6uuuFeMZg3vSK4F6lNEeoo1DtHZdEFOv3eoQYXKdCe+s9mrTilq3HcMu6dGFhdKVQu5069/72Ma/SJIB0EeE4y5S5cjPkXvyz13XpgjBkGRCUzDZaVShnMXb6B+pz5wtDTchAbfT0lMTJto6ttIpZpttQnvQkIS4X8THaf+A0Wyv2MKtyxZkCAL5V9JJCbIYWuT/NRqExMzSCzMERam7rHqHbXP6ZegB6dJIjGlki3mUTwbs1FIY2hA45Lk6tWMIj6tsOKQhtykvFYWtOzsS6ZJO+kp2fjSwsMjbdKvH0vM4MfZSpTQbKtN7t9nH/AN0leyKejUggEEMztac9D3c/sr6u1tKuzhTG1Gr1Xppg/pRC6Fq9CrcO4heJRKenhuK1lbWtKaY3fUOj0jiLPxUbhbZo8gE4kJFStdnqpWrUrFCuYmE+sctPWkLzNS8+b0QjI3y0sPQtlDp4PvGdQ1MVEPtmqTT0cBaRvU1ZQupfB2vAg9qJsY/YGalS9Mdk7uVKFKVapapTJlc7CmknV60KsQdVxhTOBjalO1MNnaZ6fKnE3lSuXI1cGeqrUaRaExXx+Mog+EqbdMLNBppA+uHtmEqnk9YGlpibodf8WNh3fQqV5JZqQmJs4UNRs3goejgQ5+SMGWLep93VITvuqsoMP8vqa0KcVUoHP+U2JhlxV7zl3Cipmj4GFlCSv7LBg+cxlO7V+FPFnUcYW22Qpjw/6T8PmzP+xtrODoUhB/LliLU7vmwMU2efWqN5jTGTXfU7Jl5kjdHw3DtchFfnokNH069/YYN/z7//ffwLMIN6yi/kyrHWOI1F3l/RKvfbaiXHnub7dhSmNGVU5nJtERMVLX8GICKytkBkmUWIEPNsxMTMVEJMAKMlPNz2x0wt4hgVCSjHv9ExOlpNCyRE8uk3E2iSSTG24G4WfrIEi5f1bBP0wKlAq5Ku8TpTLVswqJYB2EmJC3GNG3DfI4O3JObY9Sleti0dbTyUe1SYHl00ehRMHcsLS0Qv7CpTBq+irEypMaiXwfBP9LW5HNxR37rrxkOjXXjm1FjYqlYGNtBXu3nGjUtgduCBTLxiOMsykTsPSPrli0/gxaDx2P5cv/hpdzPIZ3aY69V/zVNpyjnVgwACMmLUOBam2wcuUKDOnWADtmjUKvkbof2f29qMsO7aILmtKllIwg7M1D1K3fFWExiUyjJv79LXTv0g/vZA5YsHgppg7viSeX96Fl24GIkgoU5clKOL0S/uwCWcCKhm7yVW3PxCOLeU9l7M2o27S1quv48Pfk7mhLHcetTrZh8LHV08nWoyilfiLp13xPNcpXg3nzpi7851paqm21VaOa0qYU3o4Xg1Wjsiga07kBdf9rKTnYOtHuS1+iatb9OZBcC9eioLgvMTgPTm/hntWeLj3+wDT6RZCSzalgFTx7+gDTu5RU72DEkRATiTglIaebOnAyLjoWCVI5OjYqD/Mkq+DLV6uE2A+BOBZgmC2z+GEL/nSY1IQPyOQnz7+FprQpxdBsnf8XTkXkw4ohDb/aaeD208coVaE83Ky/rIIvUKYq8tnLce5BGqNKdUSgNpspchcqAHvu+aLf3MbKhbNQv3ojWJfrgd+7NFRZmJmbwYTLgKAUZ8arzodXxuHCA36HROHYvftTOaO7JB1j4zE3V+8krslWm+gyxvZ9EF77HsHcDTexbuNiJHczNeGBIXB1U++v+wlzK0c4udrjxVMdtkdPB4LPILw+vxGTZs6H34dg+L7yQxhzLjvnLPBydcTvY3zw7EM44uLiEBURjFlTZmjMHBHdkcVFoHunX9Fz4mwUz6J5nlMuU8LBQr132yckJqYws7BARHTqmzV+D4I7m2frqVwV8gr+zx+jb6FY1G/VF9Fc+9PE0h5Hr51HkagrKOOZH/ny5eOkEKS5a8CVKxmd7YQ9tjuzQooEzOzZFtlaTcCAttojCKQKDU0VksDZQb05oL4RzNkUbN2aha0drKys4Jo1N+YtnIqQW+dx7gUr3bJ64sT5c/hnyVyMHjMWm/ecwJz/dUSEmS1qlUhexIvoRujLu5i59yJ8DyxF9SqVULFiRVSv3xbRcdH4X9/WaNdtgmr4yTGrI4IikleXClk8YqOi4c5OutY3gjjbq2vHUaFaPdz4fGS3mqB3b6E0tYKDjRkUiTHo26sHNlwPQaceffDHyBFoXLsCHt24DhsPD1RzFjYe5+5d4NixtAmfJil8++vMGc222iRKoEBYHlNL7kWtVw/5cmWHi4uLWpydwO80YOfoBEdHW1UzxcuzEJ4+eIJErtP2iZDXfvAPTED5wjrswZoeWK9UrySEPKbCthKycKlEvgEhJJPJ6P7FfVTAzZbKtBxOct5IIaX5bUuRqU1+2nX+IWeTSPfP7aaSud2ofufpqs/Rle8Z+kiLaBv6SIsYegYhLuQZOds7Jxv6CL27iywlZlS/1zgKj0ugDy98qWXVomTrUozeRCRdI6I/uEcRhsdXD1LJ7NZcZn1aKiah0k360tN34cyC87f4D9SmnOpw3c9Sv+tYCkrjVpuis2lHk7Pxy/zWThvMff6XvLd2y0XrT/sZ51I+fj3o3mVLaOq0aXT0uuaH4G2O7dlC06bNpHN3DLeU72eaG+VXTf09ew49fvPlRVejpHdPbtKsmdPp7yWb6U1oFNMLg47Z9GMjOptxIPjQh4jIJyTUujX39hg3/PvPnxvKbwDTmvYwrXaMIVLXz3sTnvrsQp48hph1MACqcjqTiLin7o8tEtqwgftp3PDjx3/8AdwMyYvzVINptWMMJdsO7zs44PMAtWqpdzIyetg7ZNSIHQTjQOwgiBiMn97Z+A0Bb9zQLrqcuqcpXUrhy6mfGlbCGTXiDIJx8NOWbDY2gJNT2sTWliVOgoODZlttYqg9P340BN9T1xCkZ09dY0Afe+r+SIgdBBGDITqbiMEQnU3EYIjOJmIwRGcTMRiis4kYDNHZRAyG6GwiBiPTOZumXbqNVQx1ZKShyHQzCFmyMGUmgI885k/8yywzCJnO2TIjorOJiKQRsYMgYjBEZxMxGKKziRgM0dlEDIbobCIGQ3Q2EYMhOpuIwRCdTcRgiM4mYjBEZxMxEMD/AZoUdg3tLxoYAAAAAElFTkSuQmCC;" parent="1" vertex="1">
          <mxGeometry x="650.0000000000001" y="213.35" width="95" height="297" as="geometry" />
        </mxCell>
        <mxCell id="bL1KEJmNTPArhZalwCbe-34" value="" style="endArrow=none;html=1;rounded=0;" parent="1" edge="1">
          <mxGeometry width="50" height="50" relative="1" as="geometry">
            <mxPoint x="761" y="400" as="sourcePoint" />
            <mxPoint x="231" y="420" as="targetPoint" />
            <Array as="points">
              <mxPoint x="761" y="530" />
              <mxPoint x="231" y="530" />
            </Array>
          </mxGeometry>
        </mxCell>
        <mxCell id="bL1KEJmNTPArhZalwCbe-35" value="" style="endArrow=none;html=1;rounded=0;entryX=0.009;entryY=0.899;entryDx=0;entryDy=0;entryPerimeter=0;" parent="1" target="bL1KEJmNTPArhZalwCbe-5" edge="1">
          <mxGeometry width="50" height="50" relative="1" as="geometry">
            <mxPoint x="231" y="420" as="sourcePoint" />
            <mxPoint x="256" y="420" as="targetPoint" />
          </mxGeometry>
        </mxCell>
        <mxCell id="bL1KEJmNTPArhZalwCbe-36" value="" style="endArrow=none;html=1;rounded=0;" parent="1" edge="1">
          <mxGeometry width="50" height="50" relative="1" as="geometry">
            <mxPoint x="741" y="400" as="sourcePoint" />
            <mxPoint x="761" y="400" as="targetPoint" />
          </mxGeometry>
        </mxCell>
        <mxCell id="bL1KEJmNTPArhZalwCbe-37" value="" style="endArrow=none;html=1;rounded=0;" parent="1" edge="1">
          <mxGeometry width="50" height="50" relative="1" as="geometry">
            <mxPoint x="210" y="551" as="sourcePoint" />
            <mxPoint x="610" y="551" as="targetPoint" />
          </mxGeometry>
        </mxCell>
        <mxCell id="bL1KEJmNTPArhZalwCbe-38" value="" style="endArrow=none;html=1;rounded=0;" parent="1" edge="1">
          <mxGeometry width="50" height="50" relative="1" as="geometry">
            <mxPoint x="210" y="551" as="sourcePoint" />
            <mxPoint x="210" y="401" as="targetPoint" />
          </mxGeometry>
        </mxCell>
        <mxCell id="bL1KEJmNTPArhZalwCbe-39" value="" style="endArrow=none;html=1;rounded=0;entryX=0.008;entryY=0.817;entryDx=0;entryDy=0;entryPerimeter=0;" parent="1" target="bL1KEJmNTPArhZalwCbe-5" edge="1">
          <mxGeometry width="50" height="50" relative="1" as="geometry">
            <mxPoint x="210" y="401" as="sourcePoint" />
            <mxPoint x="251" y="401" as="targetPoint" />
          </mxGeometry>
        </mxCell>
        <mxCell id="bL1KEJmNTPArhZalwCbe-40" value="" style="endArrow=none;html=1;rounded=0;" parent="1" edge="1">
          <mxGeometry width="50" height="50" relative="1" as="geometry">
            <mxPoint x="610" y="551" as="sourcePoint" />
            <mxPoint x="610" y="413" as="targetPoint" />
          </mxGeometry>
        </mxCell>
        <mxCell id="bL1KEJmNTPArhZalwCbe-41" value="" style="endArrow=none;html=1;rounded=0;entryX=0.001;entryY=0.672;entryDx=0;entryDy=0;entryPerimeter=0;" parent="1" target="bL1KEJmNTPArhZalwCbe-29" edge="1">
          <mxGeometry width="50" height="50" relative="1" as="geometry">
            <mxPoint x="610" y="413" as="sourcePoint" />
            <mxPoint x="646.96" y="409.93399999999997" as="targetPoint" />
          </mxGeometry>
        </mxCell>
        <mxCell id="bL1KEJmNTPArhZalwCbe-42" value="" style="endArrow=none;html=1;rounded=0;" parent="1" edge="1">
          <mxGeometry width="50" height="50" relative="1" as="geometry">
            <mxPoint x="241" y="510" as="sourcePoint" />
            <mxPoint x="590" y="510" as="targetPoint" />
          </mxGeometry>
        </mxCell>
        <mxCell id="bL1KEJmNTPArhZalwCbe-43" value="" style="endArrow=none;html=1;rounded=0;entryX=0.013;entryY=0.635;entryDx=0;entryDy=0;entryPerimeter=0;" parent="1" target="bL1KEJmNTPArhZalwCbe-5" edge="1">
          <mxGeometry width="50" height="50" relative="1" as="geometry">
            <mxPoint x="240" y="360" as="sourcePoint" />
            <mxPoint x="280" y="360" as="targetPoint" />
          </mxGeometry>
        </mxCell>
        <mxCell id="bL1KEJmNTPArhZalwCbe-44" value="" style="endArrow=none;html=1;rounded=0;" parent="1" edge="1">
          <mxGeometry width="50" height="50" relative="1" as="geometry">
            <mxPoint x="241" y="510" as="sourcePoint" />
            <mxPoint x="240" y="360" as="targetPoint" />
          </mxGeometry>
        </mxCell>
        <mxCell id="bL1KEJmNTPArhZalwCbe-45" value="" style="endArrow=none;html=1;rounded=0;" parent="1" edge="1">
          <mxGeometry width="50" height="50" relative="1" as="geometry">
            <mxPoint x="590" y="510" as="sourcePoint" />
            <mxPoint x="590" y="350" as="targetPoint" />
          </mxGeometry>
        </mxCell>
        <mxCell id="bL1KEJmNTPArhZalwCbe-46" value="" style="endArrow=none;html=1;rounded=0;entryX=0.005;entryY=0.459;entryDx=0;entryDy=0;entryPerimeter=0;" parent="1" target="bL1KEJmNTPArhZalwCbe-29" edge="1">
          <mxGeometry width="50" height="50" relative="1" as="geometry">
            <mxPoint x="590" y="350" as="sourcePoint" />
            <mxPoint x="640" y="300" as="targetPoint" />
          </mxGeometry>
        </mxCell>
        <mxCell id="bL1KEJmNTPArhZalwCbe-47" value="" style="endArrow=none;html=1;rounded=0;entryX=0.003;entryY=0.925;entryDx=0;entryDy=0;entryPerimeter=0;" parent="1" target="bL1KEJmNTPArhZalwCbe-29" edge="1">
          <mxGeometry width="50" height="50" relative="1" as="geometry">
            <mxPoint x="250.06" y="490" as="sourcePoint" />
            <mxPoint x="386.18" y="490.23" as="targetPoint" />
          </mxGeometry>
        </mxCell>
        <mxCell id="bL1KEJmNTPArhZalwCbe-48" value="" style="endArrow=none;html=1;rounded=0;" parent="1" edge="1">
          <mxGeometry width="50" height="50" relative="1" as="geometry">
            <mxPoint x="250" y="490" as="sourcePoint" />
            <mxPoint x="250" y="371" as="targetPoint" />
          </mxGeometry>
        </mxCell>
        <mxCell id="bL1KEJmNTPArhZalwCbe-49" value="" style="endArrow=none;html=1;rounded=0;" parent="1" edge="1">
          <mxGeometry width="50" height="50" relative="1" as="geometry">
            <mxPoint x="250" y="371.51" as="sourcePoint" />
            <mxPoint x="280" y="371.51" as="targetPoint" />
          </mxGeometry>
        </mxCell>
      </root>
    </mxGraphModel>
  </diagram>
</mxfile>
